<?xml version="1.0" encoding="utf-8" standalone="no"?>
<!DOCTYPE svg PUBLIC "-//W3C//DTD SVG 1.1//EN"
  "http://www.w3.org/Graphics/SVG/1.1/DTD/svg11.dtd">
<svg xmlns:xlink="http://www.w3.org/1999/xlink" width="324pt" height="216pt" viewBox="0 0 324 216" xmlns="http://www.w3.org/2000/svg" version="1.1">
 <metadata>
  <rdf:RDF xmlns:dc="http://purl.org/dc/elements/1.1/" xmlns:cc="http://creativecommons.org/ns#" xmlns:rdf="http://www.w3.org/1999/02/22-rdf-syntax-ns#">
   <cc:Work>
    <dc:type rdf:resource="http://purl.org/dc/dcmitype/StillImage"/>
    <dc:date>2024-10-11T14:57:25.779851</dc:date>
    <dc:format>image/svg+xml</dc:format>
    <dc:creator>
     <cc:Agent>
      <dc:title>Matplotlib v3.6.0, https://matplotlib.org/</dc:title>
     </cc:Agent>
    </dc:creator>
   </cc:Work>
  </rdf:RDF>
 </metadata>
 <defs>
  <style type="text/css">*{stroke-linejoin: round; stroke-linecap: butt}</style>
 </defs>
 <g id="figure_1">
  <g id="patch_1">
   <path d="M 0 216 
L 324 216 
L 324 0 
L 0 0 
z
" style="fill: #ffffff"/>
  </g>
  <g id="axes_1">
   <g id="patch_2">
    <path d="M 42.12 179.28 
L 317.52 179.28 
L 317.52 4.32 
L 42.12 4.32 
z
" style="fill: #ffffff"/>
   </g>
   <g id="patch_3">
    <path d="M 64.164389 179.28 
L 70.335219 179.28 
L 70.335219 179.171187 
L 64.164389 179.171187 
z
" clip-path="url(#pb84d349b40)" style="fill: #0000ff; opacity: 0.6"/>
   </g>
   <g id="patch_4">
    <path d="M 70.335219 179.28 
L 76.319025 179.28 
L 76.319025 179.055573 
L 70.335219 179.055573 
z
" clip-path="url(#pb84d349b40)" style="fill: #0000ff; opacity: 0.6"/>
   </g>
   <g id="patch_5">
    <path d="M 76.319025 179.28 
L 82.126811 179.28 
L 82.126811 178.586313 
L 76.319025 178.586313 
z
" clip-path="url(#pb84d349b40)" style="fill: #0000ff; opacity: 0.6"/>
   </g>
   <g id="patch_6">
    <path d="M 82.126811 179.28 
L 87.768637 179.28 
L 87.768637 177.613783 
L 82.126811 177.613783 
z
" clip-path="url(#pb84d349b40)" style="fill: #0000ff; opacity: 0.6"/>
   </g>
   <g id="patch_7">
    <path d="M 87.768637 179.28 
L 93.253725 179.28 
L 93.253725 176.58684 
L 87.768637 176.58684 
z
" clip-path="url(#pb84d349b40)" style="fill: #0000ff; opacity: 0.6"/>
   </g>
   <g id="patch_8">
    <path d="M 93.253725 179.28 
L 98.59055 179.28 
L 98.59055 175.379665 
L 93.253725 175.379665 
z
" clip-path="url(#pb84d349b40)" style="fill: #0000ff; opacity: 0.6"/>
   </g>
   <g id="patch_9">
    <path d="M 98.59055 179.28 
L 103.786915 179.28 
L 103.786915 172.173003 
L 98.59055 172.173003 
z
" clip-path="url(#pb84d349b40)" style="fill: #0000ff; opacity: 0.6"/>
   </g>
   <g id="patch_10">
    <path d="M 103.786915 179.28 
L 108.850026 179.28 
L 108.850026 169.99667 
L 103.786915 169.99667 
z
" clip-path="url(#pb84d349b40)" style="fill: #0000ff; opacity: 0.6"/>
   </g>
   <g id="patch_11">
    <path d="M 108.850026 179.28 
L 113.786545 179.28 
L 113.786545 166.766173 
L 108.850026 166.766173 
z
" clip-path="url(#pb84d349b40)" style="fill: #0000ff; opacity: 0.6"/>
   </g>
   <g id="patch_12">
    <path d="M 113.786545 179.28 
L 118.602649 179.28 
L 118.602649 156.554426 
L 113.786545 156.554426 
z
" clip-path="url(#pb84d349b40)" style="fill: #0000ff; opacity: 0.6"/>
   </g>
   <g id="patch_13">
    <path d="M 118.602649 179.28 
L 123.304074 179.28 
L 123.304074 147.573619 
L 118.602649 147.573619 
z
" clip-path="url(#pb84d349b40)" style="fill: #0000ff; opacity: 0.6"/>
   </g>
   <g id="patch_14">
    <path d="M 123.304074 179.28 
L 127.896152 179.28 
L 127.896152 139.215071 
L 123.304074 139.215071 
z
" clip-path="url(#pb84d349b40)" style="fill: #0000ff; opacity: 0.6"/>
   </g>
   <g id="patch_15">
    <path d="M 127.896152 179.28 
L 132.383857 179.28 
L 132.383857 121.525448 
L 127.896152 121.525448 
z
" clip-path="url(#pb84d349b40)" style="fill: #0000ff; opacity: 0.6"/>
   </g>
   <g id="patch_16">
    <path d="M 132.383857 179.28 
L 136.771826 179.28 
L 136.771826 111.184316 
L 132.383857 111.184316 
z
" clip-path="url(#pb84d349b40)" style="fill: #0000ff; opacity: 0.6"/>
   </g>
   <g id="patch_17">
    <path d="M 136.771826 179.28 
L 141.064397 179.28 
L 141.064397 85.894383 
L 136.771826 85.894383 
z
" clip-path="url(#pb84d349b40)" style="fill: #0000ff; opacity: 0.6"/>
   </g>
   <g id="patch_18">
    <path d="M 141.064397 179.28 
L 145.265629 179.28 
L 145.265629 78.110381 
L 141.064397 78.110381 
z
" clip-path="url(#pb84d349b40)" style="fill: #0000ff; opacity: 0.6"/>
   </g>
   <g id="patch_19">
    <path d="M 145.265629 179.28 
L 149.37933 179.28 
L 149.37933 66.000863 
L 145.265629 66.000863 
z
" clip-path="url(#pb84d349b40)" style="fill: #0000ff; opacity: 0.6"/>
   </g>
   <g id="patch_20">
    <path d="M 149.37933 179.28 
L 153.409072 179.28 
L 153.409072 55.809233 
L 149.37933 55.809233 
z
" clip-path="url(#pb84d349b40)" style="fill: #0000ff; opacity: 0.6"/>
   </g>
   <g id="patch_21">
    <path d="M 153.409072 179.28 
L 157.358213 179.28 
L 157.358213 37.136588 
L 153.409072 37.136588 
z
" clip-path="url(#pb84d349b40)" style="fill: #0000ff; opacity: 0.6"/>
   </g>
   <g id="patch_22">
    <path d="M 157.358213 179.28 
L 161.229915 179.28 
L 161.229915 26.489236 
L 157.358213 26.489236 
z
" clip-path="url(#pb84d349b40)" style="fill: #0000ff; opacity: 0.6"/>
   </g>
   <g id="patch_23">
    <path d="M 161.229915 179.28 
L 165.027157 179.28 
L 165.027157 24.200467 
L 161.229915 24.200467 
z
" clip-path="url(#pb84d349b40)" style="fill: #0000ff; opacity: 0.6"/>
   </g>
   <g id="patch_24">
    <path d="M 165.027157 179.28 
L 168.752748 179.28 
L 168.752748 23.560981 
L 165.027157 23.560981 
z
" clip-path="url(#pb84d349b40)" style="fill: #0000ff; opacity: 0.6"/>
   </g>
   <g id="patch_25">
    <path d="M 168.752748 179.28 
L 172.409343 179.28 
L 172.409343 18.235509 
L 168.752748 18.235509 
z
" clip-path="url(#pb84d349b40)" style="fill: #0000ff; opacity: 0.6"/>
   </g>
   <g id="patch_26">
    <path d="M 172.409343 179.28 
L 175.999451 179.28 
L 175.999451 15.253035 
L 172.409343 15.253035 
z
" clip-path="url(#pb84d349b40)" style="fill: #0000ff; opacity: 0.6"/>
   </g>
   <g id="patch_27">
    <path d="M 175.999451 179.28 
L 179.525446 179.28 
L 179.525446 12.651429 
L 175.999451 12.651429 
z
" clip-path="url(#pb84d349b40)" style="fill: #0000ff; opacity: 0.6"/>
   </g>
   <g id="patch_28">
    <path d="M 179.525446 179.28 
L 182.989579 179.28 
L 182.989579 29.640603 
L 179.525446 29.640603 
z
" clip-path="url(#pb84d349b40)" style="fill: #0000ff; opacity: 0.6"/>
   </g>
   <g id="patch_29">
    <path d="M 182.989579 179.28 
L 186.393982 179.28 
L 186.393982 27.804154 
L 182.989579 27.804154 
z
" clip-path="url(#pb84d349b40)" style="fill: #0000ff; opacity: 0.6"/>
   </g>
   <g id="patch_30">
    <path d="M 186.393982 179.28 
L 189.74068 179.28 
L 189.74068 35.023485 
L 186.393982 35.023485 
z
" clip-path="url(#pb84d349b40)" style="fill: #0000ff; opacity: 0.6"/>
   </g>
   <g id="patch_31">
    <path d="M 189.74068 179.28 
L 193.031598 179.28 
L 193.031598 37.883271 
L 189.74068 37.883271 
z
" clip-path="url(#pb84d349b40)" style="fill: #0000ff; opacity: 0.6"/>
   </g>
   <g id="patch_32">
    <path d="M 193.031598 179.28 
L 196.268564 179.28 
L 196.268564 46.935554 
L 193.031598 46.935554 
z
" clip-path="url(#pb84d349b40)" style="fill: #0000ff; opacity: 0.6"/>
   </g>
   <g id="patch_33">
    <path d="M 196.268564 179.28 
L 199.453318 179.28 
L 199.453318 48.982621 
L 196.268564 48.982621 
z
" clip-path="url(#pb84d349b40)" style="fill: #0000ff; opacity: 0.6"/>
   </g>
   <g id="patch_34">
    <path d="M 199.453318 179.28 
L 202.587519 179.28 
L 202.587519 61.020663 
L 199.453318 61.020663 
z
" clip-path="url(#pb84d349b40)" style="fill: #0000ff; opacity: 0.6"/>
   </g>
   <g id="patch_35">
    <path d="M 202.587519 179.28 
L 205.672745 179.28 
L 205.672745 67.413722 
L 202.587519 67.413722 
z
" clip-path="url(#pb84d349b40)" style="fill: #0000ff; opacity: 0.6"/>
   </g>
   <g id="patch_36">
    <path d="M 205.672745 179.28 
L 208.710505 179.28 
L 208.710505 83.348894 
L 205.672745 83.348894 
z
" clip-path="url(#pb84d349b40)" style="fill: #0000ff; opacity: 0.6"/>
   </g>
   <g id="patch_37">
    <path d="M 208.710505 179.28 
L 211.702236 179.28 
L 211.702236 91.075019 
L 208.710505 91.075019 
z
" clip-path="url(#pb84d349b40)" style="fill: #0000ff; opacity: 0.6"/>
   </g>
   <g id="patch_38">
    <path d="M 211.702236 179.28 
L 214.649313 179.28 
L 214.649313 87.460121 
L 211.702236 87.460121 
z
" clip-path="url(#pb84d349b40)" style="fill: #0000ff; opacity: 0.6"/>
   </g>
   <g id="patch_39">
    <path d="M 214.649313 179.28 
L 217.553049 179.28 
L 217.553049 101.12033 
L 214.649313 101.12033 
z
" clip-path="url(#pb84d349b40)" style="fill: #0000ff; opacity: 0.6"/>
   </g>
   <g id="patch_40">
    <path d="M 217.553049 179.28 
L 220.4147 179.28 
L 220.4147 110.060503 
L 217.553049 110.060503 
z
" clip-path="url(#pb84d349b40)" style="fill: #0000ff; opacity: 0.6"/>
   </g>
   <g id="patch_41">
    <path d="M 220.4147 179.28 
L 223.23547 179.28 
L 223.23547 117.150753 
L 220.4147 117.150753 
z
" clip-path="url(#pb84d349b40)" style="fill: #0000ff; opacity: 0.6"/>
   </g>
   <g id="patch_42">
    <path d="M 223.23547 179.28 
L 226.016508 179.28 
L 226.016508 123.989364 
L 223.23547 123.989364 
z
" clip-path="url(#pb84d349b40)" style="fill: #0000ff; opacity: 0.6"/>
   </g>
   <g id="patch_43">
    <path d="M 226.016508 179.28 
L 228.75892 179.28 
L 228.75892 130.555934 
L 226.016508 130.555934 
z
" clip-path="url(#pb84d349b40)" style="fill: #0000ff; opacity: 0.6"/>
   </g>
   <g id="patch_44">
    <path d="M 228.75892 179.28 
L 231.463764 179.28 
L 231.463764 136.830057 
L 228.75892 136.830057 
z
" clip-path="url(#pb84d349b40)" style="fill: #0000ff; opacity: 0.6"/>
   </g>
   <g id="patch_45">
    <path d="M 231.463764 179.28 
L 234.132054 179.28 
L 234.132054 138.261701 
L 231.463764 138.261701 
z
" clip-path="url(#pb84d349b40)" style="fill: #0000ff; opacity: 0.6"/>
   </g>
   <g id="patch_46">
    <path d="M 234.132054 179.28 
L 236.764766 179.28 
L 236.764766 143.318411 
L 234.132054 143.318411 
z
" clip-path="url(#pb84d349b40)" style="fill: #0000ff; opacity: 0.6"/>
   </g>
   <g id="patch_47">
    <path d="M 236.764766 179.28 
L 239.362837 179.28 
L 239.362837 148.7832 
L 236.764766 148.7832 
z
" clip-path="url(#pb84d349b40)" style="fill: #0000ff; opacity: 0.6"/>
   </g>
   <g id="patch_48">
    <path d="M 239.362837 179.28 
L 241.927165 179.28 
L 241.927165 149.691156 
L 239.362837 149.691156 
z
" clip-path="url(#pb84d349b40)" style="fill: #0000ff; opacity: 0.6"/>
   </g>
   <g id="patch_49">
    <path d="M 241.927165 179.28 
L 244.458616 179.28 
L 244.458616 159.121084 
L 241.927165 159.121084 
z
" clip-path="url(#pb84d349b40)" style="fill: #0000ff; opacity: 0.6"/>
   </g>
   <g id="patch_50">
    <path d="M 244.458616 179.28 
L 246.958023 179.28 
L 246.958023 153.489637 
L 244.458616 153.489637 
z
" clip-path="url(#pb84d349b40)" style="fill: #0000ff; opacity: 0.6"/>
   </g>
   <g id="patch_51">
    <path d="M 246.958023 179.28 
L 249.426186 179.28 
L 249.426186 157.788024 
L 246.958023 157.788024 
z
" clip-path="url(#pb84d349b40)" style="fill: #0000ff; opacity: 0.6"/>
   </g>
   <g id="patch_52">
    <path d="M 249.426186 179.28 
L 251.863877 179.28 
L 251.863877 160.273877 
L 249.426186 160.273877 
z
" clip-path="url(#pb84d349b40)" style="fill: #0000ff; opacity: 0.6"/>
   </g>
   <g id="patch_53">
    <path d="M 251.863877 179.28 
L 254.27184 179.28 
L 254.27184 159.481524 
L 251.863877 159.481524 
z
" clip-path="url(#pb84d349b40)" style="fill: #0000ff; opacity: 0.6"/>
   </g>
   <g id="patch_54">
    <path d="M 254.27184 179.28 
L 256.65079 179.28 
L 256.65079 166.296386 
L 254.27184 166.296386 
z
" clip-path="url(#pb84d349b40)" style="fill: #0000ff; opacity: 0.6"/>
   </g>
   <g id="patch_55">
    <path d="M 256.65079 179.28 
L 259.001419 179.28 
L 259.001419 162.997768 
L 256.65079 162.997768 
z
" clip-path="url(#pb84d349b40)" style="fill: #0000ff; opacity: 0.6"/>
   </g>
   <g id="patch_56">
    <path d="M 259.001419 179.28 
L 261.324393 179.28 
L 261.324393 170.608383 
L 259.001419 170.608383 
z
" clip-path="url(#pb84d349b40)" style="fill: #0000ff; opacity: 0.6"/>
   </g>
   <g id="patch_57">
    <path d="M 261.324393 179.28 
L 263.620354 179.28 
L 263.620354 169.336543 
L 261.324393 169.336543 
z
" clip-path="url(#pb84d349b40)" style="fill: #0000ff; opacity: 0.6"/>
   </g>
   <g id="patch_58">
    <path d="M 263.620354 179.28 
L 265.889925 179.28 
L 265.889925 169.516774 
L 263.620354 169.516774 
z
" clip-path="url(#pb84d349b40)" style="fill: #0000ff; opacity: 0.6"/>
   </g>
   <g id="patch_59">
    <path d="M 265.889925 179.28 
L 268.133705 179.28 
L 268.133705 170.900831 
L 265.889925 170.900831 
z
" clip-path="url(#pb84d349b40)" style="fill: #0000ff; opacity: 0.6"/>
   </g>
   <g id="patch_60">
    <path d="M 268.133705 179.28 
L 270.352273 179.28 
L 270.352273 169.292327 
L 268.133705 169.292327 
z
" clip-path="url(#pb84d349b40)" style="fill: #0000ff; opacity: 0.6"/>
   </g>
   <g id="patch_61">
    <path d="M 270.352273 179.28 
L 272.54619 179.28 
L 272.54619 170.710391 
L 270.352273 170.710391 
z
" clip-path="url(#pb84d349b40)" style="fill: #0000ff; opacity: 0.6"/>
   </g>
   <g id="patch_62">
    <path d="M 272.54619 179.28 
L 274.715997 179.28 
L 274.715997 171.853004 
L 272.54619 171.853004 
z
" clip-path="url(#pb84d349b40)" style="fill: #0000ff; opacity: 0.6"/>
   </g>
   <g id="patch_63">
    <path d="M 274.715997 179.28 
L 276.862219 179.28 
L 276.862219 172.709964 
L 274.715997 172.709964 
z
" clip-path="url(#pb84d349b40)" style="fill: #0000ff; opacity: 0.6"/>
   </g>
   <g id="patch_64">
    <path d="M 276.862219 179.28 
L 278.985363 179.28 
L 278.985363 173.271068 
L 276.862219 173.271068 
z
" clip-path="url(#pb84d349b40)" style="fill: #0000ff; opacity: 0.6"/>
   </g>
   <g id="patch_65">
    <path d="M 278.985363 179.28 
L 281.08592 179.28 
L 281.08592 174.485096 
L 278.985363 174.485096 
z
" clip-path="url(#pb84d349b40)" style="fill: #0000ff; opacity: 0.6"/>
   </g>
   <g id="patch_66">
    <path d="M 281.08592 179.28 
L 283.164366 179.28 
L 283.164366 174.111024 
L 281.08592 174.111024 
z
" clip-path="url(#pb84d349b40)" style="fill: #0000ff; opacity: 0.6"/>
   </g>
   <g id="patch_67">
    <path d="M 283.164366 179.28 
L 285.22116 179.28 
L 285.22116 175.36246 
L 283.164366 175.36246 
z
" clip-path="url(#pb84d349b40)" style="fill: #0000ff; opacity: 0.6"/>
   </g>
   <g id="patch_68">
    <path d="M 285.22116 179.28 
L 287.25675 179.28 
L 287.25675 173.672339 
L 285.22116 173.672339 
z
" clip-path="url(#pb84d349b40)" style="fill: #0000ff; opacity: 0.6"/>
   </g>
   <g id="patch_69">
    <path d="M 287.25675 179.28 
L 289.271568 179.28 
L 289.271568 173.94779 
L 287.25675 173.94779 
z
" clip-path="url(#pb84d349b40)" style="fill: #0000ff; opacity: 0.6"/>
   </g>
   <g id="patch_70">
    <path d="M 289.271568 179.28 
L 291.266035 179.28 
L 291.266035 175.240034 
L 289.271568 175.240034 
z
" clip-path="url(#pb84d349b40)" style="fill: #0000ff; opacity: 0.6"/>
   </g>
   <g id="patch_71">
    <path d="M 291.266035 179.28 
L 293.240556 179.28 
L 293.240556 176.559484 
L 291.266035 176.559484 
z
" clip-path="url(#pb84d349b40)" style="fill: #0000ff; opacity: 0.6"/>
   </g>
   <g id="patch_72">
    <path d="M 293.240556 179.28 
L 295.195527 179.28 
L 295.195527 177.906139 
L 293.240556 177.906139 
z
" clip-path="url(#pb84d349b40)" style="fill: #0000ff; opacity: 0.6"/>
   </g>
   <g id="patch_73">
    <path d="M 295.195527 179.28 
L 297.131332 179.28 
L 297.131332 175.811341 
L 295.195527 175.811341 
z
" clip-path="url(#pb84d349b40)" style="fill: #0000ff; opacity: 0.6"/>
   </g>
   <g id="patch_74">
    <path d="M 297.131332 179.28 
L 299.048342 179.28 
L 299.048342 177.528667 
L 297.131332 177.528667 
z
" clip-path="url(#pb84d349b40)" style="fill: #0000ff; opacity: 0.6"/>
   </g>
   <g id="patch_75">
    <path d="M 299.048342 179.28 
L 300.946919 179.28 
L 300.946919 177.157996 
L 299.048342 177.157996 
z
" clip-path="url(#pb84d349b40)" style="fill: #0000ff; opacity: 0.6"/>
   </g>
   <g id="patch_76">
    <path d="M 300.946919 179.28 
L 302.827414 179.28 
L 302.827414 176.780524 
L 300.946919 176.780524 
z
" clip-path="url(#pb84d349b40)" style="fill: #0000ff; opacity: 0.6"/>
   </g>
   <g id="patch_77">
    <path d="M 302.827414 179.28 
L 304.690168 179.28 
L 304.690168 177.117188 
L 302.827414 177.117188 
z
" clip-path="url(#pb84d349b40)" style="fill: #0000ff; opacity: 0.6"/>
   </g>
   <g id="patch_78">
    <path d="M 304.690168 179.28 
L 306.535513 179.28 
L 306.535513 178.188392 
L 304.690168 178.188392 
z
" clip-path="url(#pb84d349b40)" style="fill: #0000ff; opacity: 0.6"/>
   </g>
   <g id="patch_79">
    <path d="M 306.535513 179.28 
L 308.363772 179.28 
L 308.363772 177.81092 
L 306.535513 177.81092 
z
" clip-path="url(#pb84d349b40)" style="fill: #0000ff; opacity: 0.6"/>
   </g>
   <g id="patch_80">
    <path d="M 308.363772 179.28 
L 310.175257 179.28 
L 310.175257 177.055975 
L 308.363772 177.055975 
z
" clip-path="url(#pb84d349b40)" style="fill: #0000ff; opacity: 0.6"/>
   </g>
   <g id="patch_81">
    <path d="M 310.175257 179.28 
L 311.970274 179.28 
L 311.970274 177.035571 
L 310.175257 177.035571 
z
" clip-path="url(#pb84d349b40)" style="fill: #0000ff; opacity: 0.6"/>
   </g>
   <g id="patch_82">
    <path d="M 311.970274 179.28 
L 313.749119 179.28 
L 313.749119 177.770111 
L 311.970274 177.770111 
z
" clip-path="url(#pb84d349b40)" style="fill: #0000ff; opacity: 0.6"/>
   </g>
   <g id="patch_83">
    <path d="M 313.749119 179.28 
L 315.512081 179.28 
L 315.512081 178.518254 
L 313.749119 178.518254 
z
" clip-path="url(#pb84d349b40)" style="fill: #0000ff; opacity: 0.6"/>
   </g>
   <g id="patch_84">
    <path d="M 315.512081 179.28 
L 318.991475 179.28 
L 318.991475 179.087017 
L 315.512081 179.087017 
z
" clip-path="url(#pb84d349b40)" style="fill: #0000ff; opacity: 0.6"/>
   </g>
   <g id="patch_85">
    <path d="M 318.991475 179.28 
L 320.708447 179.28 
L 320.708447 178.888925 
L 318.991475 178.888925 
z
" clip-path="url(#pb84d349b40)" style="fill: #0000ff; opacity: 0.6"/>
   </g>
   <g id="patch_86">
    <path d="M 320.708447 179.28 
L 322.410617 179.28 
L 322.410617 178.885524 
L 320.708447 178.885524 
z
" clip-path="url(#pb84d349b40)" style="fill: #0000ff; opacity: 0.6"/>
   </g>
   <g id="patch_87">
    <path d="M 322.410617 179.28 
L 324.098238 179.28 
L 324.098238 178.882124 
L 322.410617 178.882124 
z
" clip-path="url(#pb84d349b40)" style="fill: #0000ff; opacity: 0.6"/>
   </g>
   <g id="patch_88">
    <path d="M 324.098238 179.28 
L 327.430815 179.28 
L 327.430815 178.87703 
L 324.098238 178.87703 
z
" clip-path="url(#pb84d349b40)" style="fill: #0000ff; opacity: 0.6"/>
   </g>
   <g id="patch_89">
    <path d="M 327.430815 179.28 
L 329.076245 179.28 
L 329.076245 178.871922 
L 327.430815 178.871922 
z
" clip-path="url(#pb84d349b40)" style="fill: #0000ff; opacity: 0.6"/>
   </g>
   <g id="patch_90">
    <path d="M 329.076245 179.28 
L 330.708076 179.28 
L 330.708076 178.868521 
L 329.076245 178.868521 
z
" clip-path="url(#pb84d349b40)" style="fill: #0000ff; opacity: 0.6"/>
   </g>
   <g id="patch_91">
    <path d="M 330.708076 179.28 
L 332.326532 179.28 
L 332.326532 178.03536 
L 330.708076 178.03536 
z
" clip-path="url(#pb84d349b40)" style="fill: #0000ff; opacity: 0.6"/>
   </g>
   <g id="matplotlib.axis_1">
    <g id="xtick_1">
     <g id="line2d_1">
      <path d="M 42.12 179.28 
L 42.12 4.32 
" clip-path="url(#pb84d349b40)" style="fill: none; stroke: #b0b0b0; stroke-width: 0.8; stroke-linecap: square"/>
     </g>
     <g id="line2d_2">
      <defs>
       <path id="m4961fc8bdf" d="M 0 0 
L 0 3.5 
" style="stroke: #000000; stroke-width: 0.8"/>
      </defs>
      <g>
       <use xlink:href="#m4961fc8bdf" x="42.12" y="179.28" style="stroke: #000000; stroke-width: 0.8"/>
      </g>
     </g>
     <g id="text_1">
      <!-- −4 -->
      <g transform="translate(34.748906 193.878437) scale(0.1 -0.1)">
       <defs>
        <path id="DejaVuSans-2212" d="M 678 2272 
L 4684 2272 
L 4684 1741 
L 678 1741 
L 678 2272 
z
" transform="scale(0.015625)"/>
        <path id="DejaVuSans-34" d="M 2419 4116 
L 825 1625 
L 2419 1625 
L 2419 4116 
z
M 2253 4666 
L 3047 4666 
L 3047 1625 
L 3713 1625 
L 3713 1100 
L 3047 1100 
L 3047 0 
L 2419 0 
L 2419 1100 
L 313 1100 
L 313 1709 
L 2253 4666 
z
" transform="scale(0.015625)"/>
       </defs>
       <use xlink:href="#DejaVuSans-2212"/>
       <use xlink:href="#DejaVuSans-34" x="83.789062"/>
      </g>
     </g>
    </g>
    <g id="xtick_2">
     <g id="line2d_3">
      <path d="M 76.545 179.28 
L 76.545 4.32 
" clip-path="url(#pb84d349b40)" style="fill: none; stroke: #b0b0b0; stroke-width: 0.8; stroke-linecap: square"/>
     </g>
     <g id="line2d_4">
      <g>
       <use xlink:href="#m4961fc8bdf" x="76.545" y="179.28" style="stroke: #000000; stroke-width: 0.8"/>
      </g>
     </g>
     <g id="text_2">
      <!-- −3 -->
      <g transform="translate(69.173906 193.878437) scale(0.1 -0.1)">
       <defs>
        <path id="DejaVuSans-33" d="M 2597 2516 
Q 3050 2419 3304 2112 
Q 3559 1806 3559 1356 
Q 3559 666 3084 287 
Q 2609 -91 1734 -91 
Q 1441 -91 1130 -33 
Q 819 25 488 141 
L 488 750 
Q 750 597 1062 519 
Q 1375 441 1716 441 
Q 2309 441 2620 675 
Q 2931 909 2931 1356 
Q 2931 1769 2642 2001 
Q 2353 2234 1838 2234 
L 1294 2234 
L 1294 2753 
L 1863 2753 
Q 2328 2753 2575 2939 
Q 2822 3125 2822 3475 
Q 2822 3834 2567 4026 
Q 2313 4219 1838 4219 
Q 1578 4219 1281 4162 
Q 984 4106 628 3988 
L 628 4550 
Q 988 4650 1302 4700 
Q 1616 4750 1894 4750 
Q 2613 4750 3031 4423 
Q 3450 4097 3450 3541 
Q 3450 3153 3228 2886 
Q 3006 2619 2597 2516 
z
" transform="scale(0.015625)"/>
       </defs>
       <use xlink:href="#DejaVuSans-2212"/>
       <use xlink:href="#DejaVuSans-33" x="83.789062"/>
      </g>
     </g>
    </g>
    <g id="xtick_3">
     <g id="line2d_5">
      <path d="M 110.97 179.28 
L 110.97 4.32 
" clip-path="url(#pb84d349b40)" style="fill: none; stroke: #b0b0b0; stroke-width: 0.8; stroke-linecap: square"/>
     </g>
     <g id="line2d_6">
      <g>
       <use xlink:href="#m4961fc8bdf" x="110.97" y="179.28" style="stroke: #000000; stroke-width: 0.8"/>
      </g>
     </g>
     <g id="text_3">
      <!-- −2 -->
      <g transform="translate(103.598906 193.878437) scale(0.1 -0.1)">
       <defs>
        <path id="DejaVuSans-32" d="M 1228 531 
L 3431 531 
L 3431 0 
L 469 0 
L 469 531 
Q 828 903 1448 1529 
Q 2069 2156 2228 2338 
Q 2531 2678 2651 2914 
Q 2772 3150 2772 3378 
Q 2772 3750 2511 3984 
Q 2250 4219 1831 4219 
Q 1534 4219 1204 4116 
Q 875 4013 500 3803 
L 500 4441 
Q 881 4594 1212 4672 
Q 1544 4750 1819 4750 
Q 2544 4750 2975 4387 
Q 3406 4025 3406 3419 
Q 3406 3131 3298 2873 
Q 3191 2616 2906 2266 
Q 2828 2175 2409 1742 
Q 1991 1309 1228 531 
z
" transform="scale(0.015625)"/>
       </defs>
       <use xlink:href="#DejaVuSans-2212"/>
       <use xlink:href="#DejaVuSans-32" x="83.789062"/>
      </g>
     </g>
    </g>
    <g id="xtick_4">
     <g id="line2d_7">
      <path d="M 145.395 179.28 
L 145.395 4.32 
" clip-path="url(#pb84d349b40)" style="fill: none; stroke: #b0b0b0; stroke-width: 0.8; stroke-linecap: square"/>
     </g>
     <g id="line2d_8">
      <g>
       <use xlink:href="#m4961fc8bdf" x="145.395" y="179.28" style="stroke: #000000; stroke-width: 0.8"/>
      </g>
     </g>
     <g id="text_4">
      <!-- −1 -->
      <g transform="translate(138.023906 193.878437) scale(0.1 -0.1)">
       <defs>
        <path id="DejaVuSans-31" d="M 794 531 
L 1825 531 
L 1825 4091 
L 703 3866 
L 703 4441 
L 1819 4666 
L 2450 4666 
L 2450 531 
L 3481 531 
L 3481 0 
L 794 0 
L 794 531 
z
" transform="scale(0.015625)"/>
       </defs>
       <use xlink:href="#DejaVuSans-2212"/>
       <use xlink:href="#DejaVuSans-31" x="83.789062"/>
      </g>
     </g>
    </g>
    <g id="xtick_5">
     <g id="line2d_9">
      <path d="M 179.82 179.28 
L 179.82 4.32 
" clip-path="url(#pb84d349b40)" style="fill: none; stroke: #b0b0b0; stroke-width: 0.8; stroke-linecap: square"/>
     </g>
     <g id="line2d_10">
      <g>
       <use xlink:href="#m4961fc8bdf" x="179.82" y="179.28" style="stroke: #000000; stroke-width: 0.8"/>
      </g>
     </g>
     <g id="text_5">
      <!-- 0 -->
      <g transform="translate(176.63875 193.878437) scale(0.1 -0.1)">
       <defs>
        <path id="DejaVuSans-30" d="M 2034 4250 
Q 1547 4250 1301 3770 
Q 1056 3291 1056 2328 
Q 1056 1369 1301 889 
Q 1547 409 2034 409 
Q 2525 409 2770 889 
Q 3016 1369 3016 2328 
Q 3016 3291 2770 3770 
Q 2525 4250 2034 4250 
z
M 2034 4750 
Q 2819 4750 3233 4129 
Q 3647 3509 3647 2328 
Q 3647 1150 3233 529 
Q 2819 -91 2034 -91 
Q 1250 -91 836 529 
Q 422 1150 422 2328 
Q 422 3509 836 4129 
Q 1250 4750 2034 4750 
z
" transform="scale(0.015625)"/>
       </defs>
       <use xlink:href="#DejaVuSans-30"/>
      </g>
     </g>
    </g>
    <g id="xtick_6">
     <g id="line2d_11">
      <path d="M 214.245 179.28 
L 214.245 4.32 
" clip-path="url(#pb84d349b40)" style="fill: none; stroke: #b0b0b0; stroke-width: 0.8; stroke-linecap: square"/>
     </g>
     <g id="line2d_12">
      <g>
       <use xlink:href="#m4961fc8bdf" x="214.245" y="179.28" style="stroke: #000000; stroke-width: 0.8"/>
      </g>
     </g>
     <g id="text_6">
      <!-- 1 -->
      <g transform="translate(211.06375 193.878437) scale(0.1 -0.1)">
       <use xlink:href="#DejaVuSans-31"/>
      </g>
     </g>
    </g>
    <g id="xtick_7">
     <g id="line2d_13">
      <path d="M 248.67 179.28 
L 248.67 4.32 
" clip-path="url(#pb84d349b40)" style="fill: none; stroke: #b0b0b0; stroke-width: 0.8; stroke-linecap: square"/>
     </g>
     <g id="line2d_14">
      <g>
       <use xlink:href="#m4961fc8bdf" x="248.67" y="179.28" style="stroke: #000000; stroke-width: 0.8"/>
      </g>
     </g>
     <g id="text_7">
      <!-- 2 -->
      <g transform="translate(245.48875 193.878437) scale(0.1 -0.1)">
       <use xlink:href="#DejaVuSans-32"/>
      </g>
     </g>
    </g>
    <g id="xtick_8">
     <g id="line2d_15">
      <path d="M 283.095 179.28 
L 283.095 4.32 
" clip-path="url(#pb84d349b40)" style="fill: none; stroke: #b0b0b0; stroke-width: 0.8; stroke-linecap: square"/>
     </g>
     <g id="line2d_16">
      <g>
       <use xlink:href="#m4961fc8bdf" x="283.095" y="179.28" style="stroke: #000000; stroke-width: 0.8"/>
      </g>
     </g>
     <g id="text_8">
      <!-- 3 -->
      <g transform="translate(279.91375 193.878437) scale(0.1 -0.1)">
       <use xlink:href="#DejaVuSans-33"/>
      </g>
     </g>
    </g>
    <g id="xtick_9">
     <g id="line2d_17">
      <path d="M 317.52 179.28 
L 317.52 4.32 
" clip-path="url(#pb84d349b40)" style="fill: none; stroke: #b0b0b0; stroke-width: 0.8; stroke-linecap: square"/>
     </g>
     <g id="line2d_18">
      <g>
       <use xlink:href="#m4961fc8bdf" x="317.52" y="179.28" style="stroke: #000000; stroke-width: 0.8"/>
      </g>
     </g>
     <g id="text_9">
      <!-- 4 -->
      <g transform="translate(314.33875 193.878437) scale(0.1 -0.1)">
       <use xlink:href="#DejaVuSans-34"/>
      </g>
     </g>
    </g>
    <g id="text_10">
     <!-- 男女17歳の標準化されたlog[体重] ($e^\mu$=56.58kg, $e^\sigma$=1.190) -->
     <g transform="translate(39.82 208.458125) scale(0.1 -0.1)">
      <defs>
       <path id="HiraKakuProN-W4-7537" d="M 5114 1402 
C 5043 736 4986 410 4909 256 
C 4851 134 4762 102 4454 102 
C 4154 102 3872 128 3450 192 
C 3526 -6 3558 -134 3584 -314 
C 3994 -352 4173 -358 4410 -358 
C 4966 -358 5171 -294 5312 -83 
C 5440 115 5536 608 5632 1530 
C 5651 1741 5651 1741 5664 1850 
C 5414 1830 5242 1824 5005 1824 
L 3290 1824 
C 3309 1914 3322 1952 3334 2029 
C 3373 2202 3379 2227 3405 2323 
L 2861 2342 
L 2861 2285 
C 2861 2163 2835 2010 2790 1824 
L 1286 1824 
C 986 1824 755 1837 570 1862 
L 570 1363 
C 781 1389 973 1402 1286 1402 
L 2643 1402 
C 2490 1062 2298 832 1990 614 
C 1555 307 1114 134 307 -32 
C 467 -218 531 -320 602 -486 
C 1434 -269 1920 -45 2362 314 
C 2726 608 2963 941 3142 1402 
L 5114 1402 
z
M 5440 4467 
C 5440 4762 5446 4928 5466 5101 
C 5280 5075 5114 5069 4845 5069 
L 1574 5069 
C 1312 5069 1139 5075 954 5101 
C 973 4928 986 4762 986 4467 
L 986 3053 
C 986 2778 973 2624 954 2445 
C 1133 2464 1357 2477 1594 2477 
L 4864 2477 
C 5088 2477 5286 2464 5466 2451 
C 5446 2650 5440 2778 5440 3053 
L 5440 4467 
z
M 2944 4659 
L 2944 3962 
L 1453 3962 
L 1453 4659 
L 2944 4659 
z
M 3405 3962 
L 3405 4659 
L 4973 4659 
L 4973 3962 
L 3405 3962 
z
M 2944 3565 
L 2944 2880 
L 1453 2880 
L 1453 3565 
L 2944 3565 
z
M 3405 2880 
L 3405 3565 
L 4973 3565 
L 4973 2880 
L 3405 2880 
z
" transform="scale(0.015625)"/>
       <path id="HiraKakuProN-W4-5973" d="M 5862 -19 
C 5171 454 4589 806 3878 1171 
C 4160 1504 4371 1830 4544 2214 
C 4710 2573 4787 2829 4928 3424 
L 5402 3424 
C 5677 3424 5888 3411 6080 3386 
L 6080 3942 
C 5875 3910 5670 3898 5389 3898 
L 2790 3898 
C 2848 4038 2944 4282 2989 4429 
C 3187 5005 3187 5005 3277 5216 
L 2688 5318 
C 2630 4960 2490 4512 2246 3898 
L 1043 3898 
C 774 3898 538 3910 352 3942 
L 352 3386 
C 538 3411 755 3424 1043 3424 
L 2035 3424 
C 1722 2746 1318 2118 864 1581 
C 1088 1491 1216 1427 1357 1338 
C 1478 1498 1504 1536 1606 1677 
C 2342 1395 2534 1312 3072 1050 
C 2400 506 1651 230 352 58 
C 493 -134 525 -192 621 -429 
C 1670 -211 1869 -154 2355 64 
C 2810 269 3168 499 3526 819 
C 4250 429 4870 26 5498 -467 
L 5862 -19 
z
M 4397 3424 
C 4288 2931 4211 2682 4058 2355 
C 3891 1997 3686 1683 3437 1402 
C 2912 1658 2547 1811 1869 2074 
C 2138 2502 2355 2906 2592 3424 
L 4397 3424 
z
" transform="scale(0.015625)"/>
       <path id="HiraKakuProN-W4-31" d="M 1018 4371 
C 1222 4397 1389 4410 1606 4410 
L 1939 4410 
L 1939 755 
C 1939 454 1926 237 1888 0 
L 2598 0 
C 2560 250 2547 448 2547 755 
L 2547 3904 
C 2547 4256 2566 4582 2605 4966 
C 2387 4941 2278 4934 2035 4934 
L 1581 4934 
C 1325 4934 1197 4941 1018 4966 
L 1018 4371 
z
" transform="scale(0.015625)"/>
       <path id="HiraKakuProN-W4-37" d="M 3898 4966 
C 3661 4941 3526 4934 3117 4934 
L 1165 4934 
C 838 4934 646 4947 390 4979 
L 390 4346 
C 634 4378 819 4390 1146 4390 
L 3200 4390 
C 2643 3635 2368 3187 2054 2541 
C 1664 1741 1491 1171 1280 0 
L 2003 0 
C 2099 685 2163 992 2317 1491 
C 2554 2291 2829 2861 3373 3718 
C 3642 4141 3763 4301 3898 4422 
L 3898 4966 
z
" transform="scale(0.015625)"/>
       <path id="HiraKakuProN-W4-6b73" d="M 5389 3693 
C 5658 3693 5850 3680 6022 3661 
L 6022 4160 
C 5837 4128 5677 4122 5402 4122 
L 3539 4122 
L 3539 4531 
L 4979 4531 
C 5235 4531 5389 4525 5542 4499 
L 5542 4954 
C 5357 4928 5229 4922 4979 4922 
L 3539 4922 
C 3546 5114 3552 5210 3571 5350 
L 3034 5350 
C 3059 5184 3072 5037 3072 4826 
L 3072 4122 
L 2042 4122 
L 2042 4563 
C 2042 4781 2048 4922 2080 5088 
L 1542 5088 
C 1562 4922 1574 4774 1574 4563 
L 1574 4122 
L 1082 4122 
C 794 4122 634 4128 448 4160 
L 448 3654 
C 634 3686 794 3693 1069 3693 
L 3910 3693 
C 3923 3366 3923 3366 3930 3245 
L 1382 3245 
C 1152 3245 998 3251 768 3277 
C 787 3072 794 2925 794 2618 
C 794 1229 640 518 198 -102 
C 365 -230 461 -320 576 -461 
C 1050 256 1229 1005 1242 2406 
L 1248 2835 
L 3955 2835 
C 4019 2074 4141 1498 4365 915 
C 3987 454 3584 134 3008 -166 
C 3130 -288 3232 -403 3315 -531 
C 3808 -243 4173 64 4563 493 
C 4896 -122 5248 -467 5549 -467 
C 5875 -467 6029 -173 6150 691 
C 5990 762 5888 838 5754 986 
C 5709 448 5606 32 5523 32 
C 5453 32 5306 166 5171 358 
C 5062 518 4986 653 4870 890 
C 5171 1318 5382 1702 5581 2214 
C 5626 2336 5645 2381 5683 2458 
L 5222 2650 
C 5158 2272 4954 1786 4685 1357 
C 4544 1792 4461 2214 4410 2835 
L 5344 2835 
C 5600 2835 5760 2829 5933 2803 
L 5933 3270 
C 5773 3251 5696 3251 5478 3245 
C 5363 3424 5293 3526 5178 3661 
L 4845 3501 
C 4928 3392 4947 3366 5024 3245 
L 4384 3245 
C 4378 3341 4378 3341 4371 3693 
L 5389 3693 
z
M 2490 1997 
L 2490 365 
C 2490 269 2451 237 2317 237 
C 2189 237 2029 256 1875 288 
C 1926 134 1952 26 1965 -160 
C 2234 -173 2278 -173 2387 -173 
C 2803 -173 2925 -58 2925 326 
L 2925 1997 
L 3354 1997 
C 3571 1997 3674 1990 3802 1971 
L 3802 2413 
C 3648 2394 3533 2387 3341 2387 
L 1965 2387 
C 1734 2387 1619 2394 1485 2413 
L 1485 1971 
C 1632 1990 1754 1997 1965 1997 
L 2490 1997 
z
M 1747 1683 
C 1626 1056 1478 710 1158 294 
C 1306 218 1434 141 1536 64 
C 1850 544 1990 877 2138 1536 
L 1747 1683 
z
M 3149 1542 
C 3328 1178 3398 998 3533 563 
L 3910 730 
C 3802 1050 3693 1312 3501 1683 
L 3149 1542 
z
" transform="scale(0.015625)"/>
       <path id="HiraKakuProN-W4-306e" d="M 3053 422 
C 3200 243 3245 160 3328 -96 
C 3821 6 4090 90 4397 237 
C 5293 666 5798 1459 5798 2451 
C 5798 3802 4832 4698 3379 4698 
C 2509 4698 1792 4403 1274 3834 
C 832 3347 589 2707 589 2042 
C 589 1107 1062 422 1709 422 
C 2189 422 2573 806 2938 1645 
C 3238 2323 3469 3264 3578 4205 
C 3891 4186 4070 4141 4294 4032 
C 4902 3738 5242 3174 5242 2477 
C 5242 1734 4870 1107 4230 768 
C 3917 602 3610 512 3053 422 
z
M 3027 4192 
C 2944 3398 2714 2483 2458 1888 
C 2195 1286 1952 992 1702 992 
C 1370 992 1114 1453 1114 2035 
C 1114 2797 1491 3501 2112 3891 
C 2394 4077 2656 4160 3027 4192 
z
" transform="scale(0.015625)"/>
       <path id="HiraKakuProN-W4-6a19" d="M 4755 4230 
L 4755 4672 
L 5402 4672 
C 5690 4672 5914 4659 6074 4640 
L 6074 5120 
C 5888 5094 5664 5082 5376 5082 
L 2739 5082 
C 2458 5082 2246 5094 2061 5120 
L 2061 4634 
C 2227 4659 2458 4672 2746 4672 
L 3322 4672 
L 3322 4230 
L 2829 4230 
C 2566 4230 2394 4237 2246 4262 
C 2266 4134 2272 3994 2272 3808 
L 2272 3283 
C 2272 3085 2266 2957 2246 2810 
C 2426 2829 2592 2835 2848 2835 
L 5267 2835 
C 5530 2835 5683 2829 5862 2810 
C 5843 2957 5837 3078 5837 3309 
L 5837 3814 
C 5837 4032 5843 4134 5862 4262 
C 5696 4237 5510 4230 5274 4230 
L 4755 4230 
z
M 4352 4230 
L 3725 4230 
L 3725 4672 
L 4352 4672 
L 4352 4230 
z
M 3322 3859 
L 3322 3206 
L 2675 3206 
L 2675 3859 
L 3322 3859 
z
M 3725 3859 
L 4352 3859 
L 4352 3206 
L 3725 3206 
L 3725 3859 
z
M 4755 3859 
L 5427 3859 
L 5427 3206 
L 4755 3206 
L 4755 3859 
z
M 1037 4122 
L 736 4122 
C 531 4122 403 4128 294 4147 
L 294 3674 
C 410 3693 544 3699 736 3699 
L 979 3699 
C 806 2848 512 2099 147 1574 
C 256 1440 326 1312 410 1114 
C 691 1549 902 2118 1088 2925 
C 1056 2464 1037 2112 1037 1882 
L 1037 243 
C 1037 -90 1024 -320 998 -512 
L 1530 -512 
C 1504 -333 1491 -96 1491 243 
L 1491 2118 
C 1491 2362 1485 2560 1472 3098 
C 1626 2694 1722 2502 1946 2144 
C 2035 2323 2080 2394 2182 2541 
C 1875 2906 1651 3283 1510 3699 
L 1664 3699 
C 1811 3699 1933 3693 2061 3680 
L 2061 4147 
C 1946 4128 1843 4122 1658 4122 
L 1491 4122 
L 1491 4704 
C 1491 5005 1498 5190 1523 5363 
L 998 5363 
C 1024 5222 1037 5056 1037 4698 
L 1037 4122 
z
M 4262 1235 
L 5472 1235 
C 5741 1235 5914 1229 6086 1203 
L 6086 1677 
C 5907 1651 5722 1645 5466 1645 
L 2675 1645 
C 2394 1645 2221 1658 2042 1683 
L 2042 1203 
C 2214 1229 2406 1235 2682 1235 
L 3802 1235 
L 3802 141 
C 3802 32 3770 13 3584 13 
C 3450 13 3283 32 3072 70 
C 3130 -102 3149 -230 3155 -397 
C 3386 -410 3488 -416 3603 -416 
C 3904 -416 4045 -390 4134 -326 
C 4224 -262 4262 -147 4262 32 
L 4262 1235 
z
M 2413 2022 
C 2586 2048 2752 2054 3027 2054 
L 5069 2054 
C 5350 2054 5485 2048 5664 2022 
L 5664 2490 
C 5472 2464 5299 2458 5037 2458 
L 3040 2458 
C 2771 2458 2592 2470 2413 2490 
L 2413 2022 
z
M 4723 845 
C 5088 339 5389 64 5882 -243 
C 5990 -90 6093 26 6208 128 
C 5882 307 5722 416 5485 627 
C 5318 768 5248 851 5088 1056 
L 4723 845 
z
M 2848 1082 
C 2688 800 2598 678 2406 486 
C 2214 294 2086 198 1798 38 
C 1990 -90 2042 -134 2170 -275 
C 2656 70 2906 346 3251 896 
L 2848 1082 
z
" transform="scale(0.015625)"/>
       <path id="HiraKakuProN-W4-6e96" d="M 4467 3802 
L 4467 4250 
L 5395 4250 
C 5619 4250 5792 4243 5965 4218 
L 5965 4678 
C 5786 4659 5574 4646 5344 4646 
L 4525 4646 
C 4659 4819 4717 4922 4896 5216 
L 4442 5357 
C 4339 5088 4243 4915 4051 4646 
L 3059 4646 
C 3117 4736 3117 4736 3245 4941 
C 3277 4986 3290 5011 3424 5248 
L 2950 5402 
C 2675 4710 2259 4166 1651 3686 
C 1798 3565 1882 3469 1958 3322 
C 2182 3526 2214 3565 2426 3834 
C 2400 3552 2400 3475 2400 3187 
L 2400 2195 
C 2400 1965 2394 1869 2374 1670 
C 2534 1690 2701 1696 2899 1696 
L 5446 1696 
C 5709 1696 5914 1683 6074 1664 
L 6074 2131 
C 5875 2106 5722 2099 5459 2099 
L 4467 2099 
L 4467 2598 
L 5190 2598 
C 5472 2598 5632 2592 5786 2573 
L 5786 3002 
C 5645 2982 5491 2976 5190 2976 
L 4467 2976 
L 4467 3424 
L 5190 3424 
C 5478 3424 5626 3418 5786 3398 
L 5786 3827 
C 5658 3808 5504 3802 5190 3802 
L 4467 3802 
z
M 2854 3802 
L 2854 4250 
L 4026 4250 
L 4026 3802 
L 2854 3802 
z
M 2854 3424 
L 4026 3424 
L 4026 2976 
L 2854 2976 
L 2854 3424 
z
M 2854 2598 
L 4026 2598 
L 4026 2099 
L 2854 2099 
L 2854 2598 
z
M 3411 666 
L 5382 666 
C 5690 666 5875 653 6074 627 
L 6074 1152 
C 5875 1120 5722 1114 5414 1114 
L 3411 1114 
C 3411 1318 3418 1427 3437 1536 
L 2899 1536 
C 2918 1414 2925 1299 2925 1114 
L 1005 1114 
C 717 1114 538 1126 365 1152 
L 365 627 
C 557 653 755 666 1056 666 
L 2925 666 
L 2925 141 
C 2925 -128 2912 -307 2880 -550 
L 3456 -550 
C 3424 -333 3411 -134 3411 147 
L 3411 666 
z
M 685 4973 
C 1107 4755 1331 4589 1690 4237 
L 1997 4627 
C 1645 4934 1453 5069 998 5325 
L 685 4973 
z
M 346 3750 
C 762 3546 1011 3386 1389 3072 
L 1683 3475 
C 1325 3744 1088 3891 659 4109 
L 346 3750 
z
M 1830 3021 
C 1389 2528 794 2054 378 1856 
L 685 1414 
C 1350 1914 1645 2170 2067 2624 
L 1830 3021 
z
" transform="scale(0.015625)"/>
       <path id="HiraKakuProN-W4-5316" d="M 3578 2298 
C 4410 2752 5050 3194 5600 3699 
C 5882 3949 5882 3949 5958 4013 
L 5542 4422 
C 5325 4134 5094 3910 4691 3584 
C 4333 3302 3942 3046 3578 2861 
L 3578 4570 
C 3578 4858 3590 5101 3616 5280 
L 3040 5280 
C 3059 5114 3078 4851 3078 4570 
L 3078 333 
C 3078 -192 3251 -282 4294 -282 
C 5299 -282 5613 -224 5786 0 
C 5933 186 6016 570 6086 1306 
C 5926 1344 5805 1395 5600 1510 
C 5555 806 5498 486 5389 346 
C 5299 230 5056 192 4358 192 
C 3674 192 3578 224 3578 435 
L 3578 2298 
z
M 1318 314 
C 1318 19 1306 -224 1274 -486 
L 1856 -486 
C 1830 -230 1818 51 1818 301 
L 1818 3674 
C 2080 4256 2202 4550 2310 4845 
C 2413 5120 2413 5120 2451 5203 
L 1894 5363 
C 1862 5107 1818 4941 1683 4595 
C 1363 3795 915 3136 269 2490 
C 384 2349 480 2189 563 2010 
C 909 2387 1152 2701 1331 3021 
C 1318 2688 1318 2573 1318 2259 
L 1318 314 
z
" transform="scale(0.015625)"/>
       <path id="HiraKakuProN-W4-3055" d="M 3302 4006 
C 2803 3936 1971 3878 1478 3878 
C 1235 3878 1088 3885 915 3910 
L 954 3360 
C 1050 3373 1075 3379 1210 3379 
C 2035 3392 2893 3456 3482 3546 
C 3520 3475 3526 3462 3590 3334 
C 3789 2957 4032 2541 4173 2349 
C 4269 2214 4269 2214 4307 2163 
C 4013 2304 3565 2374 3008 2374 
C 2477 2374 2080 2291 1728 2099 
C 1312 1875 1050 1478 1050 1069 
C 1050 800 1152 538 1338 339 
C 1638 13 2246 -166 3066 -166 
C 3699 -166 4288 -64 4979 179 
L 4902 762 
C 4410 506 3699 346 3053 346 
C 2131 346 1606 621 1606 1094 
C 1606 1318 1734 1536 1939 1664 
C 2214 1837 2592 1920 3117 1920 
C 3546 1920 3891 1869 4198 1760 
C 4378 1696 4474 1638 4646 1491 
L 5158 1766 
C 4698 2387 4352 2944 4019 3616 
C 4474 3706 4685 3750 5056 3846 
C 5274 3898 5338 3910 5459 3936 
L 5389 4480 
C 5043 4339 4474 4192 3834 4083 
C 3782 4192 3738 4301 3616 4621 
C 3475 4986 3462 5018 3437 5190 
L 2835 5107 
C 2886 5011 2899 4986 3002 4723 
L 3302 4006 
z
" transform="scale(0.015625)"/>
       <path id="HiraKakuProN-W4-308c" d="M 678 742 
C 730 819 755 851 838 947 
C 947 1069 1030 1165 1101 1235 
C 1280 1434 1280 1434 1389 1568 
C 1453 1645 1472 1664 1510 1728 
L 1523 1722 
C 1504 1581 1498 1478 1498 1331 
C 1498 -19 1498 -32 1453 -301 
L 2048 -301 
C 2029 -102 2022 384 2022 1491 
C 2022 1638 2022 1811 2029 2138 
C 2957 3091 3738 3635 4160 3635 
C 4371 3635 4486 3520 4486 3309 
C 4486 3149 4448 2906 4339 2419 
C 4096 1293 4083 1203 4083 877 
C 4083 518 4179 282 4397 128 
C 4518 38 4698 -13 4883 -13 
C 5216 -13 5510 141 5773 448 
C 5926 627 5997 742 6182 1082 
C 6010 1299 5958 1382 5843 1606 
C 5766 1363 5632 1094 5478 877 
C 5331 666 5126 531 4973 531 
C 4742 531 4621 678 4621 941 
C 4621 1133 4666 1408 4755 1818 
C 5030 3053 5043 3117 5043 3392 
C 5043 3859 4730 4166 4256 4166 
C 3872 4166 3418 3955 2835 3494 
C 2368 3130 2118 2899 2029 2765 
L 2016 2771 
C 2029 2899 2029 2906 2035 3162 
C 2035 3181 2042 3232 2042 3309 
C 2042 3341 2048 3386 2048 3450 
C 2221 3686 2291 3776 2381 3846 
L 2195 4070 
C 2144 4051 2131 4045 2080 4038 
C 2106 4730 2125 4992 2157 5146 
L 1568 5158 
C 1574 5037 1581 4966 1581 4883 
C 1581 4742 1574 4448 1562 3994 
C 1114 3962 838 3949 742 3949 
C 666 3949 627 3949 525 3962 
L 550 3437 
C 704 3469 806 3475 1549 3526 
C 1536 3162 1536 3162 1530 2976 
C 1523 2675 1517 2477 1517 2381 
C 1382 2240 1024 1875 781 1638 
C 595 1453 506 1382 384 1299 
L 678 742 
z
" transform="scale(0.015625)"/>
       <path id="HiraKakuProN-W4-305f" d="M 672 3565 
L 787 3565 
L 832 3565 
C 1005 3558 1178 3552 1229 3552 
C 1440 3552 1677 3558 1760 3558 
C 1510 2259 1043 877 576 51 
L 1139 -186 
C 1485 640 1664 1133 1869 1818 
C 2048 2406 2214 3104 2304 3584 
C 2637 3610 3059 3667 3373 3731 
C 3507 3757 3507 3757 3558 3763 
L 3533 4288 
C 3219 4186 2880 4128 2394 4077 
C 2426 4243 2438 4314 2477 4531 
C 2554 4986 2554 4986 2592 5139 
L 1990 5203 
L 1990 5120 
C 1990 4922 1939 4550 1850 4045 
C 1677 4038 1600 4038 1498 4038 
C 1146 4038 890 4058 678 4096 
L 672 3565 
z
M 5574 3296 
C 5107 3315 5018 3315 4896 3315 
C 4307 3315 3910 3264 3142 3104 
L 3194 2592 
C 3795 2746 4224 2803 4813 2803 
C 5094 2803 5274 2790 5581 2752 
L 5574 3296 
z
M 3194 1926 
C 2854 1472 2752 1248 2752 954 
C 2752 301 3315 -38 4384 -38 
C 4736 -38 5062 -6 5536 70 
C 5754 109 5754 109 5830 122 
L 5779 691 
C 5414 557 4832 461 4358 461 
C 3667 461 3283 659 3283 1011 
C 3283 1114 3315 1248 3366 1357 
C 3411 1453 3450 1504 3635 1722 
L 3194 1926 
z
" transform="scale(0.015625)"/>
       <path id="HiraKakuProN-W4-6c" d="M 442 4934 
C 474 4704 486 4518 486 4179 
L 486 755 
C 486 429 474 250 442 0 
L 1120 0 
C 1088 262 1075 448 1075 755 
L 1075 4179 
C 1075 4512 1088 4698 1120 4934 
L 442 4934 
z
" transform="scale(0.015625)"/>
       <path id="HiraKakuProN-W4-6f" d="M 2054 -90 
C 3110 -90 3802 640 3802 1766 
C 3802 2893 3117 3610 2042 3610 
C 966 3610 282 2886 282 1760 
C 282 627 966 -90 2054 -90 
z
M 2054 3130 
C 2771 3130 3213 2605 3213 1754 
C 3213 909 2771 397 2042 397 
C 1318 397 870 922 870 1766 
C 870 2611 1325 3130 2054 3130 
z
" transform="scale(0.015625)"/>
       <path id="HiraKakuProN-W4-67" d="M 416 -678 
C 838 -1146 1261 -1325 1920 -1325 
C 2509 -1325 3014 -1152 3290 -858 
C 3578 -557 3699 -147 3699 531 
L 3699 2778 
C 3699 3091 3712 3258 3744 3520 
L 3142 3520 
L 3142 3194 
C 3142 3123 3142 3078 3155 2976 
C 2886 3373 2477 3578 1939 3578 
C 928 3578 288 2880 288 1792 
C 288 710 915 26 1907 26 
C 2285 26 2630 134 2880 326 
C 2989 416 3053 493 3155 659 
C 3142 237 3098 -38 3027 -218 
C 2861 -627 2470 -851 1933 -851 
C 1485 -851 1165 -698 896 -346 
L 416 -678 
z
M 883 1779 
C 883 2592 1306 3098 1990 3098 
C 2675 3098 3130 2592 3130 1830 
C 3130 1037 2650 499 1952 499 
C 1293 499 883 992 883 1779 
z
" transform="scale(0.015625)"/>
       <path id="HiraKakuProN-W4-5b" d="M 2176 -480 
L 1382 -480 
L 1382 4435 
L 2176 4435 
L 2176 4934 
L 813 4934 
L 813 -979 
L 2176 -979 
L 2176 -480 
z
" transform="scale(0.015625)"/>
       <path id="HiraKakuProN-W4-4f53" d="M 3648 774 
L 3648 179 
C 3648 -51 3635 -262 3603 -486 
L 4147 -486 
C 4122 -256 4109 -51 4109 179 
L 4109 774 
L 4672 774 
C 4896 774 5018 768 5171 749 
L 5171 1242 
C 5030 1216 4896 1210 4666 1210 
L 4109 1210 
L 4109 2406 
C 4109 2669 4102 2893 4090 3187 
C 4416 2477 4659 2074 5050 1594 
C 5331 1242 5594 979 5952 685 
C 6074 883 6163 1005 6298 1126 
C 5389 1786 4883 2406 4307 3578 
L 5440 3578 
C 5683 3578 5920 3565 6112 3539 
L 6112 4064 
C 5920 4038 5709 4026 5434 4026 
L 4109 4026 
L 4109 4698 
C 4109 4922 4128 5158 4154 5318 
L 3597 5318 
C 3629 5126 3642 4902 3642 4698 
L 3642 4026 
L 2554 4026 
C 2298 4026 2067 4038 1894 4058 
L 1894 3539 
C 2099 3565 2310 3578 2541 3578 
L 3443 3578 
C 3264 3155 3098 2848 2835 2470 
C 2445 1901 2086 1530 1542 1126 
C 1734 947 1792 883 1888 717 
C 2323 1082 2624 1408 2918 1811 
C 3238 2259 3405 2560 3667 3181 
C 3654 2899 3648 2707 3648 2394 
L 3648 1210 
L 3149 1210 
C 2918 1210 2778 1216 2637 1242 
L 2637 749 
C 2790 768 2918 774 3136 774 
L 3648 774 
z
M 1011 275 
C 1011 -58 1005 -250 973 -486 
L 1523 -486 
C 1504 -269 1491 -45 1491 262 
L 1491 3706 
C 1696 4122 1754 4250 1952 4787 
C 2022 4973 2042 5024 2118 5216 
L 1594 5370 
C 1542 5062 1485 4864 1350 4525 
C 1075 3814 698 3219 154 2624 
C 294 2419 333 2355 416 2144 
C 691 2458 832 2662 1030 3008 
C 1018 2726 1011 2547 1011 2240 
L 1011 275 
z
" transform="scale(0.015625)"/>
       <path id="HiraKakuProN-W4-91cd" d="M 2925 4224 
L 1062 4224 
C 800 4224 570 4237 397 4262 
L 397 3782 
C 589 3808 774 3821 1062 3821 
L 2925 3821 
L 2925 3424 
L 1549 3424 
C 1325 3424 1190 3430 1037 3450 
C 1056 3277 1062 3181 1062 3002 
L 1062 1843 
C 1062 1664 1056 1587 1037 1402 
C 1190 1421 1325 1427 1549 1427 
L 2925 1427 
L 2925 992 
L 1459 992 
C 1203 992 986 1005 800 1030 
L 800 544 
C 986 570 1184 582 1459 582 
L 2925 582 
L 2925 115 
L 1024 115 
C 762 115 544 128 365 154 
L 365 -358 
C 544 -333 742 -320 1024 -320 
L 5414 -320 
C 5702 -320 5875 -333 6080 -358 
L 6080 154 
C 5882 128 5696 115 5414 115 
L 3386 115 
L 3386 582 
L 4979 582 
C 5254 582 5459 570 5638 544 
L 5638 1030 
C 5453 1005 5261 992 4979 992 
L 3386 992 
L 3386 1427 
L 4883 1427 
C 5101 1427 5242 1421 5395 1402 
C 5376 1562 5370 1664 5370 1843 
L 5370 3002 
C 5370 3174 5376 3283 5395 3450 
C 5242 3430 5107 3424 4883 3424 
L 3386 3424 
L 3386 3821 
L 5376 3821 
C 5658 3821 5869 3808 6035 3782 
L 6035 4262 
C 5843 4237 5651 4224 5376 4224 
L 3386 4224 
L 3386 4704 
C 3872 4749 4346 4800 4634 4851 
C 5107 4928 5376 4979 5446 4986 
L 5126 5414 
C 4902 5331 4717 5286 4294 5222 
C 3430 5088 2118 4992 1088 4992 
L 762 4992 
C 870 4832 890 4781 941 4576 
C 1613 4595 1613 4595 2925 4666 
L 2925 4224 
z
M 2925 3059 
L 2925 2611 
L 1530 2611 
L 1530 3059 
L 2925 3059 
z
M 3386 3059 
L 4909 3059 
L 4909 2611 
L 3386 2611 
L 3386 3059 
z
M 2925 2240 
L 2925 1792 
L 1530 1792 
L 1530 2240 
L 2925 2240 
z
M 3386 2240 
L 4909 2240 
L 4909 1792 
L 3386 1792 
L 3386 2240 
z
" transform="scale(0.015625)"/>
       <path id="HiraKakuProN-W4-5d" d="M 141 -480 
L 141 -979 
L 1504 -979 
L 1504 4934 
L 141 4934 
L 141 4435 
L 934 4435 
L 934 -480 
L 141 -480 
z
" transform="scale(0.015625)"/>
       <path id="HiraKakuProN-W4-20" transform="scale(0.015625)"/>
       <path id="HiraKakuProN-W4-28" d="M 2195 -749 
C 1830 -198 1683 90 1542 538 
C 1402 986 1331 1472 1331 1978 
C 1331 2483 1402 2963 1542 3411 
C 1683 3859 1830 4147 2195 4698 
L 1715 5018 
C 1350 4461 1197 4173 1037 3712 
C 838 3155 742 2579 742 1978 
C 742 1376 838 794 1037 243 
C 1197 -218 1350 -512 1715 -1062 
L 2195 -749 
z
" transform="scale(0.015625)"/>
       <path id="DejaVuSans-Oblique-65" d="M 3078 2063 
Q 3088 2113 3092 2166 
Q 3097 2219 3097 2272 
Q 3097 2653 2873 2875 
Q 2650 3097 2266 3097 
Q 1838 3097 1509 2826 
Q 1181 2556 1013 2059 
L 3078 2063 
z
M 3578 1613 
L 903 1613 
Q 884 1494 878 1425 
Q 872 1356 872 1306 
Q 872 872 1139 634 
Q 1406 397 1894 397 
Q 2269 397 2603 481 
Q 2938 566 3225 728 
L 3116 159 
Q 2806 34 2476 -28 
Q 2147 -91 1806 -91 
Q 1078 -91 686 257 
Q 294 606 294 1247 
Q 294 1794 489 2264 
Q 684 2734 1063 3103 
Q 1306 3334 1642 3459 
Q 1978 3584 2356 3584 
Q 2950 3584 3301 3228 
Q 3653 2872 3653 2272 
Q 3653 2128 3634 1964 
Q 3616 1800 3578 1613 
z
" transform="scale(0.015625)"/>
       <path id="DejaVuSans-Oblique-3bc" d="M -84 -1331 
L 856 3500 
L 1434 3500 
L 1009 1322 
Q 997 1256 987 1175 
Q 978 1094 978 1013 
Q 978 722 1161 565 
Q 1344 409 1684 409 
Q 2147 409 2431 671 
Q 2716 934 2816 1459 
L 3213 3500 
L 3788 3500 
L 3266 809 
Q 3253 750 3248 706 
Q 3244 663 3244 628 
Q 3244 531 3283 486 
Q 3322 441 3406 441 
Q 3438 441 3492 456 
Q 3547 472 3647 513 
L 3559 50 
Q 3422 -19 3297 -55 
Q 3172 -91 3053 -91 
Q 2847 -91 2730 40 
Q 2613 172 2613 403 
Q 2438 153 2195 31 
Q 1953 -91 1625 -91 
Q 1334 -91 1117 43 
Q 900 178 831 397 
L 494 -1331 
L -84 -1331 
z
" transform="scale(0.015625)"/>
       <path id="HiraKakuProN-W4-3d" d="M 333 2720 
L 333 2195 
L 3923 2195 
L 3923 2720 
L 333 2720 
z
M 333 1376 
L 333 851 
L 3923 851 
L 3923 1376 
L 333 1376 
z
" transform="scale(0.015625)"/>
       <path id="HiraKakuProN-W4-35" d="M 1331 4416 
L 2835 4416 
C 3155 4416 3366 4403 3622 4365 
L 3622 4986 
C 3360 4947 3206 4934 2829 4934 
L 1446 4934 
C 1082 4934 954 4941 762 4966 
C 774 4768 774 4762 774 4742 
C 774 4563 774 4518 749 4307 
L 608 2822 
C 589 2566 570 2445 518 2157 
L 1088 2106 
C 1146 2240 1178 2291 1261 2374 
C 1485 2605 1811 2739 2131 2739 
C 2842 2739 3264 2317 3264 1613 
C 3264 902 2803 435 2106 435 
C 1747 435 1440 563 1235 794 
C 1146 902 1101 986 1037 1171 
L 410 1005 
C 557 685 646 544 813 378 
C 1133 64 1562 -96 2099 -96 
C 3194 -96 3885 576 3885 1638 
C 3885 2605 3245 3238 2272 3238 
C 1830 3238 1472 3098 1158 2803 
C 1197 2982 1197 2982 1203 3091 
L 1331 4416 
z
" transform="scale(0.015625)"/>
       <path id="HiraKakuProN-W4-36" d="M 3846 3994 
C 3706 4301 3616 4442 3462 4602 
C 3187 4877 2784 5024 2304 5024 
C 1683 5024 1222 4794 864 4307 
C 557 3891 371 3162 371 2355 
C 371 1446 614 704 1043 320 
C 1331 58 1773 -90 2253 -90 
C 3277 -90 3968 589 3968 1587 
C 3968 2586 3334 3213 2323 3213 
C 1894 3213 1568 3104 1274 2854 
C 1133 2739 1062 2656 941 2458 
C 979 3085 1043 3392 1210 3763 
C 1434 4262 1798 4518 2285 4518 
C 2765 4518 3040 4314 3238 3821 
L 3846 3994 
z
M 2266 2714 
C 2950 2714 3366 2285 3366 1574 
C 3366 1325 3309 1088 3206 922 
C 3008 614 2643 422 2234 422 
C 1568 422 1069 915 1069 1574 
C 1069 2234 1574 2714 2266 2714 
z
" transform="scale(0.015625)"/>
       <path id="HiraKakuProN-W4-2e" d="M 442 723 
L 442 0 
L 1165 0 
L 1165 723 
L 442 723 
z
" transform="scale(0.015625)"/>
       <path id="HiraKakuProN-W4-38" d="M 1446 2586 
C 1203 2547 1056 2490 851 2355 
C 480 2106 294 1754 294 1299 
C 294 397 966 -102 2163 -102 
C 3347 -102 4006 397 4006 1299 
C 4006 1728 3853 2061 3539 2304 
C 3322 2470 3136 2547 2867 2586 
C 3437 2714 3789 3162 3789 3757 
C 3789 4550 3162 5043 2150 5043 
C 1146 5043 512 4544 512 3750 
C 512 3162 877 2701 1446 2586 
z
M 2150 4538 
C 2784 4538 3187 4211 3187 3699 
C 3187 3155 2797 2829 2157 2829 
C 1510 2829 1114 3162 1114 3699 
C 1114 4211 1523 4538 2150 4538 
z
M 2157 2304 
C 2912 2304 3373 1939 3373 1344 
C 3373 749 2925 410 2144 410 
C 1376 410 928 749 928 1338 
C 928 1939 1389 2304 2157 2304 
z
" transform="scale(0.015625)"/>
       <path id="HiraKakuProN-W4-6b" d="M 442 4934 
C 474 4698 486 4518 486 4179 
L 486 755 
C 486 429 474 224 442 0 
L 1101 0 
C 1069 224 1056 442 1056 742 
L 1056 1254 
L 1600 1766 
L 2400 640 
C 2669 269 2733 166 2810 0 
L 3654 0 
C 3507 147 3482 179 3091 691 
L 2010 2112 
L 2906 2957 
C 2912 2963 2957 3008 3021 3066 
C 3110 3155 3187 3226 3251 3283 
C 3424 3437 3424 3437 3514 3520 
L 2624 3520 
C 2534 3373 2426 3258 2157 2995 
L 1056 1926 
L 1056 4179 
C 1056 4518 1069 4704 1101 4934 
L 442 4934 
z
" transform="scale(0.015625)"/>
       <path id="HiraKakuProN-W4-2c" d="M 1165 723 
L 435 723 
L 435 0 
L 858 0 
C 851 -403 800 -499 493 -614 
L 685 -864 
C 1062 -672 1165 -493 1165 0 
L 1165 723 
z
" transform="scale(0.015625)"/>
       <path id="DejaVuSans-Oblique-3c3" d="M 2219 3044 
Q 1744 3044 1422 2700 
Q 1081 2341 969 1747 
Q 844 1119 1044 756 
Q 1241 397 1706 397 
Q 2166 397 2503 759 
Q 2844 1122 2966 1747 
Q 3075 2319 2881 2700 
Q 2700 3044 2219 3044 
z
M 2309 3503 
L 4219 3500 
L 4106 2925 
L 3463 2925 
Q 3706 2438 3575 1747 
Q 3406 888 2884 400 
Q 2359 -91 1609 -91 
Q 856 -91 525 400 
Q 194 888 363 1747 
Q 528 2609 1050 3097 
Q 1484 3503 2309 3503 
z
" transform="scale(0.015625)"/>
       <path id="HiraKakuProN-W4-39" d="M 410 934 
C 582 576 698 422 896 262 
C 1178 32 1542 -77 2003 -77 
C 2586 -77 3014 102 3341 486 
C 3712 928 3910 1664 3910 2624 
C 3910 3302 3814 3821 3610 4186 
C 3315 4723 2765 5037 2118 5037 
C 1030 5037 326 4358 326 3315 
C 326 2861 486 2438 768 2157 
C 1050 1875 1472 1722 1958 1722 
C 2426 1722 2765 1843 3085 2125 
C 3213 2240 3270 2310 3366 2483 
C 3354 2189 3334 1958 3315 1818 
C 3270 1517 3168 1216 3046 1011 
C 2816 621 2496 435 2042 435 
C 1702 435 1427 538 1254 723 
C 1158 826 1114 915 1037 1120 
L 410 934 
z
M 2029 2221 
C 1357 2221 928 2662 928 3360 
C 928 3706 1030 3981 1248 4192 
C 1459 4403 1754 4525 2067 4525 
C 2733 4525 3232 4032 3232 3366 
C 3232 2707 2720 2221 2029 2221 
z
" transform="scale(0.015625)"/>
       <path id="HiraKakuProN-W4-30" d="M 2144 -90 
C 2758 -90 3232 141 3565 602 
C 3846 998 4019 1696 4019 2464 
C 4019 3002 3936 3501 3770 3949 
C 3693 4160 3558 4371 3379 4550 
C 3078 4858 2650 5024 2157 5024 
C 1498 5024 986 4742 666 4205 
C 435 3834 288 3142 288 2458 
C 288 1939 371 1434 538 986 
C 614 768 749 563 928 384 
C 1242 70 1651 -90 2144 -90 
z
M 2144 4499 
C 2592 4499 2918 4307 3123 3923 
C 3283 3629 3398 3014 3398 2470 
C 3398 2022 3341 1619 3213 1235 
C 3155 1043 3046 870 2912 730 
C 2726 538 2458 435 2150 435 
C 1734 435 1414 614 1197 973 
C 1024 1261 902 1875 902 2451 
C 902 2906 966 3328 1088 3699 
C 1139 3866 1235 4026 1370 4173 
C 1568 4397 1818 4499 2144 4499 
z
" transform="scale(0.015625)"/>
       <path id="HiraKakuProN-W4-29" d="M 653 -1062 
C 1018 -512 1171 -218 1331 243 
C 1530 794 1626 1370 1626 1978 
C 1626 2579 1530 3155 1331 3712 
C 1171 4173 1018 4461 653 5018 
L 173 4698 
C 538 4147 685 3859 826 3411 
C 966 2963 1037 2490 1037 1978 
C 1037 1466 966 986 826 538 
C 685 90 538 -198 173 -749 
L 653 -1062 
z
" transform="scale(0.015625)"/>
      </defs>
      <use xlink:href="#HiraKakuProN-W4-7537" transform="translate(0 0.40625)"/>
      <use xlink:href="#HiraKakuProN-W4-5973" transform="translate(99.999985 0.40625)"/>
      <use xlink:href="#HiraKakuProN-W4-31" transform="translate(199.999969 0.40625)"/>
      <use xlink:href="#HiraKakuProN-W4-37" transform="translate(267.299957 0.40625)"/>
      <use xlink:href="#HiraKakuProN-W4-6b73" transform="translate(334.599945 0.40625)"/>
      <use xlink:href="#HiraKakuProN-W4-306e" transform="translate(434.59993 0.40625)"/>
      <use xlink:href="#HiraKakuProN-W4-6a19" transform="translate(534.599915 0.40625)"/>
      <use xlink:href="#HiraKakuProN-W4-6e96" transform="translate(634.599899 0.40625)"/>
      <use xlink:href="#HiraKakuProN-W4-5316" transform="translate(734.599884 0.40625)"/>
      <use xlink:href="#HiraKakuProN-W4-3055" transform="translate(834.599869 0.40625)"/>
      <use xlink:href="#HiraKakuProN-W4-308c" transform="translate(934.599854 0.40625)"/>
      <use xlink:href="#HiraKakuProN-W4-305f" transform="translate(1034.599838 0.40625)"/>
      <use xlink:href="#HiraKakuProN-W4-6c" transform="translate(1134.599823 0.40625)"/>
      <use xlink:href="#HiraKakuProN-W4-6f" transform="translate(1158.899811 0.40625)"/>
      <use xlink:href="#HiraKakuProN-W4-67" transform="translate(1222.699799 0.40625)"/>
      <use xlink:href="#HiraKakuProN-W4-5b" transform="translate(1287.999786 0.40625)"/>
      <use xlink:href="#HiraKakuProN-W4-4f53" transform="translate(1324.299774 0.40625)"/>
      <use xlink:href="#HiraKakuProN-W4-91cd" transform="translate(1424.299759 0.40625)"/>
      <use xlink:href="#HiraKakuProN-W4-5d" transform="translate(1524.299744 0.40625)"/>
      <use xlink:href="#HiraKakuProN-W4-20" transform="translate(1560.599731 0.40625)"/>
      <use xlink:href="#HiraKakuProN-W4-28" transform="translate(1593.899719 0.40625)"/>
      <use xlink:href="#DejaVuSans-Oblique-65" transform="translate(1630.899704 0.40625)"/>
      <use xlink:href="#DejaVuSans-Oblique-3bc" transform="translate(1697.073037 38.6875) scale(0.7)"/>
      <use xlink:href="#HiraKakuProN-W4-3d" transform="translate(1744.343545 0.40625)"/>
      <use xlink:href="#HiraKakuProN-W4-35" transform="translate(1810.743539 0.40625)"/>
      <use xlink:href="#HiraKakuProN-W4-36" transform="translate(1878.043527 0.40625)"/>
      <use xlink:href="#HiraKakuProN-W4-2e" transform="translate(1945.343515 0.40625)"/>
      <use xlink:href="#HiraKakuProN-W4-35" transform="translate(1970.343499 0.40625)"/>
      <use xlink:href="#HiraKakuProN-W4-38" transform="translate(2037.643487 0.40625)"/>
      <use xlink:href="#HiraKakuProN-W4-6b" transform="translate(2104.943475 0.40625)"/>
      <use xlink:href="#HiraKakuProN-W4-67" transform="translate(2164.543466 0.40625)"/>
      <use xlink:href="#HiraKakuProN-W4-2c" transform="translate(2229.843454 0.40625)"/>
      <use xlink:href="#HiraKakuProN-W4-20" transform="translate(2254.843438 0.40625)"/>
      <use xlink:href="#DejaVuSans-Oblique-65" transform="translate(2288.143426 0.40625)"/>
      <use xlink:href="#DejaVuSans-Oblique-3c3" transform="translate(2354.316759 38.6875) scale(0.7)"/>
      <use xlink:href="#HiraKakuProN-W4-3d" transform="translate(2401.416369 0.40625)"/>
      <use xlink:href="#HiraKakuProN-W4-31" transform="translate(2467.816363 0.40625)"/>
      <use xlink:href="#HiraKakuProN-W4-2e" transform="translate(2535.116351 0.40625)"/>
      <use xlink:href="#HiraKakuProN-W4-31" transform="translate(2560.116335 0.40625)"/>
      <use xlink:href="#HiraKakuProN-W4-39" transform="translate(2627.416323 0.40625)"/>
      <use xlink:href="#HiraKakuProN-W4-30" transform="translate(2694.716311 0.40625)"/>
      <use xlink:href="#HiraKakuProN-W4-29" transform="translate(2762.016299 0.40625)"/>
     </g>
    </g>
   </g>
   <g id="matplotlib.axis_2">
    <g id="ytick_1">
     <g id="line2d_19">
      <path d="M 42.12 179.28 
L 317.52 179.28 
" clip-path="url(#pb84d349b40)" style="fill: none; stroke: #b0b0b0; stroke-width: 0.8; stroke-linecap: square"/>
     </g>
     <g id="line2d_20">
      <defs>
       <path id="m1f7605255f" d="M 0 0 
L -3.5 0 
" style="stroke: #000000; stroke-width: 0.8"/>
      </defs>
      <g>
       <use xlink:href="#m1f7605255f" x="42.12" y="179.28" style="stroke: #000000; stroke-width: 0.8"/>
      </g>
     </g>
     <g id="text_11">
      <!-- 0.0 -->
      <g transform="translate(19.216875 183.079219) scale(0.1 -0.1)">
       <defs>
        <path id="DejaVuSans-2e" d="M 684 794 
L 1344 794 
L 1344 0 
L 684 0 
L 684 794 
z
" transform="scale(0.015625)"/>
       </defs>
       <use xlink:href="#DejaVuSans-30"/>
       <use xlink:href="#DejaVuSans-2e" x="63.623047"/>
       <use xlink:href="#DejaVuSans-30" x="95.410156"/>
      </g>
     </g>
    </g>
    <g id="ytick_2">
     <g id="line2d_21">
      <path d="M 42.12 140.306769 
L 317.52 140.306769 
" clip-path="url(#pb84d349b40)" style="fill: none; stroke: #b0b0b0; stroke-width: 0.8; stroke-linecap: square"/>
     </g>
     <g id="line2d_22">
      <g>
       <use xlink:href="#m1f7605255f" x="42.12" y="140.306769" style="stroke: #000000; stroke-width: 0.8"/>
      </g>
     </g>
     <g id="text_12">
      <!-- 0.1 -->
      <g transform="translate(19.216875 144.105988) scale(0.1 -0.1)">
       <use xlink:href="#DejaVuSans-30"/>
       <use xlink:href="#DejaVuSans-2e" x="63.623047"/>
       <use xlink:href="#DejaVuSans-31" x="95.410156"/>
      </g>
     </g>
    </g>
    <g id="ytick_3">
     <g id="line2d_23">
      <path d="M 42.12 101.333538 
L 317.52 101.333538 
" clip-path="url(#pb84d349b40)" style="fill: none; stroke: #b0b0b0; stroke-width: 0.8; stroke-linecap: square"/>
     </g>
     <g id="line2d_24">
      <g>
       <use xlink:href="#m1f7605255f" x="42.12" y="101.333538" style="stroke: #000000; stroke-width: 0.8"/>
      </g>
     </g>
     <g id="text_13">
      <!-- 0.2 -->
      <g transform="translate(19.216875 105.132757) scale(0.1 -0.1)">
       <use xlink:href="#DejaVuSans-30"/>
       <use xlink:href="#DejaVuSans-2e" x="63.623047"/>
       <use xlink:href="#DejaVuSans-32" x="95.410156"/>
      </g>
     </g>
    </g>
    <g id="ytick_4">
     <g id="line2d_25">
      <path d="M 42.12 62.360307 
L 317.52 62.360307 
" clip-path="url(#pb84d349b40)" style="fill: none; stroke: #b0b0b0; stroke-width: 0.8; stroke-linecap: square"/>
     </g>
     <g id="line2d_26">
      <g>
       <use xlink:href="#m1f7605255f" x="42.12" y="62.360307" style="stroke: #000000; stroke-width: 0.8"/>
      </g>
     </g>
     <g id="text_14">
      <!-- 0.3 -->
      <g transform="translate(19.216875 66.159526) scale(0.1 -0.1)">
       <use xlink:href="#DejaVuSans-30"/>
       <use xlink:href="#DejaVuSans-2e" x="63.623047"/>
       <use xlink:href="#DejaVuSans-33" x="95.410156"/>
      </g>
     </g>
    </g>
    <g id="ytick_5">
     <g id="line2d_27">
      <path d="M 42.12 23.387076 
L 317.52 23.387076 
" clip-path="url(#pb84d349b40)" style="fill: none; stroke: #b0b0b0; stroke-width: 0.8; stroke-linecap: square"/>
     </g>
     <g id="line2d_28">
      <g>
       <use xlink:href="#m1f7605255f" x="42.12" y="23.387076" style="stroke: #000000; stroke-width: 0.8"/>
      </g>
     </g>
     <g id="text_15">
      <!-- 0.4 -->
      <g transform="translate(19.216875 27.186295) scale(0.1 -0.1)">
       <use xlink:href="#DejaVuSans-30"/>
       <use xlink:href="#DejaVuSans-2e" x="63.623047"/>
       <use xlink:href="#DejaVuSans-34" x="95.410156"/>
      </g>
     </g>
    </g>
    <g id="text_16">
     <!-- 確率密度 -->
     <g transform="translate(13.166875 111.8) rotate(-90) scale(0.1 -0.1)">
      <defs>
       <path id="HiraKakuProN-W4-78ba" d="M 2234 2355 
C 2342 2234 2419 2125 2496 1958 
C 2682 2150 2784 2278 2886 2438 
C 2880 2400 2874 2208 2867 1856 
L 2867 160 
C 2867 -154 2854 -320 2822 -518 
L 3302 -518 
L 3302 -211 
L 5402 -211 
C 5619 -211 5792 -224 6010 -250 
L 6010 230 
C 5830 205 5690 198 5402 198 
L 4659 198 
L 4659 870 
L 5229 870 
C 5440 870 5568 864 5786 838 
L 5786 1293 
C 5619 1267 5491 1261 5216 1261 
L 4659 1261 
L 4659 1888 
L 5229 1888 
C 5434 1888 5581 1882 5786 1856 
L 5786 2310 
C 5632 2285 5498 2278 5216 2278 
L 4659 2278 
L 4659 2912 
L 5325 2912 
C 5517 2912 5664 2906 5875 2886 
L 5875 3341 
C 5702 3315 5587 3309 5312 3309 
L 4774 3309 
C 4845 3437 4915 3603 4992 3808 
C 5005 3834 5018 3872 5037 3923 
L 4582 4026 
C 4525 3776 4435 3539 4320 3309 
L 3533 3309 
C 3757 3674 3872 3898 4026 4275 
L 5562 4275 
L 5562 3597 
L 6048 3597 
C 6029 3718 6022 3814 6022 3968 
L 6022 4301 
C 6022 4499 6029 4621 6042 4736 
C 5862 4710 5677 4704 5421 4704 
L 4179 4704 
C 4211 4794 4275 4998 4378 5318 
L 3878 5395 
C 3840 5165 3789 4960 3712 4704 
L 3002 4704 
C 2650 4704 2592 4704 2470 4723 
C 2477 4576 2483 4467 2483 4397 
L 2483 3968 
C 2483 3814 2477 3686 2458 3578 
L 2918 3578 
L 2918 4275 
L 3558 4275 
C 3373 3821 3226 3558 2963 3187 
C 2720 2835 2573 2669 2234 2368 
L 2234 2598 
C 2234 2816 2240 2957 2253 3104 
C 2131 3085 2022 3078 1862 3078 
L 1178 3078 
C 1389 3674 1485 4045 1587 4653 
L 1926 4653 
C 2099 4653 2189 4646 2368 4627 
L 2368 5120 
C 2182 5088 2042 5082 1805 5082 
L 966 5082 
C 723 5082 550 5094 378 5120 
L 378 4614 
C 557 4646 685 4653 928 4653 
L 1126 4653 
C 1062 4198 1005 3930 896 3571 
C 698 2950 474 2515 128 2080 
C 237 1926 269 1869 371 1613 
C 531 1830 627 1997 781 2342 
C 762 2138 749 1805 749 1709 
L 749 282 
C 749 13 736 -166 710 -339 
L 1190 -339 
L 1190 307 
L 1811 307 
L 1811 -45 
L 2253 -45 
C 2240 102 2234 230 2234 480 
L 2234 2355 
z
M 3302 2278 
L 3302 2912 
L 4237 2912 
L 4237 2278 
L 3302 2278 
z
M 3302 1888 
L 4237 1888 
L 4237 1261 
L 3302 1261 
L 3302 1888 
z
M 3302 870 
L 4237 870 
L 4237 198 
L 3302 198 
L 3302 870 
z
M 1190 2656 
L 1811 2656 
L 1811 736 
L 1190 736 
L 1190 2656 
z
" transform="scale(0.015625)"/>
       <path id="HiraKakuProN-W4-7387" d="M 2074 2310 
C 2035 2304 2003 2304 1997 2304 
C 1894 2304 1728 2310 1645 2323 
L 1722 1862 
C 1798 1875 1888 1888 2061 1901 
C 3078 1984 3469 2029 4109 2144 
C 4198 2003 4230 1939 4333 1734 
L 4742 1926 
C 4371 2490 4250 2643 3872 3053 
L 3526 2886 
C 3718 2688 3776 2618 3898 2458 
C 3680 2426 3680 2426 2739 2342 
C 2925 2502 2925 2502 3315 2893 
L 3398 2970 
C 3814 3398 3872 3462 4147 3827 
L 3782 4083 
C 3520 3693 3398 3539 3091 3200 
C 2963 3341 2906 3405 2720 3571 
C 2970 3866 3117 4077 3302 4403 
L 5427 4403 
C 5696 4403 5888 4397 6074 4371 
L 6074 4883 
C 5882 4858 5677 4845 5376 4845 
L 3398 4845 
L 3398 4960 
C 3398 5126 3411 5235 3437 5382 
L 2886 5382 
C 2906 5248 2918 5114 2918 4960 
L 2918 4845 
L 1082 4845 
C 787 4845 589 4858 390 4883 
L 390 4371 
C 576 4397 774 4403 1030 4403 
L 2810 4403 
C 2714 4205 2592 4026 2432 3827 
C 2342 3904 2291 3942 2150 4045 
L 1856 3738 
C 2253 3456 2534 3206 2803 2899 
C 2573 2669 2458 2560 2170 2310 
L 2074 2310 
z
M 3379 928 
L 5402 928 
C 5683 928 5901 915 6093 890 
L 6093 1414 
C 5920 1389 5690 1370 5453 1370 
L 3379 1370 
L 3379 1453 
C 3379 1632 3386 1747 3405 1856 
L 2867 1856 
C 2886 1754 2893 1619 2893 1459 
L 2893 1370 
L 966 1370 
C 723 1370 474 1389 314 1414 
L 314 890 
C 538 915 730 928 998 928 
L 2893 928 
L 2893 32 
C 2893 -179 2880 -352 2848 -544 
L 3424 -544 
C 3392 -358 3379 -192 3379 32 
L 3379 928 
z
M 595 3898 
C 986 3597 1146 3443 1485 3040 
L 1837 3366 
C 1536 3693 1312 3891 941 4186 
L 595 3898 
z
M 563 1722 
C 678 1786 698 1792 787 1843 
C 954 1920 992 1946 1146 2029 
C 1478 2221 1651 2336 2035 2624 
L 1830 2995 
C 1350 2611 845 2336 352 2195 
L 563 1722 
z
M 5299 4205 
C 4973 3827 4717 3610 4275 3315 
L 4589 2995 
C 5024 3302 5312 3552 5658 3910 
L 5299 4205 
z
M 4499 2643 
C 4986 2323 5280 2080 5651 1690 
L 5978 2067 
C 5536 2451 5312 2618 4787 2944 
L 4499 2643 
z
" transform="scale(0.015625)"/>
       <path id="HiraKakuProN-W4-5bc6" d="M 4346 4173 
C 3942 3590 3258 3014 2451 2573 
L 2451 3405 
C 2451 3603 2458 3712 2477 3859 
L 1978 3859 
C 2003 3699 2010 3590 2010 3392 
L 2010 2349 
C 1478 2112 966 1933 333 1773 
C 435 1632 454 1600 563 1338 
C 1197 1549 1606 1709 2106 1939 
C 2246 1837 2496 1805 3200 1805 
C 4762 1805 4800 1824 4890 2803 
C 4742 2835 4589 2893 4454 2957 
C 4442 2618 4403 2432 4346 2349 
C 4269 2240 4038 2208 3405 2208 
C 3021 2208 2880 2208 2656 2221 
C 3066 2458 3405 2682 3674 2893 
C 3872 3046 4378 3501 4614 3744 
L 4762 3891 
L 4346 4173 
z
M 2925 4774 
L 1171 4774 
C 909 4774 762 4781 518 4806 
C 538 4659 544 4550 544 4378 
L 544 4032 
C 544 3814 538 3706 512 3565 
L 1005 3565 
L 1005 4346 
L 5427 4346 
L 5427 3546 
L 5920 3546 
C 5901 3680 5894 3795 5894 4000 
L 5894 4371 
C 5894 4563 5901 4672 5920 4806 
C 5696 4781 5536 4774 5267 4774 
L 3418 4774 
L 3418 4947 
C 3418 5107 3424 5229 3456 5376 
L 2880 5376 
C 2912 5229 2925 5101 2925 4947 
L 2925 4774 
z
M 2957 307 
L 1498 307 
L 1498 819 
C 1498 1030 1504 1165 1523 1274 
L 986 1274 
C 1011 1146 1024 1018 1024 806 
L 1024 179 
C 1024 -70 1011 -256 986 -435 
L 1498 -435 
L 1498 -128 
L 4941 -128 
L 4941 -448 
L 5459 -448 
C 5427 -269 5421 -90 5421 166 
L 5421 819 
C 5421 1043 5427 1184 5453 1338 
L 4909 1338 
C 4928 1197 4941 1069 4941 851 
L 4941 307 
L 3443 307 
L 3443 1088 
C 3443 1357 3450 1498 3475 1632 
L 2925 1632 
C 2944 1485 2957 1350 2957 1094 
L 2957 307 
z
M 3661 3744 
C 3347 3994 3117 4147 2810 4320 
L 2496 4051 
C 2797 3885 3021 3712 3328 3411 
L 3661 3744 
z
M 851 2298 
C 1318 2746 1517 3002 1760 3469 
L 1389 3699 
C 1178 3264 960 2995 512 2618 
L 851 2298 
z
M 6010 2477 
C 5651 3008 5510 3181 5075 3610 
L 4710 3366 
C 5107 2976 5318 2701 5613 2182 
L 6010 2477 
z
" transform="scale(0.015625)"/>
       <path id="HiraKakuProN-W4-5ea6" d="M 2400 3379 
L 2400 2752 
C 2400 2624 2394 2483 2381 2362 
C 2464 2374 2579 2374 2835 2374 
L 4365 2374 
C 4602 2374 4672 2374 4774 2362 
C 4762 2477 4755 2605 4755 2752 
L 4755 3379 
L 5478 3379 
C 5760 3379 5920 3373 6061 3347 
L 6061 3821 
C 5901 3795 5760 3789 5485 3789 
L 4755 3789 
L 4755 3859 
C 4755 4026 4762 4141 4781 4256 
L 4262 4256 
C 4282 4141 4288 4013 4288 3866 
L 4288 3789 
L 2867 3789 
L 2867 3878 
C 2867 4006 2874 4115 2893 4256 
L 2374 4256 
C 2394 4147 2400 4032 2400 3872 
L 2400 3789 
L 1312 3789 
L 1312 4403 
L 5376 4403 
C 5677 4403 5837 4397 6048 4378 
L 6048 4864 
C 5875 4838 5677 4826 5325 4826 
L 3622 4826 
L 3622 4998 
C 3622 5171 3629 5280 3654 5402 
L 3098 5402 
C 3123 5274 3136 5152 3136 4998 
L 3136 4826 
L 1478 4826 
C 1222 4826 1011 4838 800 4858 
C 819 4672 826 4480 826 4051 
C 826 1670 698 845 198 -26 
C 358 -147 454 -237 595 -416 
C 1120 538 1267 1318 1306 3379 
L 2400 3379 
z
M 2867 3379 
L 4288 3379 
L 4288 2765 
L 2867 2765 
L 2867 3379 
z
M 5030 1933 
C 4896 1920 4787 1914 4570 1914 
L 2272 1914 
C 1939 1914 1766 1920 1613 1946 
L 1613 1491 
C 1766 1517 1907 1523 2195 1523 
C 2522 1056 2771 800 3187 493 
C 2598 224 1997 77 1126 -19 
C 1235 -218 1280 -320 1318 -493 
C 2291 -333 2931 -134 3610 224 
C 4256 -141 4902 -339 5882 -474 
C 5939 -275 6003 -128 6099 32 
C 5338 77 4653 230 4058 499 
C 4429 749 4774 1056 5069 1395 
C 5190 1536 5235 1587 5299 1651 
L 5030 1933 
z
M 4582 1523 
C 4230 1152 4013 973 3622 723 
C 3206 986 2957 1210 2733 1523 
L 4582 1523 
z
" transform="scale(0.015625)"/>
      </defs>
      <use xlink:href="#HiraKakuProN-W4-78ba"/>
      <use xlink:href="#HiraKakuProN-W4-7387" x="99.999985"/>
      <use xlink:href="#HiraKakuProN-W4-5bc6" x="199.999969"/>
      <use xlink:href="#HiraKakuProN-W4-5ea6" x="299.999954"/>
     </g>
    </g>
   </g>
   <g id="line2d_29">
    <path d="M 42.12 179.227842 
L 44.901818 179.208174 
L 47.683636 179.181734 
L 50.465455 179.146435 
L 53.247273 179.099638 
L 56.029091 179.03803 
L 58.810909 178.957491 
L 61.592727 178.852942 
L 64.374545 178.718182 
L 67.156364 178.545709 
L 69.938182 178.326535 
L 72.72 178.049998 
L 75.501818 177.703585 
L 78.283636 177.272759 
L 81.065455 176.740825 
L 83.847273 176.08883 
L 86.629091 175.295525 
L 89.410909 174.337388 
L 92.192727 173.188757 
L 94.974545 171.822051 
L 97.756364 170.208126 
L 100.538182 168.316766 
L 103.32 166.117317 
L 106.101818 163.579472 
L 108.883636 160.674208 
L 111.665455 157.374854 
L 114.447273 153.658284 
L 117.229091 149.506194 
L 120.010909 144.906434 
L 122.792727 139.854347 
L 125.574545 134.354048 
L 128.356364 128.419602 
L 131.138182 122.076012 
L 133.92 115.359975 
L 136.701818 108.32032 
L 139.483636 101.01809 
L 142.265455 93.526212 
L 145.047273 85.928722 
L 147.829091 78.319544 
L 150.610909 70.800814 
L 153.392727 63.480786 
L 156.174545 56.47137 
L 158.956364 49.885373 
L 161.738182 43.833534 
L 164.52 38.421456 
L 167.301818 33.746561 
L 170.083636 29.895179 
L 172.865455 26.939902 
L 175.647273 24.937309 
L 178.429091 23.926162 
L 181.210909 23.926162 
L 183.992727 24.937309 
L 186.774545 26.939902 
L 189.556364 29.895179 
L 192.338182 33.746561 
L 195.12 38.421456 
L 197.901818 43.833534 
L 200.683636 49.885373 
L 203.465455 56.47137 
L 206.247273 63.480786 
L 209.029091 70.800814 
L 211.810909 78.319544 
L 214.592727 85.928722 
L 217.374545 93.526212 
L 220.156364 101.01809 
L 222.938182 108.32032 
L 225.72 115.359975 
L 228.501818 122.076012 
L 231.283636 128.419602 
L 234.065455 134.354048 
L 236.847273 139.854347 
L 239.629091 144.906434 
L 242.410909 149.506194 
L 245.192727 153.658284 
L 247.974545 157.374854 
L 250.756364 160.674208 
L 253.538182 163.579472 
L 256.32 166.117317 
L 259.101818 168.316766 
L 261.883636 170.208126 
L 264.665455 171.822051 
L 267.447273 173.188757 
L 270.229091 174.337388 
L 273.010909 175.295525 
L 275.792727 176.08883 
L 278.574545 176.740825 
L 281.356364 177.272759 
L 284.138182 177.703585 
L 286.92 178.049998 
L 289.701818 178.326535 
L 292.483636 178.545709 
L 295.265455 178.718182 
L 298.047273 178.852942 
L 300.829091 178.957491 
L 303.610909 179.03803 
L 306.392727 179.099638 
L 309.174545 179.146435 
L 311.956364 179.181734 
L 314.738182 179.208174 
L 317.52 179.227842 
" clip-path="url(#pb84d349b40)" style="fill: none; stroke-dasharray: 7.4,3.2; stroke-dashoffset: 0; stroke: #ff0000; stroke-opacity: 0.6; stroke-width: 2"/>
   </g>
   <g id="patch_92">
    <path d="M 42.12 179.28 
L 42.12 4.32 
" style="fill: none; stroke: #000000; stroke-width: 0.8; stroke-linejoin: miter; stroke-linecap: square"/>
   </g>
   <g id="patch_93">
    <path d="M 317.52 179.28 
L 317.52 4.32 
" style="fill: none; stroke: #000000; stroke-width: 0.8; stroke-linejoin: miter; stroke-linecap: square"/>
   </g>
   <g id="patch_94">
    <path d="M 42.12 179.28 
L 317.52 179.28 
" style="fill: none; stroke: #000000; stroke-width: 0.8; stroke-linejoin: miter; stroke-linecap: square"/>
   </g>
   <g id="patch_95">
    <path d="M 42.12 4.32 
L 317.52 4.32 
" style="fill: none; stroke: #000000; stroke-width: 0.8; stroke-linejoin: miter; stroke-linecap: square"/>
   </g>
   <g id="legend_1">
    <g id="patch_96">
     <path d="M 218.52 41.83875 
L 310.52 41.83875 
Q 312.52 41.83875 312.52 39.83875 
L 312.52 11.32 
Q 312.52 9.32 310.52 9.32 
L 218.52 9.32 
Q 216.52 9.32 216.52 11.32 
L 216.52 39.83875 
Q 216.52 41.83875 218.52 41.83875 
z
" style="fill: #ffffff; opacity: 0.8; stroke: #cccccc; stroke-linejoin: miter"/>
    </g>
    <g id="line2d_30">
     <path d="M 220.52 17.529375 
L 230.52 17.529375 
L 240.52 17.529375 
" style="fill: none; stroke-dasharray: 7.4,3.2; stroke-dashoffset: 0; stroke: #ff0000; stroke-opacity: 0.6; stroke-width: 2"/>
    </g>
    <g id="text_17">
     <!-- 標準正規分布 -->
     <g transform="translate(248.52 21.029375) scale(0.1 -0.1)">
      <defs>
       <path id="HiraKakuProN-W4-6b63" d="M 3130 307 
L 1907 307 
L 1907 2483 
C 1907 2803 1920 3027 1952 3245 
L 1344 3245 
C 1376 3008 1389 2803 1389 2477 
L 1389 307 
L 1126 307 
C 755 307 570 320 358 352 
L 358 -205 
C 608 -173 826 -160 1133 -160 
L 5274 -160 
C 5587 -160 5818 -173 6042 -205 
L 6042 352 
C 5811 320 5594 307 5267 307 
L 3654 307 
L 3654 2323 
L 4877 2323 
C 5158 2323 5370 2310 5549 2285 
L 5549 2822 
C 5370 2797 5184 2784 4877 2784 
L 3654 2784 
L 3654 4531 
L 5082 4531 
C 5344 4531 5594 4518 5818 4493 
L 5818 5037 
C 5600 5011 5376 4998 5082 4998 
L 1344 4998 
C 1037 4998 813 5011 608 5037 
L 608 4493 
C 832 4518 1069 4531 1350 4531 
L 3130 4531 
L 3130 307 
z
" transform="scale(0.015625)"/>
       <path id="HiraKakuProN-W4-898f" d="M 2240 2266 
C 2419 2266 2566 2259 2726 2234 
L 2726 2746 
C 2554 2720 2406 2714 2208 2714 
L 1818 2714 
C 1837 2995 1850 3238 1856 3712 
L 2227 3712 
C 2413 3712 2554 3706 2714 3680 
L 2714 4173 
C 2547 4147 2394 4141 2189 4141 
L 1869 4141 
C 1875 5005 1875 5005 1907 5222 
L 1363 5222 
C 1395 5050 1402 4909 1402 4614 
L 1402 4141 
L 998 4141 
C 787 4141 634 4154 461 4179 
L 461 3680 
C 653 3699 800 3712 986 3712 
L 1395 3712 
C 1376 2995 1376 2995 1363 2714 
L 896 2714 
C 691 2714 525 2726 358 2752 
L 358 2227 
C 538 2253 704 2266 922 2266 
L 1325 2266 
C 1274 1830 1197 1517 1062 1190 
C 864 698 659 422 237 64 
C 442 -83 474 -115 614 -307 
C 1184 230 1510 845 1683 1702 
C 1926 1229 2106 973 2534 525 
C 2675 768 2707 813 2829 954 
C 2362 1363 2112 1677 1798 2266 
L 2240 2266 
z
M 3520 1440 
C 3482 979 3366 685 3136 442 
C 2906 192 2560 6 2061 -141 
C 2208 -256 2291 -346 2419 -531 
C 2675 -416 2778 -371 2893 -307 
C 3213 -134 3450 64 3616 294 
C 3834 595 3917 870 3981 1440 
L 4435 1440 
L 4435 32 
C 4435 -320 4582 -410 5146 -410 
C 6003 -410 6074 -333 6189 691 
C 6010 749 5907 800 5760 909 
C 5734 493 5696 269 5645 160 
C 5600 64 5504 32 5242 32 
C 4934 32 4890 51 4890 179 
L 4890 1440 
L 5088 1440 
C 5286 1440 5562 1427 5670 1414 
C 5651 1581 5645 1734 5645 2003 
L 5645 4416 
C 5645 4698 5651 4877 5670 5069 
C 5491 5043 5370 5037 5050 5037 
L 3552 5037 
C 3270 5037 3104 5043 2938 5069 
C 2957 4909 2963 4704 2963 4435 
L 2963 2042 
C 2963 1734 2957 1542 2944 1421 
C 3091 1434 3258 1440 3437 1440 
L 3520 1440 
z
M 3424 4608 
L 5184 4608 
L 5184 3981 
L 3424 3981 
L 3424 4608 
z
M 3424 3565 
L 5184 3565 
L 5184 2931 
L 3424 2931 
L 3424 3565 
z
M 3424 2515 
L 5184 2515 
L 5184 1850 
L 3424 1850 
L 3424 2515 
z
" transform="scale(0.015625)"/>
       <path id="HiraKakuProN-W4-5206" d="M 2458 2598 
C 2413 2054 2323 1722 2112 1331 
C 1811 762 1274 301 518 -32 
C 685 -198 755 -294 851 -467 
C 2003 115 2630 870 2880 1952 
C 2925 2163 2944 2272 2970 2598 
L 4390 2598 
C 4390 1715 4333 954 4243 538 
C 4173 205 4128 166 3853 166 
C 3622 166 3328 198 2982 269 
C 3059 51 3085 -70 3110 -269 
C 3488 -301 3706 -314 3898 -314 
C 4326 -314 4499 -243 4614 -26 
C 4781 288 4890 1299 4902 2618 
C 4902 2925 4902 2963 4922 3085 
C 4736 3059 4544 3053 4250 3053 
L 2067 3053 
C 1824 3053 1619 3066 1440 3085 
L 1440 2560 
C 1619 2586 1824 2598 2067 2598 
L 2458 2598 
z
M 2189 5299 
C 2157 5114 2080 4922 1926 4634 
C 1517 3885 973 3296 192 2771 
C 358 2624 467 2496 557 2342 
C 1446 3002 2099 3795 2573 4774 
C 2656 4954 2694 5018 2752 5101 
L 2189 5299 
z
M 3629 5082 
C 3667 5018 3718 4922 3770 4819 
C 4294 3763 4909 3034 5882 2317 
C 6003 2528 6099 2656 6234 2790 
C 5389 3341 4838 3923 4384 4742 
C 4243 4986 4186 5114 4134 5286 
L 3629 5082 
z
" transform="scale(0.015625)"/>
       <path id="HiraKakuProN-W4-5e03" d="M 3213 2304 
L 3213 218 
C 3213 -109 3200 -352 3168 -525 
L 3750 -525 
C 3718 -358 3706 -115 3706 218 
L 3706 2304 
L 5050 2304 
L 5050 755 
C 5050 589 4979 544 4730 544 
C 4557 544 4339 570 4064 614 
C 4154 422 4186 314 4211 115 
C 4480 90 4550 90 4730 90 
C 5363 90 5542 211 5542 659 
L 5542 2240 
C 5542 2458 5549 2611 5568 2771 
C 5370 2746 5197 2739 4966 2739 
L 3706 2739 
L 3706 2842 
C 3706 3194 3712 3366 3744 3539 
L 3174 3539 
C 3206 3360 3213 3181 3213 2842 
L 3213 2739 
L 2003 2739 
C 2285 3104 2541 3526 2726 3904 
L 5318 3904 
C 5658 3904 5869 3891 6054 3866 
L 6054 4397 
C 5882 4371 5670 4358 5318 4358 
L 2918 4358 
C 2995 4563 3078 4800 3123 4954 
C 3181 5139 3194 5178 3245 5280 
L 2669 5363 
C 2637 5056 2560 4755 2406 4358 
L 1088 4358 
C 717 4358 512 4371 333 4397 
L 333 3866 
C 550 3891 768 3904 1088 3904 
L 2208 3904 
C 1747 2989 1094 2278 224 1734 
C 339 1613 448 1453 525 1293 
C 1018 1677 1197 1830 1504 2157 
L 1504 659 
C 1504 365 1491 166 1466 -32 
L 2029 -32 
C 2003 141 1997 314 1997 659 
L 1997 2304 
L 3213 2304 
z
" transform="scale(0.015625)"/>
      </defs>
      <use xlink:href="#HiraKakuProN-W4-6a19"/>
      <use xlink:href="#HiraKakuProN-W4-6e96" x="99.999985"/>
      <use xlink:href="#HiraKakuProN-W4-6b63" x="199.999969"/>
      <use xlink:href="#HiraKakuProN-W4-898f" x="299.999954"/>
      <use xlink:href="#HiraKakuProN-W4-5206" x="399.999939"/>
      <use xlink:href="#HiraKakuProN-W4-5e03" x="499.999924"/>
     </g>
    </g>
    <g id="patch_97">
     <path d="M 220.52 35.78875 
L 240.52 35.78875 
L 240.52 28.78875 
L 220.52 28.78875 
z
" style="fill: #0000ff; opacity: 0.6"/>
    </g>
    <g id="text_18">
     <!-- 測定値 -->
     <g transform="translate(248.52 35.78875) scale(0.1 -0.1)">
      <defs>
       <path id="HiraKakuProN-W4-6e2c" d="M 474 4941 
C 877 4659 1120 4442 1408 4090 
L 1741 4448 
C 1453 4781 1229 4979 800 5274 
L 474 4941 
z
M 256 3354 
C 672 3098 922 2893 1267 2522 
L 1574 2918 
C 1235 3245 979 3437 557 3699 
L 256 3354 
z
M 1222 1875 
C 941 960 627 288 326 -38 
L 755 -410 
C 794 -326 813 -282 896 -128 
C 1197 416 1402 902 1619 1594 
L 1222 1875 
z
M 3328 1146 
C 3526 1146 3648 1139 3866 1126 
C 3853 1261 3846 1472 3846 1728 
L 3846 4538 
C 3846 4813 3853 4986 3872 5158 
C 3680 5146 3558 5139 3360 5139 
L 2438 5139 
C 2202 5139 2061 5146 1926 5158 
C 1939 4973 1946 4806 1946 4595 
L 1946 1766 
C 1946 1414 1946 1312 1926 1126 
C 2061 1139 2214 1146 2438 1146 
L 3328 1146 
z
M 2387 4730 
L 3411 4730 
L 3411 3955 
L 2387 3955 
L 2387 4730 
z
M 2387 3552 
L 3411 3552 
L 3411 2778 
L 2387 2778 
L 2387 3552 
z
M 2387 2374 
L 3411 2374 
L 3411 1555 
L 2387 1555 
L 2387 2374 
z
M 3034 755 
C 3309 269 3501 6 3878 -390 
C 4038 -218 4109 -147 4237 -58 
C 3859 269 3674 499 3411 973 
L 3034 755 
z
M 4890 1088 
C 4864 1248 4858 1408 4858 1715 
L 4858 4314 
C 4858 4614 4864 4749 4890 4941 
L 4365 4941 
C 4390 4768 4397 4602 4397 4320 
L 4397 1715 
C 4397 1434 4384 1254 4365 1088 
L 4890 1088 
z
M 2323 979 
C 2099 480 1926 250 1485 -115 
C 1619 -218 1696 -288 1837 -448 
C 2266 -38 2464 237 2714 768 
L 2323 979 
z
M 5914 4512 
C 5914 4870 5926 5082 5952 5261 
L 5408 5261 
C 5434 5024 5446 4826 5446 4512 
L 5446 269 
C 5446 128 5402 102 5146 102 
C 4947 102 4749 122 4499 154 
C 4570 -13 4589 -109 4621 -333 
C 5011 -352 5024 -352 5152 -352 
C 5773 -352 5914 -250 5914 186 
L 5914 4512 
z
" transform="scale(0.015625)"/>
       <path id="HiraKakuProN-W4-5b9a" d="M 3008 410 
C 2445 627 2144 902 1869 1440 
C 1939 1683 2029 2003 2042 2093 
C 2099 2342 2099 2342 2125 2438 
L 1600 2541 
L 1600 2496 
C 1600 2150 1414 1466 1197 1030 
C 979 589 781 326 352 -83 
C 570 -230 621 -282 749 -448 
C 1203 38 1440 384 1696 954 
C 2163 102 3040 -262 4608 -262 
C 5216 -262 5370 -262 5850 -243 
C 5888 -19 5920 90 6003 282 
C 5440 237 4998 218 4518 218 
C 4096 218 3789 237 3482 282 
L 3482 1613 
L 4704 1613 
C 4973 1613 5139 1606 5325 1581 
L 5325 2086 
C 5165 2061 4979 2048 4704 2048 
L 3482 2048 
L 3482 3034 
L 4518 3034 
C 4800 3034 4986 3021 5158 2995 
L 5158 3507 
C 4986 3482 4794 3469 4518 3469 
L 1926 3469 
C 1651 3469 1459 3482 1293 3507 
L 1293 2995 
C 1466 3021 1651 3034 1926 3034 
L 3008 3034 
L 3008 410 
z
M 2906 4621 
L 1184 4621 
C 934 4621 736 4627 525 4646 
C 538 4531 550 4365 550 4205 
L 550 3776 
C 550 3565 544 3462 518 3302 
L 1024 3302 
L 1024 4173 
L 5402 4173 
L 5402 3302 
L 5894 3302 
C 5875 3443 5869 3584 5869 3770 
L 5869 4205 
C 5869 4378 5875 4506 5894 4646 
C 5677 4627 5485 4621 5235 4621 
L 3405 4621 
L 3405 4909 
C 3405 5062 3411 5178 3443 5312 
L 2861 5312 
C 2893 5152 2906 5062 2906 4909 
L 2906 4621 
z
" transform="scale(0.015625)"/>
       <path id="HiraKakuProN-W4-5024" d="M 3840 4282 
C 3802 4090 3782 4013 3706 3725 
L 3565 3725 
C 3322 3725 3181 3731 3034 3744 
C 3040 3686 3046 3507 3059 3200 
L 3059 1216 
C 3059 1018 3053 851 3040 698 
C 3296 717 3386 717 3597 717 
L 5126 717 
C 5338 717 5421 717 5690 698 
C 5670 877 5670 1005 5670 1248 
L 5670 3136 
C 5670 3456 5670 3571 5690 3744 
C 5555 3731 5402 3725 5133 3725 
L 4166 3725 
C 4243 4032 4243 4032 4294 4282 
L 5568 4282 
C 5773 4282 5946 4275 6144 4250 
L 6144 4742 
C 5946 4710 5818 4704 5523 4704 
L 4378 4704 
C 4416 4928 4429 4992 4474 5286 
L 3974 5318 
C 3955 5030 3942 4934 3910 4704 
L 2662 4704 
C 2362 4704 2208 4710 2035 4736 
L 2035 4256 
C 2221 4275 2368 4282 2624 4282 
L 3840 4282 
z
M 3501 3334 
L 5229 3334 
L 5229 2861 
L 3501 2861 
L 3501 3334 
z
M 3501 2477 
L 5229 2477 
L 5229 2003 
L 3501 2003 
L 3501 2477 
z
M 3501 1619 
L 5229 1619 
L 5229 1107 
L 3501 1107 
L 3501 1619 
z
M 915 288 
C 915 -38 902 -243 877 -474 
L 1414 -474 
C 1389 -256 1382 -26 1382 275 
L 1382 3814 
C 1600 4288 1651 4429 1798 4883 
C 1843 5018 1869 5088 1920 5229 
L 1395 5363 
C 1357 5062 1299 4864 1152 4461 
C 896 3770 595 3258 122 2720 
C 218 2592 320 2419 390 2253 
C 640 2573 755 2765 934 3104 
C 915 2733 915 2656 915 2355 
L 915 288 
z
M 2451 -499 
L 2451 -154 
L 5408 -154 
C 5690 -154 5869 -166 6080 -192 
L 6080 314 
C 5907 288 5734 282 5408 282 
L 2451 282 
L 2451 3098 
C 2451 3398 2458 3622 2483 3795 
L 1952 3795 
C 1978 3603 1990 3398 1990 3104 
L 1990 288 
C 1990 -96 1984 -282 1958 -499 
L 2451 -499 
z
" transform="scale(0.015625)"/>
      </defs>
      <use xlink:href="#HiraKakuProN-W4-6e2c"/>
      <use xlink:href="#HiraKakuProN-W4-5b9a" x="99.999985"/>
      <use xlink:href="#HiraKakuProN-W4-5024" x="199.999969"/>
     </g>
    </g>
   </g>
  </g>
  <g id="text_19">
   <g id="patch_98">
    <path d="M 243 80.65 
L 291.539062 80.65 
Q 294.539062 80.65 294.539062 77.65 
L 294.539062 56.589375 
Q 294.539062 53.589375 291.539062 53.589375 
L 243 53.589375 
Q 240 53.589375 240 56.589375 
L 240 77.65 
Q 240 80.65 243 80.65 
z
" style="fill: #ffffff; stroke: #000000; stroke-linejoin: miter"/>
   </g>
   <!-- 歪度: 0.47 -->
   <g transform="translate(243 64.29875) scale(0.1 -0.1)">
    <defs>
     <path id="HiraKakuProN-W4-6b6a" d="M 3008 166 
L 1926 166 
L 1926 1024 
C 1926 1286 1939 1446 1965 1651 
L 1408 1651 
C 1440 1440 1453 1248 1453 1024 
L 1453 166 
L 1030 166 
C 749 166 576 179 358 211 
L 358 -314 
C 589 -288 845 -275 1101 -275 
L 5286 -275 
C 5606 -275 5805 -288 6016 -314 
L 6016 211 
C 5837 179 5632 166 5286 166 
L 3482 166 
L 3482 979 
L 4762 979 
C 5037 979 5222 966 5427 941 
L 5427 1446 
C 5222 1421 5030 1408 4768 1408 
L 3482 1408 
L 3482 2093 
L 5146 2093 
C 5421 2093 5638 2080 5850 2054 
L 5850 2560 
C 5645 2534 5440 2522 5146 2522 
L 1274 2522 
C 966 2522 762 2534 576 2560 
L 576 2054 
C 794 2086 966 2093 1280 2093 
L 3008 2093 
L 3008 166 
z
M 3085 4678 
C 2790 4416 2579 4262 2221 4058 
C 1651 3738 1146 3533 378 3322 
C 518 3174 576 3078 646 2912 
C 1658 3226 2246 3514 2963 4038 
C 2957 3885 2957 3885 2957 3744 
L 2957 3194 
C 2957 3021 2944 2854 2918 2688 
L 3462 2688 
C 3437 2854 3424 3008 3424 3200 
L 3424 4384 
C 3546 4474 3552 4480 3763 4678 
L 5235 4678 
C 5510 4678 5722 4666 5952 4640 
L 5952 5152 
C 5747 5126 5491 5114 5229 5114 
L 1152 5114 
C 896 5114 627 5126 429 5152 
L 429 4640 
C 659 4666 922 4678 1158 4678 
L 3085 4678 
z
M 3571 4077 
C 4294 3533 4858 3245 5779 2944 
C 5862 3123 5939 3238 6074 3379 
C 5146 3616 4595 3866 3936 4352 
L 3571 4077 
z
" transform="scale(0.015625)"/>
     <path id="HiraKakuProN-W4-3a" d="M 1165 3520 
L 442 3520 
L 442 2797 
L 1165 2797 
L 1165 3520 
z
M 1165 0 
L 1165 723 
L 442 723 
L 442 0 
L 1165 0 
z
" transform="scale(0.015625)"/>
     <path id="HiraKakuProN-W4-34" d="M 179 1210 
C 403 1229 589 1235 954 1235 
L 2688 1235 
L 2688 710 
C 2688 410 2675 218 2630 0 
L 3309 0 
C 3270 230 3258 390 3258 704 
L 3258 1235 
L 3494 1235 
C 3763 1235 3910 1222 4154 1190 
L 4154 1798 
C 3917 1766 3750 1754 3494 1754 
L 3258 1754 
L 3258 3853 
C 3258 4358 3264 4544 3296 4934 
L 2701 4934 
C 2560 4704 2445 4550 2214 4269 
L 621 2298 
C 467 2099 326 1939 179 1773 
L 179 1210 
z
M 2688 1747 
L 858 1747 
L 2259 3514 
C 2464 3763 2592 3936 2720 4128 
C 2694 3814 2688 3622 2688 3283 
L 2688 1747 
z
" transform="scale(0.015625)"/>
    </defs>
    <use xlink:href="#HiraKakuProN-W4-6b6a"/>
    <use xlink:href="#HiraKakuProN-W4-5ea6" x="99.999985"/>
    <use xlink:href="#HiraKakuProN-W4-3a" x="199.999969"/>
    <use xlink:href="#HiraKakuProN-W4-20" x="224.999954"/>
    <use xlink:href="#HiraKakuProN-W4-30" x="258.299942"/>
    <use xlink:href="#HiraKakuProN-W4-2e" x="325.59993"/>
    <use xlink:href="#HiraKakuProN-W4-34" x="350.599915"/>
    <use xlink:href="#HiraKakuProN-W4-37" x="418.099899"/>
   </g>
   <!-- 尖度: 0.56 -->
   <g transform="translate(243 75.6) scale(0.1 -0.1)">
    <defs>
     <path id="HiraKakuProN-W4-5c16" d="M 5229 1568 
C 5555 1568 5792 1555 5971 1536 
L 5971 2042 
C 5798 2016 5574 2003 5216 2003 
L 3334 2003 
C 3360 2118 3392 2317 3405 2374 
C 3430 2579 3430 2579 3450 2650 
L 2893 2662 
C 2899 2592 2906 2566 2906 2490 
C 2906 2330 2886 2195 2854 2003 
L 1158 2003 
C 787 2003 563 2016 403 2042 
L 403 1536 
C 576 1555 806 1568 1158 1568 
L 2726 1568 
C 2534 1082 2240 730 1811 474 
C 1408 224 992 102 288 0 
C 422 -134 518 -301 582 -474 
C 1414 -301 1914 -83 2374 294 
C 2739 602 2957 909 3162 1421 
C 3725 480 4550 -102 5824 -474 
C 5939 -230 5939 -230 6131 19 
C 4915 256 4090 762 3565 1568 
L 5229 1568 
z
M 2970 5318 
C 2995 5171 3008 5005 3008 4774 
L 3008 3386 
C 3008 3283 2950 3258 2752 3258 
C 2528 3258 2355 3270 2080 3309 
C 2157 3168 2189 3046 2214 2842 
C 2605 2829 2675 2829 2771 2829 
C 3334 2829 3488 2931 3488 3309 
L 3488 4781 
C 3488 4966 3501 5171 3526 5318 
L 2970 5318 
z
M 4224 4608 
C 4781 3763 5043 3475 5747 2912 
C 5914 3123 5965 3181 6112 3309 
C 5440 3757 5139 4070 4646 4832 
L 4224 4608 
z
M 1690 4819 
C 1325 4032 1056 3712 320 3162 
C 506 3040 576 2976 717 2803 
C 1434 3424 1683 3744 2125 4589 
L 1690 4819 
z
" transform="scale(0.015625)"/>
    </defs>
    <use xlink:href="#HiraKakuProN-W4-5c16"/>
    <use xlink:href="#HiraKakuProN-W4-5ea6" x="99.999985"/>
    <use xlink:href="#HiraKakuProN-W4-3a" x="199.999969"/>
    <use xlink:href="#HiraKakuProN-W4-20" x="224.999954"/>
    <use xlink:href="#HiraKakuProN-W4-30" x="258.299942"/>
    <use xlink:href="#HiraKakuProN-W4-2e" x="325.59993"/>
    <use xlink:href="#HiraKakuProN-W4-35" x="350.599915"/>
    <use xlink:href="#HiraKakuProN-W4-36" x="417.899902"/>
   </g>
  </g>
  <g id="text_20">
   <g id="patch_99">
    <path d="M 55.08 54.73 
L 120.38 54.73 
Q 123.38 54.73 123.38 51.73 
L 123.38 19.368125 
Q 123.38 16.368125 120.38 16.368125 
L 55.08 16.368125 
Q 52.08 16.368125 52.08 19.368125 
L 52.08 51.73 
Q 52.08 54.73 55.08 54.73 
z
" style="fill: #ffffff; stroke: #000000; stroke-linejoin: miter"/>
   </g>
   <!-- $\pm 1 \sigma$: 68.95% -->
   <g transform="translate(55.08 27.0775) scale(0.1 -0.1)">
    <defs>
     <path id="DejaVuSans-b1" d="M 2944 4013 
L 2944 2803 
L 4684 2803 
L 4684 2272 
L 2944 2272 
L 2944 1063 
L 2419 1063 
L 2419 2272 
L 678 2272 
L 678 2803 
L 2419 2803 
L 2419 4013 
L 2944 4013 
z
M 678 531 
L 4684 531 
L 4684 0 
L 678 0 
L 678 531 
z
" transform="scale(0.015625)"/>
     <path id="HiraKakuProN-W4-25" d="M 1408 2259 
C 1722 2259 1997 2362 2195 2560 
C 2432 2790 2554 3162 2554 3648 
C 2554 4518 2131 5024 1408 5024 
C 1094 5024 813 4915 621 4723 
C 384 4480 262 4115 262 3629 
C 262 3162 390 2784 621 2560 
C 813 2362 1094 2259 1408 2259 
z
M 1408 4595 
C 1818 4595 2054 4250 2054 3654 
C 2054 3027 1824 2682 1408 2682 
C 992 2682 762 3027 762 3654 
C 762 4250 998 4595 1408 4595 
z
M 762 96 
L 1043 -128 
L 4966 4851 
L 4678 5075 
L 762 96 
z
M 4314 -83 
C 4627 -83 4902 19 5101 218 
C 5338 448 5459 819 5459 1306 
C 5459 2176 5043 2682 4314 2682 
C 3590 2682 3168 2170 3168 1306 
C 3168 819 3290 442 3526 218 
C 3725 19 4000 -83 4314 -83 
z
M 4314 2253 
C 4723 2253 4960 1907 4960 1312 
C 4960 685 4730 339 4314 339 
C 3898 339 3667 685 3667 1312 
C 3667 1907 3904 2253 4314 2253 
z
" transform="scale(0.015625)"/>
    </defs>
    <use xlink:href="#DejaVuSans-b1" transform="translate(0 0.703125)"/>
    <use xlink:href="#DejaVuSans-31" transform="translate(83.789062 0.703125)"/>
    <use xlink:href="#DejaVuSans-Oblique-3c3" transform="translate(147.412109 0.703125)"/>
    <use xlink:href="#HiraKakuProN-W4-3a" transform="translate(210.791016 0.703125)"/>
    <use xlink:href="#HiraKakuProN-W4-20" transform="translate(235.791 0.703125)"/>
    <use xlink:href="#HiraKakuProN-W4-36" transform="translate(269.090988 0.703125)"/>
    <use xlink:href="#HiraKakuProN-W4-38" transform="translate(336.390976 0.703125)"/>
    <use xlink:href="#HiraKakuProN-W4-2e" transform="translate(403.690964 0.703125)"/>
    <use xlink:href="#HiraKakuProN-W4-39" transform="translate(428.690948 0.703125)"/>
    <use xlink:href="#HiraKakuProN-W4-35" transform="translate(495.990936 0.703125)"/>
    <use xlink:href="#HiraKakuProN-W4-25" transform="translate(563.290924 0.703125)"/>
   </g>
   <!-- $\pm 2 \sigma$: 95.31% -->
   <g transform="translate(55.08 38.37875) scale(0.1 -0.1)">
    <defs>
     <path id="HiraKakuProN-W4-33" d="M 282 1101 
C 397 768 474 621 621 448 
C 934 90 1434 -96 2112 -96 
C 2720 -96 3213 70 3533 384 
C 3770 614 3904 954 3904 1306 
C 3904 1677 3802 1958 3597 2182 
C 3379 2419 3130 2528 2688 2586 
C 2995 2650 3130 2701 3290 2816 
C 3578 3021 3738 3366 3738 3757 
C 3738 4538 3117 5043 2157 5043 
C 1594 5043 1146 4883 845 4576 
C 666 4390 582 4237 467 3891 
L 1107 3757 
C 1171 3981 1216 4083 1306 4192 
C 1478 4416 1741 4525 2125 4525 
C 2746 4525 3110 4224 3110 3725 
C 3110 3482 3021 3264 2867 3110 
C 2669 2918 2374 2829 1965 2829 
C 1779 2829 1613 2842 1459 2861 
L 1459 2272 
C 1651 2298 1811 2310 2003 2310 
C 2829 2310 3264 1990 3264 1376 
C 3264 794 2816 429 2106 429 
C 1779 429 1510 506 1293 666 
C 1107 800 1024 928 928 1248 
L 282 1101 
z
" transform="scale(0.015625)"/>
    </defs>
    <use xlink:href="#DejaVuSans-b1" transform="translate(0 0.703125)"/>
    <use xlink:href="#DejaVuSans-32" transform="translate(83.789062 0.703125)"/>
    <use xlink:href="#DejaVuSans-Oblique-3c3" transform="translate(147.412109 0.703125)"/>
    <use xlink:href="#HiraKakuProN-W4-3a" transform="translate(210.791016 0.703125)"/>
    <use xlink:href="#HiraKakuProN-W4-20" transform="translate(235.791 0.703125)"/>
    <use xlink:href="#HiraKakuProN-W4-39" transform="translate(269.090988 0.703125)"/>
    <use xlink:href="#HiraKakuProN-W4-35" transform="translate(336.390976 0.703125)"/>
    <use xlink:href="#HiraKakuProN-W4-2e" transform="translate(403.690964 0.703125)"/>
    <use xlink:href="#HiraKakuProN-W4-33" transform="translate(428.690948 0.703125)"/>
    <use xlink:href="#HiraKakuProN-W4-31" transform="translate(495.990936 0.703125)"/>
    <use xlink:href="#HiraKakuProN-W4-25" transform="translate(563.290924 0.703125)"/>
   </g>
   <!-- $\pm 3 \sigma$: 99.30% -->
   <g transform="translate(55.08 49.68) scale(0.1 -0.1)">
    <use xlink:href="#DejaVuSans-b1" transform="translate(0 0.703125)"/>
    <use xlink:href="#DejaVuSans-33" transform="translate(83.789062 0.703125)"/>
    <use xlink:href="#DejaVuSans-Oblique-3c3" transform="translate(147.412109 0.703125)"/>
    <use xlink:href="#HiraKakuProN-W4-3a" transform="translate(210.791016 0.703125)"/>
    <use xlink:href="#HiraKakuProN-W4-20" transform="translate(235.791 0.703125)"/>
    <use xlink:href="#HiraKakuProN-W4-39" transform="translate(269.090988 0.703125)"/>
    <use xlink:href="#HiraKakuProN-W4-39" transform="translate(336.390976 0.703125)"/>
    <use xlink:href="#HiraKakuProN-W4-2e" transform="translate(403.690964 0.703125)"/>
    <use xlink:href="#HiraKakuProN-W4-33" transform="translate(428.690948 0.703125)"/>
    <use xlink:href="#HiraKakuProN-W4-30" transform="translate(495.990936 0.703125)"/>
    <use xlink:href="#HiraKakuProN-W4-25" transform="translate(563.290924 0.703125)"/>
   </g>
  </g>
 </g>
 <defs>
  <clipPath id="pb84d349b40">
   <rect x="42.12" y="4.32" width="275.4" height="174.96"/>
  </clipPath>
 </defs>
</svg>
