<?xml version="1.0" encoding="utf-8" standalone="no"?>
<!DOCTYPE svg PUBLIC "-//W3C//DTD SVG 1.1//EN"
  "http://www.w3.org/Graphics/SVG/1.1/DTD/svg11.dtd">
<svg xmlns:xlink="http://www.w3.org/1999/xlink" width="324pt" height="216pt" viewBox="0 0 324 216" xmlns="http://www.w3.org/2000/svg" version="1.1">
 <metadata>
  <rdf:RDF xmlns:dc="http://purl.org/dc/elements/1.1/" xmlns:cc="http://creativecommons.org/ns#" xmlns:rdf="http://www.w3.org/1999/02/22-rdf-syntax-ns#">
   <cc:Work>
    <dc:type rdf:resource="http://purl.org/dc/dcmitype/StillImage"/>
    <dc:date>2024-08-30T20:32:50.613440</dc:date>
    <dc:format>image/svg+xml</dc:format>
    <dc:creator>
     <cc:Agent>
      <dc:title>Matplotlib v3.8.3, https://matplotlib.org/</dc:title>
     </cc:Agent>
    </dc:creator>
   </cc:Work>
  </rdf:RDF>
 </metadata>
 <defs>
  <style type="text/css">*{stroke-linejoin: round; stroke-linecap: butt}</style>
 </defs>
 <g id="figure_1">
  <g id="patch_1">
   <path d="M 0 216 
L 324 216 
L 324 0 
L 0 0 
z
" style="fill: #ffffff"/>
  </g>
  <g id="axes_1">
   <g id="patch_2">
    <path d="M 42.12 183.6 
L 317.52 183.6 
L 317.52 4.32 
L 42.12 4.32 
z
" style="fill: #ffffff"/>
   </g>
   <g id="patch_3">
    <path d="M 73.994616 183.6 
L 84.073224 183.6 
L 84.073224 182.501167 
L 73.994616 182.501167 
z
" clip-path="url(#pf9645798e9)" style="fill: #0000ff; opacity: 0.6"/>
   </g>
   <g id="patch_4">
    <path d="M 84.073224 183.6 
L 94.151832 183.6 
L 94.151832 179.204667 
L 84.073224 179.204667 
z
" clip-path="url(#pf9645798e9)" style="fill: #0000ff; opacity: 0.6"/>
   </g>
   <g id="patch_5">
    <path d="M 94.151832 183.6 
L 104.23044 183.6 
L 104.23044 172.611668 
L 94.151832 172.611668 
z
" clip-path="url(#pf9645798e9)" style="fill: #0000ff; opacity: 0.6"/>
   </g>
   <g id="patch_6">
    <path d="M 104.23044 183.6 
L 114.309048 183.6 
L 114.309048 161.623336 
L 104.23044 161.623336 
z
" clip-path="url(#pf9645798e9)" style="fill: #0000ff; opacity: 0.6"/>
   </g>
   <g id="patch_7">
    <path d="M 114.309048 183.6 
L 124.387656 183.6 
L 124.387656 145.140837 
L 114.309048 145.140837 
z
" clip-path="url(#pf9645798e9)" style="fill: #0000ff; opacity: 0.6"/>
   </g>
   <g id="patch_8">
    <path d="M 124.387656 183.6 
L 134.466264 183.6 
L 134.466264 122.06534 
L 124.387656 122.06534 
z
" clip-path="url(#pf9645798e9)" style="fill: #0000ff; opacity: 0.6"/>
   </g>
   <g id="patch_9">
    <path d="M 134.466264 183.6 
L 144.544872 183.6 
L 144.544872 95.693342 
L 134.466264 95.693342 
z
" clip-path="url(#pf9645798e9)" style="fill: #0000ff; opacity: 0.6"/>
   </g>
   <g id="patch_10">
    <path d="M 144.544872 183.6 
L 154.62348 183.6 
L 154.62348 69.321345 
L 144.544872 69.321345 
z
" clip-path="url(#pf9645798e9)" style="fill: #0000ff; opacity: 0.6"/>
   </g>
   <g id="patch_11">
    <path d="M 154.62348 183.6 
L 164.702088 183.6 
L 164.702088 46.245847 
L 154.62348 46.245847 
z
" clip-path="url(#pf9645798e9)" style="fill: #0000ff; opacity: 0.6"/>
   </g>
   <g id="patch_12">
    <path d="M 164.702088 183.6 
L 174.780696 183.6 
L 174.780696 29.763349 
L 164.702088 29.763349 
z
" clip-path="url(#pf9645798e9)" style="fill: #0000ff; opacity: 0.6"/>
   </g>
   <g id="patch_13">
    <path d="M 174.780696 183.6 
L 184.859304 183.6 
L 184.859304 23.17035 
L 174.780696 23.17035 
z
" clip-path="url(#pf9645798e9)" style="fill: #0000ff; opacity: 0.6"/>
   </g>
   <g id="patch_14">
    <path d="M 184.859304 183.6 
L 194.937912 183.6 
L 194.937912 29.763349 
L 184.859304 29.763349 
z
" clip-path="url(#pf9645798e9)" style="fill: #0000ff; opacity: 0.6"/>
   </g>
   <g id="patch_15">
    <path d="M 194.937912 183.6 
L 205.01652 183.6 
L 205.01652 46.245847 
L 194.937912 46.245847 
z
" clip-path="url(#pf9645798e9)" style="fill: #0000ff; opacity: 0.6"/>
   </g>
   <g id="patch_16">
    <path d="M 205.01652 183.6 
L 215.095128 183.6 
L 215.095128 69.321345 
L 205.01652 69.321345 
z
" clip-path="url(#pf9645798e9)" style="fill: #0000ff; opacity: 0.6"/>
   </g>
   <g id="patch_17">
    <path d="M 215.095128 183.6 
L 225.173736 183.6 
L 225.173736 95.693342 
L 215.095128 95.693342 
z
" clip-path="url(#pf9645798e9)" style="fill: #0000ff; opacity: 0.6"/>
   </g>
   <g id="patch_18">
    <path d="M 225.173736 183.6 
L 235.252344 183.6 
L 235.252344 122.06534 
L 225.173736 122.06534 
z
" clip-path="url(#pf9645798e9)" style="fill: #0000ff; opacity: 0.6"/>
   </g>
   <g id="patch_19">
    <path d="M 235.252344 183.6 
L 245.330952 183.6 
L 245.330952 145.140837 
L 235.252344 145.140837 
z
" clip-path="url(#pf9645798e9)" style="fill: #0000ff; opacity: 0.6"/>
   </g>
   <g id="patch_20">
    <path d="M 245.330952 183.6 
L 255.40956 183.6 
L 255.40956 161.623336 
L 245.330952 161.623336 
z
" clip-path="url(#pf9645798e9)" style="fill: #0000ff; opacity: 0.6"/>
   </g>
   <g id="patch_21">
    <path d="M 255.40956 183.6 
L 265.488168 183.6 
L 265.488168 172.611668 
L 255.40956 172.611668 
z
" clip-path="url(#pf9645798e9)" style="fill: #0000ff; opacity: 0.6"/>
   </g>
   <g id="patch_22">
    <path d="M 265.488168 183.6 
L 275.566776 183.6 
L 275.566776 179.204667 
L 265.488168 179.204667 
z
" clip-path="url(#pf9645798e9)" style="fill: #0000ff; opacity: 0.6"/>
   </g>
   <g id="patch_23">
    <path d="M 275.566776 183.6 
L 285.645384 183.6 
L 285.645384 182.501167 
L 275.566776 182.501167 
z
" clip-path="url(#pf9645798e9)" style="fill: #0000ff; opacity: 0.6"/>
   </g>
   <g id="matplotlib.axis_1">
    <g id="xtick_1">
     <g id="line2d_1">
      <path d="M 42.12 183.6 
L 42.12 4.32 
" clip-path="url(#pf9645798e9)" style="fill: none; stroke: #b0b0b0; stroke-width: 0.8; stroke-linecap: square"/>
     </g>
     <g id="line2d_2">
      <defs>
       <path id="m34dcf6a423" d="M 0 0 
L 0 3.5 
" style="stroke: #000000; stroke-width: 0.8"/>
      </defs>
      <g>
       <use xlink:href="#m34dcf6a423" x="42.12" y="183.6" style="stroke: #000000; stroke-width: 0.8"/>
      </g>
     </g>
     <g id="text_1">
      <!-- −4 -->
      <g transform="translate(34.748906 198.198438) scale(0.1 -0.1)">
       <defs>
        <path id="DejaVuSans-2212" d="M 678 2272 
L 4684 2272 
L 4684 1741 
L 678 1741 
L 678 2272 
z
" transform="scale(0.015625)"/>
        <path id="DejaVuSans-34" d="M 2419 4116 
L 825 1625 
L 2419 1625 
L 2419 4116 
z
M 2253 4666 
L 3047 4666 
L 3047 1625 
L 3713 1625 
L 3713 1100 
L 3047 1100 
L 3047 0 
L 2419 0 
L 2419 1100 
L 313 1100 
L 313 1709 
L 2253 4666 
z
" transform="scale(0.015625)"/>
       </defs>
       <use xlink:href="#DejaVuSans-2212"/>
       <use xlink:href="#DejaVuSans-34" x="83.789062"/>
      </g>
     </g>
    </g>
    <g id="xtick_2">
     <g id="line2d_3">
      <path d="M 76.545 183.6 
L 76.545 4.32 
" clip-path="url(#pf9645798e9)" style="fill: none; stroke: #b0b0b0; stroke-width: 0.8; stroke-linecap: square"/>
     </g>
     <g id="line2d_4">
      <g>
       <use xlink:href="#m34dcf6a423" x="76.545" y="183.6" style="stroke: #000000; stroke-width: 0.8"/>
      </g>
     </g>
     <g id="text_2">
      <!-- −3 -->
      <g transform="translate(69.173906 198.198438) scale(0.1 -0.1)">
       <defs>
        <path id="DejaVuSans-33" d="M 2597 2516 
Q 3050 2419 3304 2112 
Q 3559 1806 3559 1356 
Q 3559 666 3084 287 
Q 2609 -91 1734 -91 
Q 1441 -91 1130 -33 
Q 819 25 488 141 
L 488 750 
Q 750 597 1062 519 
Q 1375 441 1716 441 
Q 2309 441 2620 675 
Q 2931 909 2931 1356 
Q 2931 1769 2642 2001 
Q 2353 2234 1838 2234 
L 1294 2234 
L 1294 2753 
L 1863 2753 
Q 2328 2753 2575 2939 
Q 2822 3125 2822 3475 
Q 2822 3834 2567 4026 
Q 2313 4219 1838 4219 
Q 1578 4219 1281 4162 
Q 984 4106 628 3988 
L 628 4550 
Q 988 4650 1302 4700 
Q 1616 4750 1894 4750 
Q 2613 4750 3031 4423 
Q 3450 4097 3450 3541 
Q 3450 3153 3228 2886 
Q 3006 2619 2597 2516 
z
" transform="scale(0.015625)"/>
       </defs>
       <use xlink:href="#DejaVuSans-2212"/>
       <use xlink:href="#DejaVuSans-33" x="83.789062"/>
      </g>
     </g>
    </g>
    <g id="xtick_3">
     <g id="line2d_5">
      <path d="M 110.97 183.6 
L 110.97 4.32 
" clip-path="url(#pf9645798e9)" style="fill: none; stroke: #b0b0b0; stroke-width: 0.8; stroke-linecap: square"/>
     </g>
     <g id="line2d_6">
      <g>
       <use xlink:href="#m34dcf6a423" x="110.97" y="183.6" style="stroke: #000000; stroke-width: 0.8"/>
      </g>
     </g>
     <g id="text_3">
      <!-- −2 -->
      <g transform="translate(103.598906 198.198438) scale(0.1 -0.1)">
       <defs>
        <path id="DejaVuSans-32" d="M 1228 531 
L 3431 531 
L 3431 0 
L 469 0 
L 469 531 
Q 828 903 1448 1529 
Q 2069 2156 2228 2338 
Q 2531 2678 2651 2914 
Q 2772 3150 2772 3378 
Q 2772 3750 2511 3984 
Q 2250 4219 1831 4219 
Q 1534 4219 1204 4116 
Q 875 4013 500 3803 
L 500 4441 
Q 881 4594 1212 4672 
Q 1544 4750 1819 4750 
Q 2544 4750 2975 4387 
Q 3406 4025 3406 3419 
Q 3406 3131 3298 2873 
Q 3191 2616 2906 2266 
Q 2828 2175 2409 1742 
Q 1991 1309 1228 531 
z
" transform="scale(0.015625)"/>
       </defs>
       <use xlink:href="#DejaVuSans-2212"/>
       <use xlink:href="#DejaVuSans-32" x="83.789062"/>
      </g>
     </g>
    </g>
    <g id="xtick_4">
     <g id="line2d_7">
      <path d="M 145.395 183.6 
L 145.395 4.32 
" clip-path="url(#pf9645798e9)" style="fill: none; stroke: #b0b0b0; stroke-width: 0.8; stroke-linecap: square"/>
     </g>
     <g id="line2d_8">
      <g>
       <use xlink:href="#m34dcf6a423" x="145.395" y="183.6" style="stroke: #000000; stroke-width: 0.8"/>
      </g>
     </g>
     <g id="text_4">
      <!-- −1 -->
      <g transform="translate(138.023906 198.198438) scale(0.1 -0.1)">
       <defs>
        <path id="DejaVuSans-31" d="M 794 531 
L 1825 531 
L 1825 4091 
L 703 3866 
L 703 4441 
L 1819 4666 
L 2450 4666 
L 2450 531 
L 3481 531 
L 3481 0 
L 794 0 
L 794 531 
z
" transform="scale(0.015625)"/>
       </defs>
       <use xlink:href="#DejaVuSans-2212"/>
       <use xlink:href="#DejaVuSans-31" x="83.789062"/>
      </g>
     </g>
    </g>
    <g id="xtick_5">
     <g id="line2d_9">
      <path d="M 179.82 183.6 
L 179.82 4.32 
" clip-path="url(#pf9645798e9)" style="fill: none; stroke: #b0b0b0; stroke-width: 0.8; stroke-linecap: square"/>
     </g>
     <g id="line2d_10">
      <g>
       <use xlink:href="#m34dcf6a423" x="179.82" y="183.6" style="stroke: #000000; stroke-width: 0.8"/>
      </g>
     </g>
     <g id="text_5">
      <!-- 0 -->
      <g transform="translate(176.63875 198.198438) scale(0.1 -0.1)">
       <defs>
        <path id="DejaVuSans-30" d="M 2034 4250 
Q 1547 4250 1301 3770 
Q 1056 3291 1056 2328 
Q 1056 1369 1301 889 
Q 1547 409 2034 409 
Q 2525 409 2770 889 
Q 3016 1369 3016 2328 
Q 3016 3291 2770 3770 
Q 2525 4250 2034 4250 
z
M 2034 4750 
Q 2819 4750 3233 4129 
Q 3647 3509 3647 2328 
Q 3647 1150 3233 529 
Q 2819 -91 2034 -91 
Q 1250 -91 836 529 
Q 422 1150 422 2328 
Q 422 3509 836 4129 
Q 1250 4750 2034 4750 
z
" transform="scale(0.015625)"/>
       </defs>
       <use xlink:href="#DejaVuSans-30"/>
      </g>
     </g>
    </g>
    <g id="xtick_6">
     <g id="line2d_11">
      <path d="M 214.245 183.6 
L 214.245 4.32 
" clip-path="url(#pf9645798e9)" style="fill: none; stroke: #b0b0b0; stroke-width: 0.8; stroke-linecap: square"/>
     </g>
     <g id="line2d_12">
      <g>
       <use xlink:href="#m34dcf6a423" x="214.245" y="183.6" style="stroke: #000000; stroke-width: 0.8"/>
      </g>
     </g>
     <g id="text_6">
      <!-- 1 -->
      <g transform="translate(211.06375 198.198438) scale(0.1 -0.1)">
       <use xlink:href="#DejaVuSans-31"/>
      </g>
     </g>
    </g>
    <g id="xtick_7">
     <g id="line2d_13">
      <path d="M 248.67 183.6 
L 248.67 4.32 
" clip-path="url(#pf9645798e9)" style="fill: none; stroke: #b0b0b0; stroke-width: 0.8; stroke-linecap: square"/>
     </g>
     <g id="line2d_14">
      <g>
       <use xlink:href="#m34dcf6a423" x="248.67" y="183.6" style="stroke: #000000; stroke-width: 0.8"/>
      </g>
     </g>
     <g id="text_7">
      <!-- 2 -->
      <g transform="translate(245.48875 198.198438) scale(0.1 -0.1)">
       <use xlink:href="#DejaVuSans-32"/>
      </g>
     </g>
    </g>
    <g id="xtick_8">
     <g id="line2d_15">
      <path d="M 283.095 183.6 
L 283.095 4.32 
" clip-path="url(#pf9645798e9)" style="fill: none; stroke: #b0b0b0; stroke-width: 0.8; stroke-linecap: square"/>
     </g>
     <g id="line2d_16">
      <g>
       <use xlink:href="#m34dcf6a423" x="283.095" y="183.6" style="stroke: #000000; stroke-width: 0.8"/>
      </g>
     </g>
     <g id="text_8">
      <!-- 3 -->
      <g transform="translate(279.91375 198.198438) scale(0.1 -0.1)">
       <use xlink:href="#DejaVuSans-33"/>
      </g>
     </g>
    </g>
    <g id="xtick_9">
     <g id="line2d_17">
      <path d="M 317.52 183.6 
L 317.52 4.32 
" clip-path="url(#pf9645798e9)" style="fill: none; stroke: #b0b0b0; stroke-width: 0.8; stroke-linecap: square"/>
     </g>
     <g id="line2d_18">
      <g>
       <use xlink:href="#m34dcf6a423" x="317.52" y="183.6" style="stroke: #000000; stroke-width: 0.8"/>
      </g>
     </g>
     <g id="text_9">
      <!-- 4 -->
      <g transform="translate(314.33875 198.198438) scale(0.1 -0.1)">
       <use xlink:href="#DejaVuSans-34"/>
      </g>
     </g>
    </g>
    <g id="text_10">
     <!-- $Z_n$ -->
     <g transform="translate(174.02 211.876563) scale(0.1 -0.1)">
      <defs>
       <path id="DejaVuSans-Oblique-5a" d="M 838 4666 
L 4500 4666 
L 4409 4184 
L 794 531 
L 3769 531 
L 3669 0 
L -141 0 
L -50 481 
L 3566 4134 
L 738 4134 
L 838 4666 
z
" transform="scale(0.015625)"/>
       <path id="DejaVuSans-Oblique-6e" d="M 3566 2113 
L 3156 0 
L 2578 0 
L 2988 2091 
Q 3016 2238 3031 2350 
Q 3047 2463 3047 2528 
Q 3047 2791 2881 2937 
Q 2716 3084 2419 3084 
Q 1956 3084 1622 2776 
Q 1288 2469 1184 1941 
L 800 0 
L 225 0 
L 903 3500 
L 1478 3500 
L 1363 2950 
Q 1603 3253 1940 3418 
Q 2278 3584 2650 3584 
Q 3113 3584 3367 3334 
Q 3622 3084 3622 2631 
Q 3622 2519 3608 2391 
Q 3594 2263 3566 2113 
z
" transform="scale(0.015625)"/>
      </defs>
      <use xlink:href="#DejaVuSans-Oblique-5a" transform="translate(0 0.09375)"/>
      <use xlink:href="#DejaVuSans-Oblique-6e" transform="translate(68.505859 -16.3125) scale(0.7)"/>
     </g>
    </g>
   </g>
   <g id="matplotlib.axis_2">
    <g id="ytick_1">
     <g id="line2d_19">
      <path d="M 42.12 183.6 
L 317.52 183.6 
" clip-path="url(#pf9645798e9)" style="fill: none; stroke: #b0b0b0; stroke-width: 0.8; stroke-linecap: square"/>
     </g>
     <g id="line2d_20">
      <defs>
       <path id="m8417027ad1" d="M 0 0 
L -3.5 0 
" style="stroke: #000000; stroke-width: 0.8"/>
      </defs>
      <g>
       <use xlink:href="#m8417027ad1" x="42.12" y="183.6" style="stroke: #000000; stroke-width: 0.8"/>
      </g>
     </g>
     <g id="text_11">
      <!-- 0.0 -->
      <g transform="translate(19.216875 187.399219) scale(0.1 -0.1)">
       <defs>
        <path id="DejaVuSans-2e" d="M 684 794 
L 1344 794 
L 1344 0 
L 684 0 
L 684 794 
z
" transform="scale(0.015625)"/>
       </defs>
       <use xlink:href="#DejaVuSans-30"/>
       <use xlink:href="#DejaVuSans-2e" x="63.623047"/>
       <use xlink:href="#DejaVuSans-30" x="95.410156"/>
      </g>
     </g>
    </g>
    <g id="ytick_2">
     <g id="line2d_21">
      <path d="M 42.12 141.906977 
L 317.52 141.906977 
" clip-path="url(#pf9645798e9)" style="fill: none; stroke: #b0b0b0; stroke-width: 0.8; stroke-linecap: square"/>
     </g>
     <g id="line2d_22">
      <g>
       <use xlink:href="#m8417027ad1" x="42.12" y="141.906977" style="stroke: #000000; stroke-width: 0.8"/>
      </g>
     </g>
     <g id="text_12">
      <!-- 0.1 -->
      <g transform="translate(19.216875 145.706195) scale(0.1 -0.1)">
       <use xlink:href="#DejaVuSans-30"/>
       <use xlink:href="#DejaVuSans-2e" x="63.623047"/>
       <use xlink:href="#DejaVuSans-31" x="95.410156"/>
      </g>
     </g>
    </g>
    <g id="ytick_3">
     <g id="line2d_23">
      <path d="M 42.12 100.213953 
L 317.52 100.213953 
" clip-path="url(#pf9645798e9)" style="fill: none; stroke: #b0b0b0; stroke-width: 0.8; stroke-linecap: square"/>
     </g>
     <g id="line2d_24">
      <g>
       <use xlink:href="#m8417027ad1" x="42.12" y="100.213953" style="stroke: #000000; stroke-width: 0.8"/>
      </g>
     </g>
     <g id="text_13">
      <!-- 0.2 -->
      <g transform="translate(19.216875 104.013172) scale(0.1 -0.1)">
       <use xlink:href="#DejaVuSans-30"/>
       <use xlink:href="#DejaVuSans-2e" x="63.623047"/>
       <use xlink:href="#DejaVuSans-32" x="95.410156"/>
      </g>
     </g>
    </g>
    <g id="ytick_4">
     <g id="line2d_25">
      <path d="M 42.12 58.52093 
L 317.52 58.52093 
" clip-path="url(#pf9645798e9)" style="fill: none; stroke: #b0b0b0; stroke-width: 0.8; stroke-linecap: square"/>
     </g>
     <g id="line2d_26">
      <g>
       <use xlink:href="#m8417027ad1" x="42.12" y="58.52093" style="stroke: #000000; stroke-width: 0.8"/>
      </g>
     </g>
     <g id="text_14">
      <!-- 0.3 -->
      <g transform="translate(19.216875 62.320149) scale(0.1 -0.1)">
       <use xlink:href="#DejaVuSans-30"/>
       <use xlink:href="#DejaVuSans-2e" x="63.623047"/>
       <use xlink:href="#DejaVuSans-33" x="95.410156"/>
      </g>
     </g>
    </g>
    <g id="ytick_5">
     <g id="line2d_27">
      <path d="M 42.12 16.827907 
L 317.52 16.827907 
" clip-path="url(#pf9645798e9)" style="fill: none; stroke: #b0b0b0; stroke-width: 0.8; stroke-linecap: square"/>
     </g>
     <g id="line2d_28">
      <g>
       <use xlink:href="#m8417027ad1" x="42.12" y="16.827907" style="stroke: #000000; stroke-width: 0.8"/>
      </g>
     </g>
     <g id="text_15">
      <!-- 0.4 -->
      <g transform="translate(19.216875 20.627126) scale(0.1 -0.1)">
       <use xlink:href="#DejaVuSans-30"/>
       <use xlink:href="#DejaVuSans-2e" x="63.623047"/>
       <use xlink:href="#DejaVuSans-34" x="95.410156"/>
      </g>
     </g>
    </g>
    <g id="text_16">
     <!-- 確率密度 -->
     <g transform="translate(13.166875 113.96) rotate(-90) scale(0.1 -0.1)">
      <defs>
       <path id="HiraKakuProN-W4-78ba" d="M 2234 2355 
C 2342 2234 2419 2125 2496 1958 
C 2682 2150 2784 2278 2886 2438 
C 2880 2400 2874 2208 2867 1856 
L 2867 160 
C 2867 -154 2854 -320 2822 -518 
L 3302 -518 
L 3302 -211 
L 5402 -211 
C 5619 -211 5792 -224 6010 -250 
L 6010 230 
C 5830 205 5690 198 5402 198 
L 4659 198 
L 4659 870 
L 5229 870 
C 5440 870 5568 864 5786 838 
L 5786 1293 
C 5619 1267 5491 1261 5216 1261 
L 4659 1261 
L 4659 1888 
L 5229 1888 
C 5434 1888 5581 1882 5786 1856 
L 5786 2310 
C 5632 2285 5498 2278 5216 2278 
L 4659 2278 
L 4659 2912 
L 5325 2912 
C 5517 2912 5664 2906 5875 2886 
L 5875 3341 
C 5702 3315 5587 3309 5312 3309 
L 4774 3309 
C 4845 3437 4915 3603 4992 3808 
C 5005 3834 5018 3872 5037 3923 
L 4582 4026 
C 4525 3776 4435 3539 4320 3309 
L 3533 3309 
C 3757 3674 3872 3898 4026 4275 
L 5562 4275 
L 5562 3597 
L 6048 3597 
C 6029 3718 6022 3814 6022 3968 
L 6022 4301 
C 6022 4499 6029 4621 6042 4736 
C 5862 4710 5677 4704 5421 4704 
L 4179 4704 
C 4211 4794 4275 4998 4378 5318 
L 3878 5395 
C 3840 5165 3789 4960 3712 4704 
L 3002 4704 
C 2650 4704 2592 4704 2470 4723 
C 2477 4576 2483 4467 2483 4397 
L 2483 3968 
C 2483 3814 2477 3686 2458 3578 
L 2918 3578 
L 2918 4275 
L 3558 4275 
C 3373 3821 3226 3558 2963 3187 
C 2720 2835 2573 2669 2234 2368 
L 2234 2598 
C 2234 2816 2240 2957 2253 3104 
C 2131 3085 2022 3078 1862 3078 
L 1178 3078 
C 1389 3674 1485 4045 1587 4653 
L 1926 4653 
C 2099 4653 2189 4646 2368 4627 
L 2368 5120 
C 2182 5088 2042 5082 1805 5082 
L 966 5082 
C 723 5082 550 5094 378 5120 
L 378 4614 
C 557 4646 685 4653 928 4653 
L 1126 4653 
C 1062 4198 1005 3930 896 3571 
C 698 2950 474 2515 128 2080 
C 237 1926 269 1869 371 1613 
C 531 1830 627 1997 781 2342 
C 762 2138 749 1805 749 1709 
L 749 282 
C 749 13 736 -166 710 -339 
L 1190 -339 
L 1190 307 
L 1811 307 
L 1811 -45 
L 2253 -45 
C 2240 102 2234 230 2234 480 
L 2234 2355 
z
M 3302 2278 
L 3302 2912 
L 4237 2912 
L 4237 2278 
L 3302 2278 
z
M 3302 1888 
L 4237 1888 
L 4237 1261 
L 3302 1261 
L 3302 1888 
z
M 3302 870 
L 4237 870 
L 4237 198 
L 3302 198 
L 3302 870 
z
M 1190 2656 
L 1811 2656 
L 1811 736 
L 1190 736 
L 1190 2656 
z
" transform="scale(0.015625)"/>
       <path id="HiraKakuProN-W4-7387" d="M 2074 2310 
C 2035 2304 2003 2304 1997 2304 
C 1894 2304 1728 2310 1645 2323 
L 1722 1862 
C 1798 1875 1888 1888 2061 1901 
C 3078 1984 3469 2029 4109 2144 
C 4198 2003 4230 1939 4333 1734 
L 4742 1926 
C 4371 2490 4250 2643 3872 3053 
L 3526 2886 
C 3718 2688 3776 2618 3898 2458 
C 3680 2426 3680 2426 2739 2342 
C 2925 2502 2925 2502 3315 2893 
L 3398 2970 
C 3814 3398 3872 3462 4147 3827 
L 3782 4083 
C 3520 3693 3398 3539 3091 3200 
C 2963 3341 2906 3405 2720 3571 
C 2970 3866 3117 4077 3302 4403 
L 5427 4403 
C 5696 4403 5888 4397 6074 4371 
L 6074 4883 
C 5882 4858 5677 4845 5376 4845 
L 3398 4845 
L 3398 4960 
C 3398 5126 3411 5235 3437 5382 
L 2886 5382 
C 2906 5248 2918 5114 2918 4960 
L 2918 4845 
L 1082 4845 
C 787 4845 589 4858 390 4883 
L 390 4371 
C 576 4397 774 4403 1030 4403 
L 2810 4403 
C 2714 4205 2592 4026 2432 3827 
C 2342 3904 2291 3942 2150 4045 
L 1856 3738 
C 2253 3456 2534 3206 2803 2899 
C 2573 2669 2458 2560 2170 2310 
L 2074 2310 
z
M 3379 928 
L 5402 928 
C 5683 928 5901 915 6093 890 
L 6093 1414 
C 5920 1389 5690 1370 5453 1370 
L 3379 1370 
L 3379 1453 
C 3379 1632 3386 1747 3405 1856 
L 2867 1856 
C 2886 1754 2893 1619 2893 1459 
L 2893 1370 
L 966 1370 
C 723 1370 474 1389 314 1414 
L 314 890 
C 538 915 730 928 998 928 
L 2893 928 
L 2893 32 
C 2893 -179 2880 -352 2848 -544 
L 3424 -544 
C 3392 -358 3379 -192 3379 32 
L 3379 928 
z
M 595 3898 
C 986 3597 1146 3443 1485 3040 
L 1837 3366 
C 1536 3693 1312 3891 941 4186 
L 595 3898 
z
M 563 1722 
C 678 1786 698 1792 787 1843 
C 954 1920 992 1946 1146 2029 
C 1478 2221 1651 2336 2035 2624 
L 1830 2995 
C 1350 2611 845 2336 352 2195 
L 563 1722 
z
M 5299 4205 
C 4973 3827 4717 3610 4275 3315 
L 4589 2995 
C 5024 3302 5312 3552 5658 3910 
L 5299 4205 
z
M 4499 2643 
C 4986 2323 5280 2080 5651 1690 
L 5978 2067 
C 5536 2451 5312 2618 4787 2944 
L 4499 2643 
z
" transform="scale(0.015625)"/>
       <path id="HiraKakuProN-W4-5bc6" d="M 4346 4173 
C 3942 3590 3258 3014 2451 2573 
L 2451 3405 
C 2451 3603 2458 3712 2477 3859 
L 1978 3859 
C 2003 3699 2010 3590 2010 3392 
L 2010 2349 
C 1478 2112 966 1933 333 1773 
C 435 1632 454 1600 563 1338 
C 1197 1549 1606 1709 2106 1939 
C 2246 1837 2496 1805 3200 1805 
C 4762 1805 4800 1824 4890 2803 
C 4742 2835 4589 2893 4454 2957 
C 4442 2618 4403 2432 4346 2349 
C 4269 2240 4038 2208 3405 2208 
C 3021 2208 2880 2208 2656 2221 
C 3066 2458 3405 2682 3674 2893 
C 3872 3046 4378 3501 4614 3744 
L 4762 3891 
L 4346 4173 
z
M 2925 4774 
L 1171 4774 
C 909 4774 762 4781 518 4806 
C 538 4659 544 4550 544 4378 
L 544 4032 
C 544 3814 538 3706 512 3565 
L 1005 3565 
L 1005 4346 
L 5427 4346 
L 5427 3546 
L 5920 3546 
C 5901 3680 5894 3795 5894 4000 
L 5894 4371 
C 5894 4563 5901 4672 5920 4806 
C 5696 4781 5536 4774 5267 4774 
L 3418 4774 
L 3418 4947 
C 3418 5107 3424 5229 3456 5376 
L 2880 5376 
C 2912 5229 2925 5101 2925 4947 
L 2925 4774 
z
M 2957 307 
L 1498 307 
L 1498 819 
C 1498 1030 1504 1165 1523 1274 
L 986 1274 
C 1011 1146 1024 1018 1024 806 
L 1024 179 
C 1024 -70 1011 -256 986 -435 
L 1498 -435 
L 1498 -128 
L 4941 -128 
L 4941 -448 
L 5459 -448 
C 5427 -269 5421 -90 5421 166 
L 5421 819 
C 5421 1043 5427 1184 5453 1338 
L 4909 1338 
C 4928 1197 4941 1069 4941 851 
L 4941 307 
L 3443 307 
L 3443 1088 
C 3443 1357 3450 1498 3475 1632 
L 2925 1632 
C 2944 1485 2957 1350 2957 1094 
L 2957 307 
z
M 3661 3744 
C 3347 3994 3117 4147 2810 4320 
L 2496 4051 
C 2797 3885 3021 3712 3328 3411 
L 3661 3744 
z
M 851 2298 
C 1318 2746 1517 3002 1760 3469 
L 1389 3699 
C 1178 3264 960 2995 512 2618 
L 851 2298 
z
M 6010 2477 
C 5651 3008 5510 3181 5075 3610 
L 4710 3366 
C 5107 2976 5318 2701 5613 2182 
L 6010 2477 
z
" transform="scale(0.015625)"/>
       <path id="HiraKakuProN-W4-5ea6" d="M 2400 3379 
L 2400 2752 
C 2400 2624 2394 2483 2381 2362 
C 2464 2374 2579 2374 2835 2374 
L 4365 2374 
C 4602 2374 4672 2374 4774 2362 
C 4762 2477 4755 2605 4755 2752 
L 4755 3379 
L 5478 3379 
C 5760 3379 5920 3373 6061 3347 
L 6061 3821 
C 5901 3795 5760 3789 5485 3789 
L 4755 3789 
L 4755 3859 
C 4755 4026 4762 4141 4781 4256 
L 4262 4256 
C 4282 4141 4288 4013 4288 3866 
L 4288 3789 
L 2867 3789 
L 2867 3878 
C 2867 4006 2874 4115 2893 4256 
L 2374 4256 
C 2394 4147 2400 4032 2400 3872 
L 2400 3789 
L 1312 3789 
L 1312 4403 
L 5376 4403 
C 5677 4403 5837 4397 6048 4378 
L 6048 4864 
C 5875 4838 5677 4826 5325 4826 
L 3622 4826 
L 3622 4998 
C 3622 5171 3629 5280 3654 5402 
L 3098 5402 
C 3123 5274 3136 5152 3136 4998 
L 3136 4826 
L 1478 4826 
C 1222 4826 1011 4838 800 4858 
C 819 4672 826 4480 826 4051 
C 826 1670 698 845 198 -26 
C 358 -147 454 -237 595 -416 
C 1120 538 1267 1318 1306 3379 
L 2400 3379 
z
M 2867 3379 
L 4288 3379 
L 4288 2765 
L 2867 2765 
L 2867 3379 
z
M 5030 1933 
C 4896 1920 4787 1914 4570 1914 
L 2272 1914 
C 1939 1914 1766 1920 1613 1946 
L 1613 1491 
C 1766 1517 1907 1523 2195 1523 
C 2522 1056 2771 800 3187 493 
C 2598 224 1997 77 1126 -19 
C 1235 -218 1280 -320 1318 -493 
C 2291 -333 2931 -134 3610 224 
C 4256 -141 4902 -339 5882 -474 
C 5939 -275 6003 -128 6099 32 
C 5338 77 4653 230 4058 499 
C 4429 749 4774 1056 5069 1395 
C 5190 1536 5235 1587 5299 1651 
L 5030 1933 
z
M 4582 1523 
C 4230 1152 4013 973 3622 723 
C 3206 986 2957 1210 2733 1523 
L 4582 1523 
z
" transform="scale(0.015625)"/>
      </defs>
      <use xlink:href="#HiraKakuProN-W4-78ba"/>
      <use xlink:href="#HiraKakuProN-W4-7387" x="99.999985"/>
      <use xlink:href="#HiraKakuProN-W4-5bc6" x="199.999969"/>
      <use xlink:href="#HiraKakuProN-W4-5ea6" x="299.999954"/>
     </g>
    </g>
   </g>
   <g id="line2d_29">
    <path d="M 42.12 183.544202 
L 55.903784 183.344512 
L 64.174054 183.01061 
L 70.238919 182.551194 
L 75.201081 181.957694 
L 79.336216 181.251125 
L 83.195676 180.362187 
L 86.503784 179.379287 
L 89.536216 178.261709 
L 92.568649 176.900401 
L 95.325405 175.41906 
L 98.082162 173.67404 
L 100.563243 171.852007 
L 103.044324 169.767555 
L 105.525405 167.397638 
L 108.006486 164.720007 
L 110.487568 161.713847 
L 112.968649 158.360478 
L 115.44973 154.644108 
L 117.930811 150.552633 
L 120.687568 145.557525 
L 123.444324 140.087343 
L 126.476757 133.529678 
L 129.509189 126.429069 
L 132.817297 118.111859 
L 136.676757 107.757524 
L 141.363243 94.478105 
L 154.871351 55.684818 
L 158.179459 47.090612 
L 160.936216 40.5023 
L 163.417297 35.117746 
L 165.622703 30.82926 
L 167.552432 27.501778 
L 169.482162 24.602221 
L 171.136216 22.477529 
L 172.79027 20.700949 
L 174.444324 19.28456 
L 175.822703 18.386448 
L 177.201081 17.749533 
L 178.579459 17.376866 
L 179.957838 17.270236 
L 181.336216 17.430155 
L 182.714595 17.855856 
L 184.092973 18.545294 
L 185.471351 19.49517 
L 186.84973 20.700949 
L 188.503784 22.477529 
L 190.157838 24.602221 
L 192.087568 27.501778 
L 194.017297 30.82926 
L 196.222703 35.117746 
L 198.703784 40.5023 
L 201.460541 47.090612 
L 204.492973 54.944416 
L 208.352432 65.621577 
L 214.141622 82.412133 
L 221.860541 104.691439 
L 225.995676 115.947651 
L 229.579459 125.082603 
L 232.887568 132.906119 
L 235.92 139.514365 
L 238.676757 145.031853 
L 241.433514 150.074491 
L 244.19027 154.644108 
L 246.947027 158.75074 
L 249.428108 162.064692 
L 251.909189 165.03338 
L 254.39027 167.675761 
L 256.871351 170.012841 
L 259.352432 172.066988 
L 262.109189 174.045643 
L 264.865946 175.735427 
L 267.622703 177.167738 
L 270.655135 178.48195 
L 273.687568 179.559126 
L 276.995676 180.504913 
L 280.579459 181.305466 
L 284.714595 181.997231 
L 289.401081 182.551194 
L 294.914595 182.97811 
L 302.082162 183.296623 
L 312.006486 183.495462 
L 317.52 183.544202 
L 317.52 183.544202 
" clip-path="url(#pf9645798e9)" style="fill: none; stroke-dasharray: 7.4,3.2; stroke-dashoffset: 0; stroke: #ff0000; stroke-opacity: 0.6; stroke-width: 2"/>
   </g>
   <g id="patch_24">
    <path d="M 42.12 183.6 
L 42.12 4.32 
" style="fill: none; stroke: #000000; stroke-width: 0.8; stroke-linejoin: miter; stroke-linecap: square"/>
   </g>
   <g id="patch_25">
    <path d="M 317.52 183.6 
L 317.52 4.32 
" style="fill: none; stroke: #000000; stroke-width: 0.8; stroke-linejoin: miter; stroke-linecap: square"/>
   </g>
   <g id="patch_26">
    <path d="M 42.12 183.6 
L 317.52 183.6 
" style="fill: none; stroke: #000000; stroke-width: 0.8; stroke-linejoin: miter; stroke-linecap: square"/>
   </g>
   <g id="patch_27">
    <path d="M 42.12 4.32 
L 317.52 4.32 
" style="fill: none; stroke: #000000; stroke-width: 0.8; stroke-linejoin: miter; stroke-linecap: square"/>
   </g>
   <g id="legend_1">
    <g id="patch_28">
     <path d="M 208.52 53.475625 
L 310.52 53.475625 
Q 312.52 53.475625 312.52 51.475625 
L 312.52 11.32 
Q 312.52 9.32 310.52 9.32 
L 208.52 9.32 
Q 206.52 9.32 206.52 11.32 
L 206.52 51.475625 
Q 206.52 53.475625 208.52 53.475625 
z
" style="fill: #ffffff; opacity: 0.8; stroke: #cccccc; stroke-linejoin: miter"/>
    </g>
    <g id="line2d_30">
     <path d="M 210.52 17.529375 
L 220.52 17.529375 
L 230.52 17.529375 
" style="fill: none; stroke-dasharray: 7.4,3.2; stroke-dashoffset: 0; stroke: #ff0000; stroke-opacity: 0.6; stroke-width: 2"/>
    </g>
    <g id="text_17">
     <!-- 標準正規分布 -->
     <g transform="translate(238.52 21.029375) scale(0.1 -0.1)">
      <defs>
       <path id="HiraKakuProN-W4-6a19" d="M 4755 4230 
L 4755 4672 
L 5402 4672 
C 5690 4672 5914 4659 6074 4640 
L 6074 5120 
C 5888 5094 5664 5082 5376 5082 
L 2739 5082 
C 2458 5082 2246 5094 2061 5120 
L 2061 4634 
C 2227 4659 2458 4672 2746 4672 
L 3322 4672 
L 3322 4230 
L 2829 4230 
C 2566 4230 2394 4237 2246 4262 
C 2266 4134 2272 3994 2272 3808 
L 2272 3283 
C 2272 3085 2266 2957 2246 2810 
C 2426 2829 2592 2835 2848 2835 
L 5267 2835 
C 5530 2835 5683 2829 5862 2810 
C 5843 2957 5837 3078 5837 3309 
L 5837 3814 
C 5837 4032 5843 4134 5862 4262 
C 5696 4237 5510 4230 5274 4230 
L 4755 4230 
z
M 4352 4230 
L 3725 4230 
L 3725 4672 
L 4352 4672 
L 4352 4230 
z
M 3322 3859 
L 3322 3206 
L 2675 3206 
L 2675 3859 
L 3322 3859 
z
M 3725 3859 
L 4352 3859 
L 4352 3206 
L 3725 3206 
L 3725 3859 
z
M 4755 3859 
L 5427 3859 
L 5427 3206 
L 4755 3206 
L 4755 3859 
z
M 1037 4122 
L 736 4122 
C 531 4122 403 4128 294 4147 
L 294 3674 
C 410 3693 544 3699 736 3699 
L 979 3699 
C 806 2848 512 2099 147 1574 
C 256 1440 326 1312 410 1114 
C 691 1549 902 2118 1088 2925 
C 1056 2464 1037 2112 1037 1882 
L 1037 243 
C 1037 -90 1024 -320 998 -512 
L 1530 -512 
C 1504 -333 1491 -96 1491 243 
L 1491 2118 
C 1491 2362 1485 2560 1472 3098 
C 1626 2694 1722 2502 1946 2144 
C 2035 2323 2080 2394 2182 2541 
C 1875 2906 1651 3283 1510 3699 
L 1664 3699 
C 1811 3699 1933 3693 2061 3680 
L 2061 4147 
C 1946 4128 1843 4122 1658 4122 
L 1491 4122 
L 1491 4704 
C 1491 5005 1498 5190 1523 5363 
L 998 5363 
C 1024 5222 1037 5056 1037 4698 
L 1037 4122 
z
M 4262 1235 
L 5472 1235 
C 5741 1235 5914 1229 6086 1203 
L 6086 1677 
C 5907 1651 5722 1645 5466 1645 
L 2675 1645 
C 2394 1645 2221 1658 2042 1683 
L 2042 1203 
C 2214 1229 2406 1235 2682 1235 
L 3802 1235 
L 3802 141 
C 3802 32 3770 13 3584 13 
C 3450 13 3283 32 3072 70 
C 3130 -102 3149 -230 3155 -397 
C 3386 -410 3488 -416 3603 -416 
C 3904 -416 4045 -390 4134 -326 
C 4224 -262 4262 -147 4262 32 
L 4262 1235 
z
M 2413 2022 
C 2586 2048 2752 2054 3027 2054 
L 5069 2054 
C 5350 2054 5485 2048 5664 2022 
L 5664 2490 
C 5472 2464 5299 2458 5037 2458 
L 3040 2458 
C 2771 2458 2592 2470 2413 2490 
L 2413 2022 
z
M 4723 845 
C 5088 339 5389 64 5882 -243 
C 5990 -90 6093 26 6208 128 
C 5882 307 5722 416 5485 627 
C 5318 768 5248 851 5088 1056 
L 4723 845 
z
M 2848 1082 
C 2688 800 2598 678 2406 486 
C 2214 294 2086 198 1798 38 
C 1990 -90 2042 -134 2170 -275 
C 2656 70 2906 346 3251 896 
L 2848 1082 
z
" transform="scale(0.015625)"/>
       <path id="HiraKakuProN-W4-6e96" d="M 4467 3802 
L 4467 4250 
L 5395 4250 
C 5619 4250 5792 4243 5965 4218 
L 5965 4678 
C 5786 4659 5574 4646 5344 4646 
L 4525 4646 
C 4659 4819 4717 4922 4896 5216 
L 4442 5357 
C 4339 5088 4243 4915 4051 4646 
L 3059 4646 
C 3117 4736 3117 4736 3245 4941 
C 3277 4986 3290 5011 3424 5248 
L 2950 5402 
C 2675 4710 2259 4166 1651 3686 
C 1798 3565 1882 3469 1958 3322 
C 2182 3526 2214 3565 2426 3834 
C 2400 3552 2400 3475 2400 3187 
L 2400 2195 
C 2400 1965 2394 1869 2374 1670 
C 2534 1690 2701 1696 2899 1696 
L 5446 1696 
C 5709 1696 5914 1683 6074 1664 
L 6074 2131 
C 5875 2106 5722 2099 5459 2099 
L 4467 2099 
L 4467 2598 
L 5190 2598 
C 5472 2598 5632 2592 5786 2573 
L 5786 3002 
C 5645 2982 5491 2976 5190 2976 
L 4467 2976 
L 4467 3424 
L 5190 3424 
C 5478 3424 5626 3418 5786 3398 
L 5786 3827 
C 5658 3808 5504 3802 5190 3802 
L 4467 3802 
z
M 2854 3802 
L 2854 4250 
L 4026 4250 
L 4026 3802 
L 2854 3802 
z
M 2854 3424 
L 4026 3424 
L 4026 2976 
L 2854 2976 
L 2854 3424 
z
M 2854 2598 
L 4026 2598 
L 4026 2099 
L 2854 2099 
L 2854 2598 
z
M 3411 666 
L 5382 666 
C 5690 666 5875 653 6074 627 
L 6074 1152 
C 5875 1120 5722 1114 5414 1114 
L 3411 1114 
C 3411 1318 3418 1427 3437 1536 
L 2899 1536 
C 2918 1414 2925 1299 2925 1114 
L 1005 1114 
C 717 1114 538 1126 365 1152 
L 365 627 
C 557 653 755 666 1056 666 
L 2925 666 
L 2925 141 
C 2925 -128 2912 -307 2880 -550 
L 3456 -550 
C 3424 -333 3411 -134 3411 147 
L 3411 666 
z
M 685 4973 
C 1107 4755 1331 4589 1690 4237 
L 1997 4627 
C 1645 4934 1453 5069 998 5325 
L 685 4973 
z
M 346 3750 
C 762 3546 1011 3386 1389 3072 
L 1683 3475 
C 1325 3744 1088 3891 659 4109 
L 346 3750 
z
M 1830 3021 
C 1389 2528 794 2054 378 1856 
L 685 1414 
C 1350 1914 1645 2170 2067 2624 
L 1830 3021 
z
" transform="scale(0.015625)"/>
       <path id="HiraKakuProN-W4-6b63" d="M 3130 307 
L 1907 307 
L 1907 2483 
C 1907 2803 1920 3027 1952 3245 
L 1344 3245 
C 1376 3008 1389 2803 1389 2477 
L 1389 307 
L 1126 307 
C 755 307 570 320 358 352 
L 358 -205 
C 608 -173 826 -160 1133 -160 
L 5274 -160 
C 5587 -160 5818 -173 6042 -205 
L 6042 352 
C 5811 320 5594 307 5267 307 
L 3654 307 
L 3654 2323 
L 4877 2323 
C 5158 2323 5370 2310 5549 2285 
L 5549 2822 
C 5370 2797 5184 2784 4877 2784 
L 3654 2784 
L 3654 4531 
L 5082 4531 
C 5344 4531 5594 4518 5818 4493 
L 5818 5037 
C 5600 5011 5376 4998 5082 4998 
L 1344 4998 
C 1037 4998 813 5011 608 5037 
L 608 4493 
C 832 4518 1069 4531 1350 4531 
L 3130 4531 
L 3130 307 
z
" transform="scale(0.015625)"/>
       <path id="HiraKakuProN-W4-898f" d="M 2240 2266 
C 2419 2266 2566 2259 2726 2234 
L 2726 2746 
C 2554 2720 2406 2714 2208 2714 
L 1818 2714 
C 1837 2995 1850 3238 1856 3712 
L 2227 3712 
C 2413 3712 2554 3706 2714 3680 
L 2714 4173 
C 2547 4147 2394 4141 2189 4141 
L 1869 4141 
C 1875 5005 1875 5005 1907 5222 
L 1363 5222 
C 1395 5050 1402 4909 1402 4614 
L 1402 4141 
L 998 4141 
C 787 4141 634 4154 461 4179 
L 461 3680 
C 653 3699 800 3712 986 3712 
L 1395 3712 
C 1376 2995 1376 2995 1363 2714 
L 896 2714 
C 691 2714 525 2726 358 2752 
L 358 2227 
C 538 2253 704 2266 922 2266 
L 1325 2266 
C 1274 1830 1197 1517 1062 1190 
C 864 698 659 422 237 64 
C 442 -83 474 -115 614 -307 
C 1184 230 1510 845 1683 1702 
C 1926 1229 2106 973 2534 525 
C 2675 768 2707 813 2829 954 
C 2362 1363 2112 1677 1798 2266 
L 2240 2266 
z
M 3520 1440 
C 3482 979 3366 685 3136 442 
C 2906 192 2560 6 2061 -141 
C 2208 -256 2291 -346 2419 -531 
C 2675 -416 2778 -371 2893 -307 
C 3213 -134 3450 64 3616 294 
C 3834 595 3917 870 3981 1440 
L 4435 1440 
L 4435 32 
C 4435 -320 4582 -410 5146 -410 
C 6003 -410 6074 -333 6189 691 
C 6010 749 5907 800 5760 909 
C 5734 493 5696 269 5645 160 
C 5600 64 5504 32 5242 32 
C 4934 32 4890 51 4890 179 
L 4890 1440 
L 5088 1440 
C 5286 1440 5562 1427 5670 1414 
C 5651 1581 5645 1734 5645 2003 
L 5645 4416 
C 5645 4698 5651 4877 5670 5069 
C 5491 5043 5370 5037 5050 5037 
L 3552 5037 
C 3270 5037 3104 5043 2938 5069 
C 2957 4909 2963 4704 2963 4435 
L 2963 2042 
C 2963 1734 2957 1542 2944 1421 
C 3091 1434 3258 1440 3437 1440 
L 3520 1440 
z
M 3424 4608 
L 5184 4608 
L 5184 3981 
L 3424 3981 
L 3424 4608 
z
M 3424 3565 
L 5184 3565 
L 5184 2931 
L 3424 2931 
L 3424 3565 
z
M 3424 2515 
L 5184 2515 
L 5184 1850 
L 3424 1850 
L 3424 2515 
z
" transform="scale(0.015625)"/>
       <path id="HiraKakuProN-W4-5206" d="M 2458 2598 
C 2413 2054 2323 1722 2112 1331 
C 1811 762 1274 301 518 -32 
C 685 -198 755 -294 851 -467 
C 2003 115 2630 870 2880 1952 
C 2925 2163 2944 2272 2970 2598 
L 4390 2598 
C 4390 1715 4333 954 4243 538 
C 4173 205 4128 166 3853 166 
C 3622 166 3328 198 2982 269 
C 3059 51 3085 -70 3110 -269 
C 3488 -301 3706 -314 3898 -314 
C 4326 -314 4499 -243 4614 -26 
C 4781 288 4890 1299 4902 2618 
C 4902 2925 4902 2963 4922 3085 
C 4736 3059 4544 3053 4250 3053 
L 2067 3053 
C 1824 3053 1619 3066 1440 3085 
L 1440 2560 
C 1619 2586 1824 2598 2067 2598 
L 2458 2598 
z
M 2189 5299 
C 2157 5114 2080 4922 1926 4634 
C 1517 3885 973 3296 192 2771 
C 358 2624 467 2496 557 2342 
C 1446 3002 2099 3795 2573 4774 
C 2656 4954 2694 5018 2752 5101 
L 2189 5299 
z
M 3629 5082 
C 3667 5018 3718 4922 3770 4819 
C 4294 3763 4909 3034 5882 2317 
C 6003 2528 6099 2656 6234 2790 
C 5389 3341 4838 3923 4384 4742 
C 4243 4986 4186 5114 4134 5286 
L 3629 5082 
z
" transform="scale(0.015625)"/>
       <path id="HiraKakuProN-W4-5e03" d="M 3213 2304 
L 3213 218 
C 3213 -109 3200 -352 3168 -525 
L 3750 -525 
C 3718 -358 3706 -115 3706 218 
L 3706 2304 
L 5050 2304 
L 5050 755 
C 5050 589 4979 544 4730 544 
C 4557 544 4339 570 4064 614 
C 4154 422 4186 314 4211 115 
C 4480 90 4550 90 4730 90 
C 5363 90 5542 211 5542 659 
L 5542 2240 
C 5542 2458 5549 2611 5568 2771 
C 5370 2746 5197 2739 4966 2739 
L 3706 2739 
L 3706 2842 
C 3706 3194 3712 3366 3744 3539 
L 3174 3539 
C 3206 3360 3213 3181 3213 2842 
L 3213 2739 
L 2003 2739 
C 2285 3104 2541 3526 2726 3904 
L 5318 3904 
C 5658 3904 5869 3891 6054 3866 
L 6054 4397 
C 5882 4371 5670 4358 5318 4358 
L 2918 4358 
C 2995 4563 3078 4800 3123 4954 
C 3181 5139 3194 5178 3245 5280 
L 2669 5363 
C 2637 5056 2560 4755 2406 4358 
L 1088 4358 
C 717 4358 512 4371 333 4397 
L 333 3866 
C 550 3891 768 3904 1088 3904 
L 2208 3904 
C 1747 2989 1094 2278 224 1734 
C 339 1613 448 1453 525 1293 
C 1018 1677 1197 1830 1504 2157 
L 1504 659 
C 1504 365 1491 166 1466 -32 
L 2029 -32 
C 2003 141 1997 314 1997 659 
L 1997 2304 
L 3213 2304 
z
" transform="scale(0.015625)"/>
      </defs>
      <use xlink:href="#HiraKakuProN-W4-6a19"/>
      <use xlink:href="#HiraKakuProN-W4-6e96" x="99.999985"/>
      <use xlink:href="#HiraKakuProN-W4-6b63" x="199.999969"/>
      <use xlink:href="#HiraKakuProN-W4-898f" x="299.999954"/>
      <use xlink:href="#HiraKakuProN-W4-5206" x="399.999939"/>
      <use xlink:href="#HiraKakuProN-W4-5e03" x="499.999924"/>
     </g>
    </g>
    <g id="patch_29">
     <path d="M 210.52 42.632187 
L 230.52 42.632187 
L 230.52 35.632187 
L 210.52 35.632187 
z
" style="fill: #0000ff; opacity: 0.6"/>
    </g>
    <g id="text_18">
     <!-- 目の和の標準化 -->
     <g transform="translate(238.52 35.78875) scale(0.1 -0.1)">
      <defs>
       <path id="HiraKakuProN-W4-76ee" d="M 1728 5024 
C 1434 5024 1242 5030 1037 5056 
C 1062 4851 1069 4672 1069 4410 
L 1069 237 
C 1069 -45 1056 -243 1030 -442 
L 1581 -442 
L 1581 -32 
L 4800 -32 
L 4800 -442 
L 5350 -442 
C 5325 -237 5312 -45 5312 269 
L 5312 4454 
C 5312 4685 5318 4858 5344 5056 
C 5158 5030 4973 5024 4678 5024 
L 1728 5024 
z
M 1581 3533 
L 1581 4550 
L 4800 4550 
L 4800 3533 
L 1581 3533 
z
M 1581 3066 
L 4800 3066 
L 4800 2016 
L 1581 2016 
L 1581 3066 
z
M 1581 1549 
L 4800 1549 
L 4800 442 
L 1581 442 
L 1581 1549 
z
" transform="scale(0.015625)"/>
       <path id="HiraKakuProN-W4-306e" d="M 3053 422 
C 3200 243 3245 160 3328 -96 
C 3821 6 4090 90 4397 237 
C 5293 666 5798 1459 5798 2451 
C 5798 3802 4832 4698 3379 4698 
C 2509 4698 1792 4403 1274 3834 
C 832 3347 589 2707 589 2042 
C 589 1107 1062 422 1709 422 
C 2189 422 2573 806 2938 1645 
C 3238 2323 3469 3264 3578 4205 
C 3891 4186 4070 4141 4294 4032 
C 4902 3738 5242 3174 5242 2477 
C 5242 1734 4870 1107 4230 768 
C 3917 602 3610 512 3053 422 
z
M 3027 4192 
C 2944 3398 2714 2483 2458 1888 
C 2195 1286 1952 992 1702 992 
C 1370 992 1114 1453 1114 2035 
C 1114 2797 1491 3501 2112 3891 
C 2394 4077 2656 4160 3027 4192 
z
" transform="scale(0.015625)"/>
       <path id="HiraKakuProN-W4-548c" d="M 1530 3629 
L 998 3629 
C 730 3629 576 3635 390 3667 
L 390 3155 
C 582 3181 749 3194 992 3194 
L 1446 3194 
C 1299 2771 1261 2669 1120 2394 
C 864 1875 589 1498 218 1139 
C 339 1018 422 902 525 723 
C 781 1018 915 1197 1062 1453 
C 1286 1830 1414 2118 1555 2566 
C 1542 2278 1523 1779 1523 1594 
L 1523 339 
C 1523 -58 1517 -250 1485 -454 
L 2042 -454 
C 2016 -269 2003 -51 2003 339 
L 2003 1638 
C 1990 2157 1978 2496 1971 2650 
C 2195 2157 2406 1843 2771 1459 
C 2893 1664 2950 1734 3072 1850 
C 2726 2138 2534 2349 2298 2707 
C 2163 2899 2112 2989 2029 3194 
L 2458 3194 
C 2701 3194 2848 3187 3008 3162 
L 3008 3661 
C 2867 3635 2720 3629 2458 3629 
L 2003 3629 
L 2003 4550 
C 2323 4646 2502 4698 2688 4774 
C 2874 4851 2976 4890 3046 4915 
L 2726 5331 
C 2381 5082 1414 4813 410 4685 
C 518 4525 570 4410 602 4237 
C 1043 4320 1203 4352 1530 4429 
L 1530 3629 
z
M 3750 186 
L 5357 186 
L 5357 -262 
L 5875 -262 
C 5850 -70 5837 205 5837 531 
L 5837 4115 
C 5837 4422 5843 4608 5869 4794 
C 5683 4768 5530 4762 5254 4762 
L 3846 4762 
C 3578 4762 3443 4768 3238 4794 
C 3264 4608 3270 4403 3270 4115 
L 3270 486 
C 3270 160 3258 -64 3238 -262 
L 3750 -262 
L 3750 186 
z
M 3750 4294 
L 5357 4294 
L 5357 646 
L 3750 646 
L 3750 4294 
z
" transform="scale(0.015625)"/>
       <path id="HiraKakuProN-W4-5316" d="M 3578 2298 
C 4410 2752 5050 3194 5600 3699 
C 5882 3949 5882 3949 5958 4013 
L 5542 4422 
C 5325 4134 5094 3910 4691 3584 
C 4333 3302 3942 3046 3578 2861 
L 3578 4570 
C 3578 4858 3590 5101 3616 5280 
L 3040 5280 
C 3059 5114 3078 4851 3078 4570 
L 3078 333 
C 3078 -192 3251 -282 4294 -282 
C 5299 -282 5613 -224 5786 0 
C 5933 186 6016 570 6086 1306 
C 5926 1344 5805 1395 5600 1510 
C 5555 806 5498 486 5389 346 
C 5299 230 5056 192 4358 192 
C 3674 192 3578 224 3578 435 
L 3578 2298 
z
M 1318 314 
C 1318 19 1306 -224 1274 -486 
L 1856 -486 
C 1830 -230 1818 51 1818 301 
L 1818 3674 
C 2080 4256 2202 4550 2310 4845 
C 2413 5120 2413 5120 2451 5203 
L 1894 5363 
C 1862 5107 1818 4941 1683 4595 
C 1363 3795 915 3136 269 2490 
C 384 2349 480 2189 563 2010 
C 909 2387 1152 2701 1331 3021 
C 1318 2688 1318 2573 1318 2259 
L 1318 314 
z
" transform="scale(0.015625)"/>
      </defs>
      <use xlink:href="#HiraKakuProN-W4-76ee"/>
      <use xlink:href="#HiraKakuProN-W4-306e" x="99.999985"/>
      <use xlink:href="#HiraKakuProN-W4-548c" x="199.999969"/>
      <use xlink:href="#HiraKakuProN-W4-306e" x="299.999954"/>
      <use xlink:href="#HiraKakuProN-W4-6a19" x="399.999939"/>
      <use xlink:href="#HiraKakuProN-W4-6e96" x="499.999924"/>
      <use xlink:href="#HiraKakuProN-W4-5316" x="599.999908"/>
     </g>
     <!-- 分布 (n=4) -->
     <g transform="translate(238.52 47.425625) scale(0.1 -0.1)">
      <defs>
       <path id="HiraKakuProN-W4-20" transform="scale(0.015625)"/>
       <path id="HiraKakuProN-W4-28" d="M 2195 -749 
C 1830 -198 1683 90 1542 538 
C 1402 986 1331 1472 1331 1978 
C 1331 2483 1402 2963 1542 3411 
C 1683 3859 1830 4147 2195 4698 
L 1715 5018 
C 1350 4461 1197 4173 1037 3712 
C 838 3155 742 2579 742 1978 
C 742 1376 838 794 1037 243 
C 1197 -218 1350 -512 1715 -1062 
L 2195 -749 
z
" transform="scale(0.015625)"/>
       <path id="HiraKakuProN-W4-6e" d="M 1114 0 
C 1082 256 1069 474 1069 755 
L 1069 2010 
C 1139 2272 1222 2426 1395 2630 
C 1658 2944 1933 3085 2266 3085 
C 2752 3085 3002 2797 3002 2234 
L 3002 755 
C 3002 454 2989 269 2957 0 
L 3629 0 
C 3597 218 3584 416 3584 749 
L 3584 2323 
C 3584 2662 3520 2912 3392 3110 
C 3181 3418 2816 3584 2349 3584 
C 1779 3584 1376 3360 1056 2867 
C 1069 3027 1069 3059 1069 3142 
L 1069 3520 
L 442 3520 
C 480 3264 493 3078 493 2765 
L 493 755 
C 493 429 480 256 442 0 
L 1114 0 
z
" transform="scale(0.015625)"/>
       <path id="HiraKakuProN-W4-3d" d="M 333 2720 
L 333 2195 
L 3923 2195 
L 3923 2720 
L 333 2720 
z
M 333 1376 
L 333 851 
L 3923 851 
L 3923 1376 
L 333 1376 
z
" transform="scale(0.015625)"/>
       <path id="HiraKakuProN-W4-34" d="M 179 1210 
C 403 1229 589 1235 954 1235 
L 2688 1235 
L 2688 710 
C 2688 410 2675 218 2630 0 
L 3309 0 
C 3270 230 3258 390 3258 704 
L 3258 1235 
L 3494 1235 
C 3763 1235 3910 1222 4154 1190 
L 4154 1798 
C 3917 1766 3750 1754 3494 1754 
L 3258 1754 
L 3258 3853 
C 3258 4358 3264 4544 3296 4934 
L 2701 4934 
C 2560 4704 2445 4550 2214 4269 
L 621 2298 
C 467 2099 326 1939 179 1773 
L 179 1210 
z
M 2688 1747 
L 858 1747 
L 2259 3514 
C 2464 3763 2592 3936 2720 4128 
C 2694 3814 2688 3622 2688 3283 
L 2688 1747 
z
" transform="scale(0.015625)"/>
       <path id="HiraKakuProN-W4-29" d="M 653 -1062 
C 1018 -512 1171 -218 1331 243 
C 1530 794 1626 1370 1626 1978 
C 1626 2579 1530 3155 1331 3712 
C 1171 4173 1018 4461 653 5018 
L 173 4698 
C 538 4147 685 3859 826 3411 
C 966 2963 1037 2490 1037 1978 
C 1037 1466 966 986 826 538 
C 685 90 538 -198 173 -749 
L 653 -1062 
z
" transform="scale(0.015625)"/>
      </defs>
      <use xlink:href="#HiraKakuProN-W4-5206"/>
      <use xlink:href="#HiraKakuProN-W4-5e03" x="99.999985"/>
      <use xlink:href="#HiraKakuProN-W4-20" x="199.999969"/>
      <use xlink:href="#HiraKakuProN-W4-28" x="233.299957"/>
      <use xlink:href="#HiraKakuProN-W4-6e" x="270.299942"/>
      <use xlink:href="#HiraKakuProN-W4-3d" x="333.699936"/>
      <use xlink:href="#HiraKakuProN-W4-34" x="400.09993"/>
      <use xlink:href="#HiraKakuProN-W4-29" x="467.599915"/>
     </g>
    </g>
   </g>
  </g>
 </g>
 <defs>
  <clipPath id="pf9645798e9">
   <rect x="42.12" y="4.32" width="275.4" height="179.28"/>
  </clipPath>
 </defs>
</svg>
