<?xml version="1.0" standalone="no"?>
<!DOCTYPE svg PUBLIC "-//W3C//DTD SVG 20010904//EN"
 "http://www.w3.org/TR/2001/REC-SVG-20010904/DTD/svg10.dtd">
<svg version="1.0" xmlns="http://www.w3.org/2000/svg"
 width="400.000000pt" height="400.000000pt" viewBox="0 0 400.000000 400.000000"
 preserveAspectRatio="xMidYMid meet">
<metadata>
Created by potrace 1.11, written by Peter Selinger 2001-2013
</metadata>
<g transform="translate(0.000000,400.000000) scale(0.100000,-0.100000)"
fill="#000000" stroke="none">
<path d="M2218 3921 c-83 -27 -185 -91 -266 -165 l-43 -39 -117 18 c-64 10
-126 18 -137 17 -12 0 -56 -38 -105 -90 -70 -74 -99 -98 -165 -130 -45 -22
-121 -63 -170 -92 -50 -28 -125 -68 -168 -88 -91 -44 -101 -62 -102 -188 0
-64 -4 -84 -18 -99 -53 -53 -167 -230 -167 -259 0 -7 11 -23 25 -36 17 -16 25
-34 25 -56 0 -23 7 -38 25 -52 14 -11 25 -29 25 -40 0 -12 5 -24 11 -28 25
-15 42 -86 54 -219 7 -77 16 -148 20 -157 9 -21 -16 -25 -37 -5 -22 20 -91 62
-127 77 l-35 14 -53 -60 c-64 -71 -89 -117 -108 -195 -24 -106 -7 -135 147
-249 115 -84 122 -92 155 -160 32 -65 33 -72 18 -92 -32 -46 -4 -148 41 -148
18 0 18 -15 -3 -92 -26 -99 -24 -303 4 -393 28 -90 88 -175 183 -259 59 -52
108 -83 225 -141 83 -40 175 -85 206 -98 34 -15 71 -41 95 -68 21 -24 70 -76
110 -114 47 -46 74 -81 78 -102 7 -31 6 -32 -29 -35 -34 -3 -39 -7 -55 -51
l-18 -47 87 0 88 0 -13 72 c-6 40 -11 75 -9 77 2 1 39 -4 82 -12 79 -15 169
-17 191 -3 7 4 22 4 33 1 20 -7 21 -12 14 -71 l-7 -64 35 0 c21 0 37 6 40 15
5 13 11 12 42 -1 20 -8 42 -13 48 -11 5 1 -12 13 -40 25 l-50 21 4 57 c5 54 8
60 60 108 97 89 182 139 333 196 47 18 157 67 245 110 220 107 305 187 369
346 40 100 49 161 44 307 l-5 136 24 6 c51 12 55 102 7 150 l-26 26 17 70 c15
61 22 73 54 94 20 13 80 38 133 55 113 36 183 83 193 130 10 47 -5 218 -21
230 -7 6 -16 26 -19 43 -27 125 -125 189 -226 147 -16 -7 -32 -10 -35 -7 -3 3
10 25 29 50 36 47 55 108 60 189 1 26 8 53 15 60 7 7 12 26 12 44 0 17 6 37
14 43 51 43 43 278 -11 337 -13 14 -23 37 -23 52 0 34 -23 71 -91 147 -76 86
-112 133 -143 190 -36 65 -59 90 -123 131 -29 19 -53 39 -53 45 0 33 -33 76
-68 88 -20 8 -49 22 -65 33 -25 18 -107 112 -125 145 -11 18 -157 67 -281 93
-104 22 -321 35 -363 21z m557 -123 c23 -10 36 -38 17 -38 -19 0 -62 26 -62
38 0 15 12 15 45 0z m116 -130 c16 -22 17 -27 5 -22 -9 3 -16 10 -16 15 0 5
-6 9 -14 9 -13 0 -26 20 -26 42 0 14 26 -8 51 -44z m-1168 5 c-7 -2 -21 -2
-30 0 -10 3 -4 5 12 5 17 0 24 -2 18 -5z m-123 -105 c-1 -14 -50 -54 -50 -41
0 14 30 53 41 53 5 0 9 -6 9 -12z m1430 2 c0 -5 -4 -10 -9 -10 -6 0 -13 5 -16
10 -3 6 1 10 9 10 9 0 16 -4 16 -10z m20 -46 c0 -8 -4 -12 -10 -9 -5 3 -10 13
-10 21 0 8 5 12 10 9 6 -3 10 -13 10 -21z m-280 -29 c14 -17 7 -43 -15 -52
-26 -10 -40 12 -27 42 13 29 24 31 42 10z m332 -20 c20 -14 40 -25 44 -25 9 0
54 -49 55 -61 1 -5 2 -13 3 -18 0 -5 4 -13 9 -17 4 -4 7 -13 7 -20 0 -16 -44
26 -53 51 -4 9 -11 13 -17 10 -5 -3 -10 -1 -10 4 0 6 5 11 10 11 6 0 10 5 10
11 0 6 -6 9 -14 6 -8 -3 -20 1 -26 9 -7 8 -19 14 -26 14 -8 0 -14 4 -14 9 0 5
-7 17 -16 25 -24 24 -3 19 38 -9z m-1662 -35 c-19 -16 -39 -29 -44 -30 -4 0
-25 -13 -45 -29 -51 -40 -93 -59 -114 -52 -30 11 -1 35 106 90 113 58 149 66
97 21z m1370 -30 c0 -5 -7 -7 -15 -4 -8 4 -12 10 -9 15 6 11 24 2 24 -11z
m-1355 -34 c-22 -33 -166 -129 -178 -117 -17 17 3 46 58 81 81 51 98 60 118
60 16 0 16 -2 2 -24z m1304 -71 c24 -25 41 -48 38 -51 -13 -13 -147 116 -147
141 0 10 62 -41 109 -90z m36 45 c23 -26 4 -26 -26 0 -18 15 -20 19 -8 20 9 0
24 -9 34 -20z m-1305 -18 c0 -11 -160 -116 -166 -109 -3 3 7 14 23 23 15 10
31 23 34 28 8 11 91 64 102 65 4 1 7 -3 7 -7z m637 -5 c3 -4 20 -7 37 -7 18 0
42 -7 54 -16 12 -8 22 -12 22 -7 0 4 7 -5 15 -21 8 -15 15 -34 15 -41 0 -23
71 -169 103 -210 17 -22 75 -83 129 -136 147 -143 241 -183 428 -183 83 0 117
5 164 22 122 45 135 32 146 -152 9 -134 3 -211 -22 -291 -13 -45 -16 -181 -6
-332 5 -77 4 -103 -5 -103 -7 0 -4 -5 6 -11 13 -8 17 -23 17 -69 0 -33 5 -80
12 -105 9 -35 9 -52 0 -79 -11 -29 -9 -47 14 -137 66 -261 24 -518 -109 -676
-38 -45 -145 -133 -161 -133 -4 0 -23 -11 -44 -24 -20 -14 -109 -57 -197 -96
-227 -101 -287 -133 -397 -212 -108 -77 -136 -88 -223 -88 -155 1 -269 39
-333 112 -102 116 -111 123 -227 161 -345 116 -516 253 -581 466 -9 30 -14 93
-14 181 0 142 17 246 59 365 28 78 2 55 -33 -30 -27 -67 -49 -78 -54 -26 -3
25 3 40 23 61 l26 27 -26 44 c-13 24 -25 56 -25 71 0 29 -32 59 -188 172 -51
37 -97 76 -102 86 -23 44 -1 159 43 225 34 51 90 105 109 105 21 0 65 -23 128
-66 86 -60 104 -100 84 -179 -8 -27 -14 -72 -14 -100 l-1 -50 -22 37 c-12 21
-27 38 -34 38 -6 0 -13 4 -15 9 -5 14 -89 81 -101 81 -7 0 0 -8 14 -18 31 -21
79 -69 107 -110 24 -32 28 -72 11 -89 -12 -12 -2 -58 16 -73 11 -10 14 -4 12
31 -3 55 14 59 38 9 l20 -41 0 83 c0 73 2 83 18 82 10 -1 17 5 17 17 0 10 5
21 10 24 6 3 10 19 10 35 0 16 18 77 40 137 45 122 45 126 25 243 -11 62 -14
116 -9 198 6 102 10 117 34 151 15 21 42 48 61 62 18 13 65 57 104 96 71 72
72 73 151 87 121 23 248 92 343 186 42 42 93 106 115 143 21 37 42 64 46 62 5
-3 19 -1 32 4 25 10 74 9 85 -2z m200 -9 c-3 -8 -6 -5 -6 6 -1 11 2 17 5 13 3
-3 4 -12 1 -19z m544 -17 c20 -12 27 -21 19 -26 -7 -4 -23 4 -38 19 -31 31
-25 33 19 7z m379 -1 c0 -5 -4 -10 -10 -10 -5 0 -10 5 -10 10 0 6 5 10 10 10
6 0 10 -4 10 -10z m-622 -53 c23 -23 42 -46 42 -51 0 -4 -7 0 -16 8 -8 9 -22
16 -29 16 -12 0 -55 50 -55 64 0 15 19 3 58 -37z m-1120 7 c2 -13 -14 -30 -53
-56 -65 -44 -95 -49 -95 -15 0 17 15 31 63 59 67 40 81 42 85 12z m869 -113
c13 -41 21 -76 19 -78 -10 -11 -54 110 -59 163 -5 53 -5 55 5 24 6 -19 22 -68
35 -109z m-1327 96 c0 -7 -6 -22 -14 -33 -8 -11 -16 -30 -18 -43 -1 -14 -9
-26 -15 -29 -18 -5 -17 52 2 88 16 30 45 41 45 17z m1785 -7 c3 -5 2 -10 -4
-10 -5 0 -13 5 -16 10 -3 6 -2 10 4 10 5 0 13 -4 16 -10z m-1132 -20 c4 -15
-2 -24 -23 -35 -15 -8 -30 -24 -33 -35 -3 -12 -15 -24 -26 -27 -12 -3 -21 -9
-21 -13 0 -4 -18 -15 -40 -26 -22 -10 -40 -23 -40 -29 0 -5 -4 -4 -9 4 -7 10
-13 11 -31 1 -37 -20 -36 -2 2 33 77 70 148 112 182 108 13 -2 17 2 13 12 -6
15 0 27 14 27 3 0 9 -9 12 -20z m1377 -26 c0 -14 -4 -23 -10 -19 -5 3 -10 15
-10 26 0 10 5 19 10 19 6 0 10 -12 10 -26z m46 1 c4 -8 11 -15 18 -15 6 -1 22
-10 35 -21 21 -17 22 -22 10 -30 -7 -5 -18 -9 -22 -9 -12 0 -67 63 -67 77 0
18 19 16 26 -2z m-452 -81 c13 -12 32 -24 41 -28 23 -9 12 -20 -12 -12 -18 6
-123 101 -123 112 0 6 50 -32 94 -72z m758 -20 c10 -12 14 -25 9 -32 -6 -10
-17 0 -40 34 -54 82 -40 81 31 -2z m-637 -54 c3 -5 2 -10 -4 -10 -5 0 -13 5
-16 10 -3 6 -2 10 4 10 5 0 13 -4 16 -10z m-140 -210 c24 -16 46 -30 48 -30 3
0 25 -12 48 -26 l44 -25 -35 6 c-40 8 -113 48 -150 82 -36 33 -7 29 45 -7z
m-1525 10 c0 -5 -3 -10 -7 -10 -5 0 -19 -3 -33 -6 -24 -5 -24 -5 -6 10 22 18
46 21 46 6z m2446 -615 c12 -8 31 -43 43 -77 13 -35 27 -71 32 -80 5 -10 9
-53 9 -97 0 -77 -1 -80 -32 -107 -18 -15 -49 -33 -68 -41 -19 -8 -44 -18 -55
-22 -28 -11 -127 -51 -145 -58 -11 -5 -10 -1 3 15 25 28 45 88 39 117 -2 13
-13 33 -23 44 -19 20 -19 21 3 35 38 24 151 75 182 81 20 4 26 9 19 16 -21 21
-161 -19 -226 -64 -25 -17 -39 7 -32 57 7 51 30 93 68 125 80 68 140 87 183
56z m-216 -378 c0 -29 -5 -59 -10 -67 -7 -10 -10 7 -10 58 0 46 4 71 10 67 6
-3 10 -30 10 -58z m-48 -374 c22 -19 25 -83 4 -83 -11 0 -36 66 -36 94 0 11
13 6 32 -11z m-1467 -1413 c0 -7 -6 -15 -12 -18 -8 -2 -13 5 -13 18 0 13 5 20
13 18 6 -3 12 -11 12 -18z"/>
<path d="M2858 2514 c-4 -3 5 -22 19 -42 13 -20 27 -49 30 -65 8 -41 23 -43
23 -3 0 20 -4 36 -10 36 -5 0 -10 6 -10 13 0 18 -44 69 -52 61z"/>
<path d="M1486 2463 c-26 -27 -49 -60 -53 -75 -3 -16 -9 -28 -14 -28 -5 0 -9
-4 -9 -10 0 -5 12 -10 26 -10 32 0 124 -32 124 -42 0 -11 -28 -10 -32 1 -5 13
-128 25 -128 12 0 -6 7 -8 16 -4 9 3 19 1 23 -5 4 -6 46 -13 95 -16 48 -2 93
-9 99 -15 13 -13 27 -15 27 -3 0 15 -96 59 -178 81 -37 10 -41 14 -28 26 8 8
20 15 26 15 14 0 147 -70 188 -99 18 -13 36 -21 38 -18 10 9 -97 87 -157 115
-32 15 -58 33 -59 40 0 15 32 16 47 1 6 -6 17 -9 25 -6 8 3 1 10 -17 18 -16 7
-32 14 -34 16 -3 2 6 14 19 28 44 46 2 25 -44 -22z"/>
<path d="M1397 2471 c-24 -42 -21 -52 4 -13 12 18 20 35 17 37 -2 2 -12 -9
-21 -24z"/>
<path d="M1436 2459 c-26 -31 -37 -62 -13 -37 16 17 49 68 43 68 -2 0 -16 -14
-30 -31z"/>
<path d="M2930 2472 c0 -11 27 -100 49 -162 3 -9 6 -4 9 14 2 16 -4 50 -14 75
-19 51 -44 92 -44 73z"/>
<path d="M2827 2448 c23 -25 83 -151 83 -174 0 -8 5 -14 11 -14 7 0 8 7 4 18
-4 9 -12 39 -17 66 -9 47 -66 126 -91 126 -6 0 -1 -10 10 -22z"/>
<path d="M2744 2429 c-19 -22 -19 -22 4 -8 12 8 22 17 22 21 0 12 -6 9 -26
-13z"/>
<path d="M1366 2403 c-6 -14 -5 -15 5 -6 7 7 10 15 7 18 -3 3 -9 -2 -12 -12z"/>
<path d="M1580 2410 c0 -6 8 -14 18 -17 24 -9 170 -132 176 -149 3 -8 10 -14
15 -14 6 0 1 16 -10 35 -12 19 -18 35 -15 35 5 0 39 -34 71 -70 6 -6 25 -20
42 -31 18 -10 45 -37 60 -58 16 -22 32 -40 36 -41 17 0 1 45 -19 55 -27 13
-55 41 -48 48 10 10 -153 170 -166 162 -7 -4 -24 5 -41 21 -20 19 -29 23 -29
13 0 -8 6 -21 13 -29 11 -13 -21 5 -68 37 -23 16 -35 17 -35 3z"/>
<path d="M2647 2363 c-97 -75 -115 -90 -155 -133 -23 -25 -52 -65 -64 -90 -12
-25 -24 -48 -26 -52 -2 -5 3 -8 12 -8 9 0 16 -4 16 -10 0 -5 -9 -10 -20 -10
-11 0 -23 -7 -26 -15 -4 -8 -12 -15 -20 -15 -7 0 -18 -9 -24 -19 -14 -28 -13
-33 8 -22 38 21 116 51 133 51 10 0 22 8 28 17 6 12 13 14 23 7 7 -6 40 -8 78
-5 58 6 61 7 31 14 -18 4 -71 7 -117 7 -80 0 -104 9 -66 26 9 4 21 8 25 8 7 1
17 8 90 67 46 37 95 55 110 40 6 -6 21 -11 33 -11 12 0 24 -6 27 -12 6 -16 43
4 40 21 -2 6 6 11 17 11 11 0 20 5 20 11 0 8 -11 9 -32 5 -18 -4 -49 -10 -68
-13 -32 -6 -34 -5 -21 10 7 10 21 17 30 17 9 0 21 4 26 9 6 5 19 11 30 14 11
3 0 5 -25 6 l-45 1 33 20 c39 24 43 45 7 36 -19 -5 -25 -2 -25 10 0 8 -3 14
-7 12 -5 -2 -25 -12 -45 -21 -20 -9 -42 -25 -47 -34 -6 -10 -11 -13 -11 -7 0
7 18 28 40 48 47 42 39 48 -13 9z"/>
<path d="M1345 2340 c-4 -17 -5 -34 -2 -36 2 -3 7 10 11 27 3 18 4 34 2 36 -2
3 -7 -10 -11 -27z"/>
<path d="M2815 2210 c-4 -6 3 -10 14 -10 25 0 27 6 6 13 -8 4 -17 2 -20 -3z"/>
<path d="M1490 2140 c0 -6 -10 -8 -24 -4 -13 3 -27 1 -30 -5 -5 -7 2 -11 16
-12 l23 0 -22 -9 c-27 -11 -31 -35 -5 -27 71 23 95 35 76 40 -17 4 -17 5 3 6
38 2 37 21 -1 21 -20 0 -36 -5 -36 -10z"/>
<path d="M1585 2146 c6 -2 46 -12 90 -21 110 -23 168 -37 180 -44 19 -11 79
-30 83 -26 11 11 -155 74 -216 82 -54 7 -149 13 -137 9z"/>
<path d="M1397 2114 c-3 -3 -3 -12 0 -20 3 -7 -8 -25 -24 -39 l-28 -26 36 23
c26 16 36 29 35 45 -1 23 -7 28 -19 17z"/>
<path d="M2825 2060 c73 -20 82 -21 50 -6 -16 9 -41 15 -55 15 -23 -1 -23 -2
5 -9z"/>
<path d="M2915 2030 c3 -5 8 -10 11 -10 2 0 4 5 4 10 0 6 -5 10 -11 10 -5 0
-7 -4 -4 -10z"/>
<path d="M3011 1959 c26 -28 51 -59 54 -70 4 -10 13 -19 21 -19 13 0 13 2 0
16 -9 8 -16 20 -16 26 0 12 -87 98 -99 98 -5 0 13 -23 40 -51z"/>
<path d="M1586 1963 c-27 -8 -64 -25 -81 -39 -18 -13 -38 -24 -46 -24 -8 0 -1
-7 15 -15 27 -14 29 -14 47 9 24 31 66 52 119 61 43 7 48 1 25 -29 -8 -11 -15
-37 -15 -57 0 -74 108 -121 156 -68 l19 21 5 -33 c3 -18 10 -34 15 -36 7 -2 9
17 5 57 -5 52 -11 65 -45 100 -37 38 -107 71 -149 69 -12 0 -43 -7 -70 -16z
m152 -55 c-4 -27 -28 -36 -28 -10 0 20 8 32 22 32 5 0 8 -10 6 -22z"/>
<path d="M2524 1952 c-72 -36 -124 -109 -124 -172 0 -23 4 -30 19 -30 16 0 20
8 23 37 4 47 18 51 41 12 17 -30 20 -31 64 -26 61 7 85 35 80 95 -5 46 0 49
52 31 18 -6 34 -9 37 -6 8 7 -68 46 -87 45 -41 -3 -61 3 -56 15 7 18 -14 17
-49 -1z m26 -72 c0 -10 -9 -24 -20 -30 -17 -9 -20 -8 -20 13 0 27 7 37 27 37
7 0 13 -9 13 -20z"/>
<path d="M2102 1899 c-35 -10 -37 -13 -46 -69 l-6 -35 37 39 c35 35 41 38 84
34 40 -4 46 -3 42 13 -3 9 -18 20 -35 23 -35 7 -33 7 -76 -5z"/>
<path d="M2738 1847 c3 -25 -2 -39 -24 -60 -14 -15 -21 -27 -15 -27 18 0 61
50 61 71 0 9 6 20 13 22 9 4 8 8 -3 16 -26 19 -36 12 -32 -22z"/>
<path d="M3122 1858 c6 -18 28 -21 28 -4 0 9 -7 16 -16 16 -9 0 -14 -5 -12
-12z"/>
<path d="M2235 1850 c3 -5 8 -10 11 -10 2 0 4 5 4 10 0 6 -5 10 -11 10 -5 0
-7 -4 -4 -10z"/>
<path d="M2351 1211 c-1 -28 -60 -88 -93 -94 -14 -3 -8 -5 15 -6 30 -1 45 5
68 28 30 31 33 43 19 76 -8 19 -9 18 -9 -4z"/>
<path d="M1943 1213 c-24 -5 -21 -33 3 -33 8 0 14 -4 14 -10 0 -15 -15 -12
-57 12 l-38 21 27 -29 c24 -25 35 -28 87 -29 46 0 66 -5 90 -23 17 -12 31 -17
31 -11 0 7 9 9 21 6 15 -4 38 5 72 28 34 23 54 31 62 25 13 -11 25 -3 25 16 0
23 -35 25 -78 4 -61 -30 -144 -27 -186 5 -18 14 -37 24 -42 24 -5 -1 -19 -4
-31 -6z"/>
<path d="M2208 1128 c9 -9 15 -9 24 0 9 9 7 12 -12 12 -19 0 -21 -3 -12 -12z"/>
<path d="M1680 826 c0 -14 3 -26 8 -26 4 0 20 -11 35 -25 24 -23 40 -23 18 1
-5 5 -11 23 -13 39 -2 22 -9 31 -25 33 -19 3 -23 -1 -23 -22z"/>
<path d="M1968 782 c-7 -10 -24 -26 -38 -35 -15 -11 -19 -17 -9 -17 8 0 25 7
38 17 21 14 25 14 35 1 36 -49 118 -58 169 -18 30 24 41 25 57 5 7 -8 17 -15
23 -15 10 0 -30 39 -42 41 -3 0 -41 2 -83 4 -51 2 -86 8 -103 19 -30 20 -31
20 -47 -2z"/>
<path d="M2457 782 c-10 -10 -17 -24 -17 -30 0 -19 -59 -53 -93 -55 -17 0 -45
2 -62 6 -27 6 -26 6 5 -7 69 -29 114 -19 179 36 24 21 31 33 26 48 -8 25 -17
25 -38 2z"/>
<path d="M1868 723 c6 -2 18 -2 25 0 6 3 1 5 -13 5 -14 0 -19 -2 -12 -5z"/>
<path d="M1875 625 c7 -33 12 -41 20 -33 3 3 -2 18 -11 34 l-16 29 7 -30z"/>
<path d="M1910 570 c0 -5 26 -23 58 -40 49 -28 67 -32 127 -32 45 0 81 6 100
16 17 9 36 16 43 16 6 0 12 5 12 11 0 7 -7 8 -17 3 -10 -4 -58 -9 -108 -11
-78 -4 -98 -1 -152 21 -35 13 -63 21 -63 16z"/>
<path d="M3833 2063 c-85 -3 -93 -5 -93 -24 0 -18 5 -19 68 -13 37 3 72 7 79
9 6 2 27 0 45 -5 41 -12 68 -4 68 21 0 16 -6 19 -37 17 -21 -1 -80 -4 -130 -5z"/>
<path d="M3900 1981 c0 -6 5 -13 10 -16 7 -4 1 -16 -14 -30 l-25 -23 24 -16
c14 -9 25 -23 25 -31 0 -8 5 -15 10 -15 6 0 5 -6 -2 -14 -7 -8 -14 -10 -16 -5
-2 5 -13 9 -25 9 -16 0 -18 -3 -9 -12 18 -18 15 -25 -18 -37 -16 -5 -31 -16
-31 -23 -1 -7 -2 -20 -3 -28 0 -8 -9 -14 -18 -14 -12 1 -18 -5 -18 -18 0 -10
6 -18 13 -17 44 5 54 -35 13 -51 -32 -12 -52 -46 -31 -54 21 -8 18 -33 -5 -46
-18 -10 -19 -13 -5 -26 19 -19 19 -40 2 -51 -16 -9 -29 -51 -18 -58 4 -2 6
-18 3 -35 -2 -18 0 -30 7 -30 6 0 11 -8 11 -18 0 -10 6 -27 14 -37 12 -17 11
-23 -10 -51 -27 -35 -30 -70 -9 -97 11 -15 11 -24 2 -44 -8 -17 -8 -32 0 -53
6 -15 7 -34 2 -41 -4 -7 -5 -25 -3 -39 3 -14 8 -65 12 -115 6 -80 9 -91 30
-100 25 -11 28 -38 10 -82 -6 -15 -10 -32 -9 -38 2 -5 4 -35 5 -65 2 -30 6
-53 11 -52 13 6 25 -22 12 -30 -8 -5 -5 -14 11 -31 13 -13 22 -29 20 -34 -2
-6 9 -22 24 -36 25 -23 31 -24 63 -15 l35 11 0 735 c0 688 -1 736 -17 748 -17
13 -17 15 0 28 24 19 22 64 -5 87 -24 19 -78 26 -78 10z m-5 -561 c3 -5 1 -10
-4 -10 -6 0 -11 5 -11 10 0 6 2 10 4 10 3 0 8 -4 11 -10z m-91 -71 c-3 -5 -10
-7 -15 -3 -5 3 -7 10 -3 15 3 5 10 7 15 3 5 -3 7 -10 3 -15z"/>
<path d="M3811 1911 c-16 -10 -7 -30 12 -27 21 3 38 17 32 27 -8 11 -26 11
-44 0z"/>
<path d="M3710 1540 c0 -13 20 -13 40 0 12 8 9 10 -12 10 -16 0 -28 -4 -28
-10z"/>
<path d="M3730 1489 c0 -5 5 -7 10 -4 6 3 10 8 10 11 0 2 -4 4 -10 4 -5 0 -10
-5 -10 -11z"/>
<path d="M3660 920 c0 -5 9 -10 21 -10 11 0 17 5 14 10 -3 6 -13 10 -21 10 -8
0 -14 -4 -14 -10z"/>
<path d="M3980 318 c-19 -23 -60 -82 -57 -83 1 -1 19 0 40 3 36 4 37 5 37 48
0 47 -3 51 -20 32z"/>
<path d="M3973 193 c-6 -16 -11 -47 -9 -70 1 -24 -1 -43 -6 -43 -26 0 -58 -17
-58 -30 0 -5 11 -12 25 -16 14 -3 25 -10 25 -16 0 -5 -4 -7 -8 -4 -4 2 -14 1
-22 -5 -10 -6 0 -9 33 -9 l47 0 0 110 c0 61 -3 110 -8 110 -4 0 -12 -12 -19
-27z"/>
</g>
</svg>
